<svg width="351" height="21" viewBox="0 0 351 21" fill="none" xmlns="http://www.w3.org/2000/svg">
<path d="M2.1 17V3H8.38C9.99333 3 11.2333 3.32667 12.1 3.98C12.9667 4.62 13.4 5.5 13.4 6.62C13.4 7.38 13.2267 8.02 12.88 8.54C12.5467 9.06 12.0933 9.46 11.52 9.74C10.9467 10.02 10.3267 10.16 9.66 10.16L10.02 9.56C10.82 9.56 11.5267 9.7 12.14 9.98C12.7533 10.26 13.24 10.6733 13.6 11.22C13.96 11.7533 14.14 12.42 14.14 13.22C14.14 14.42 13.6867 15.3533 12.78 16.02C11.8867 16.6733 10.5533 17 8.78 17H2.1ZM4.1 15.38H8.7C9.80667 15.38 10.6533 15.1933 11.24 14.82C11.8267 14.4467 12.12 13.86 12.12 13.06C12.12 12.2467 11.8267 11.6533 11.24 11.28C10.6533 10.9067 9.80667 10.72 8.7 10.72H3.92V9.1H8.2C9.21333 9.1 10 8.91333 10.56 8.54C11.12 8.16667 11.4 7.60667 11.4 6.86C11.4 6.11333 11.12 5.55333 10.56 5.18C10 4.80667 9.21333 4.62 8.2 4.62H4.1V15.38ZM23.4167 17.12C22.5101 17.12 21.7101 16.9533 21.0167 16.62C20.3367 16.2867 19.8034 15.78 19.4167 15.1C19.0434 14.4067 18.8567 13.54 18.8567 12.5V6.4H20.7767V12.28C20.7767 13.32 21.0234 14.1 21.5167 14.62C22.0234 15.14 22.7301 15.4 23.6367 15.4C24.3034 15.4 24.8834 15.2667 25.3767 15C25.8701 14.72 26.2501 14.32 26.5167 13.8C26.7834 13.2667 26.9167 12.6267 26.9167 11.88V6.4H28.8367V17H27.0167V14.14L27.3167 14.9C26.9701 15.6067 26.4501 16.1533 25.7567 16.54C25.0634 16.9267 24.2834 17.12 23.4167 17.12ZM34.4919 17V6.4H36.4119V17H34.4919ZM35.4519 4.36C35.0785 4.36 34.7652 4.24 34.5119 4C34.2719 3.76 34.1519 3.46667 34.1519 3.12C34.1519 2.76 34.2719 2.46 34.5119 2.22C34.7652 1.98 35.0785 1.86 35.4519 1.86C35.8252 1.86 36.1319 1.98 36.3719 2.22C36.6252 2.44667 36.7519 2.73333 36.7519 3.08C36.7519 3.44 36.6319 3.74667 36.3919 4C36.1519 4.24 35.8385 4.36 35.4519 4.36ZM42.0778 17V2.16H43.9978V17H42.0778ZM54.0438 17.12C53.0171 17.12 52.0971 16.8933 51.2838 16.44C50.4838 15.9867 49.8504 15.3533 49.3838 14.54C48.9171 13.7267 48.6838 12.78 48.6838 11.7C48.6838 10.62 48.9171 9.68 49.3838 8.88C49.8504 8.06667 50.4838 7.43333 51.2838 6.98C52.0971 6.52667 53.0171 6.3 54.0438 6.3C54.9371 6.3 55.7438 6.5 56.4638 6.9C57.1838 7.3 57.7571 7.9 58.1838 8.7C58.6238 9.5 58.8438 10.5 58.8438 11.7C58.8438 12.9 58.6304 13.9 58.2038 14.7C57.7904 15.5 57.2238 16.1067 56.5038 16.52C55.7838 16.92 54.9638 17.12 54.0438 17.12ZM54.2038 15.44C54.8704 15.44 55.4704 15.2867 56.0038 14.98C56.5504 14.6733 56.9771 14.24 57.2838 13.68C57.6038 13.1067 57.7638 12.4467 57.7638 11.7C57.7638 10.94 57.6038 10.2867 57.2838 9.74C56.9771 9.18 56.5504 8.74667 56.0038 8.44C55.4704 8.13333 54.8704 7.98 54.2038 7.98C53.5238 7.98 52.9171 8.13333 52.3838 8.44C51.8504 8.74667 51.4238 9.18 51.1038 9.74C50.7838 10.2867 50.6238 10.94 50.6238 11.7C50.6238 12.4467 50.7838 13.1067 51.1038 13.68C51.4238 14.24 51.8504 14.6733 52.3838 14.98C52.9171 15.2867 53.5238 15.44 54.2038 15.44ZM57.8238 17V14.14L57.9437 11.68L57.7438 9.22V2.16H59.6638V17H57.8238ZM65.2966 17V6.4H67.2166V17H65.2966ZM66.2566 4.36C65.8832 4.36 65.5699 4.24 65.3166 4C65.0766 3.76 64.9566 3.46667 64.9566 3.12C64.9566 2.76 65.0766 2.46 65.3166 2.22C65.5699 1.98 65.8832 1.86 66.2566 1.86C66.6299 1.86 66.9366 1.98 67.1766 2.22C67.4299 2.44667 67.5566 2.73333 67.5566 3.08C67.5566 3.44 67.4366 3.74667 67.1966 4C66.9566 4.24 66.6432 4.36 66.2566 4.36ZM78.5425 6.3C79.4092 6.3 80.1692 6.46667 80.8225 6.8C81.4892 7.13333 82.0092 7.64 82.3825 8.32C82.7558 9 82.9425 9.86 82.9425 10.9V17H81.0225V11.12C81.0225 10.0933 80.7692 9.32 80.2625 8.8C79.7692 8.28 79.0692 8.02 78.1625 8.02C77.4825 8.02 76.8892 8.15333 76.3825 8.42C75.8758 8.68667 75.4825 9.08 75.2025 9.6C74.9358 10.12 74.8025 10.7667 74.8025 11.54V17H72.8825V6.4H74.7225V9.26L74.4225 8.5C74.7692 7.80667 75.3025 7.26667 76.0225 6.88C76.7425 6.49333 77.5825 6.3 78.5425 6.3ZM93.1358 21C92.1624 21 91.2158 20.86 90.2958 20.58C89.3891 20.3133 88.6491 19.9267 88.0758 19.42L88.9958 17.94C89.4891 18.3667 90.0958 18.7 90.8158 18.94C91.5358 19.1933 92.2891 19.32 93.0758 19.32C94.3291 19.32 95.2491 19.0267 95.8358 18.44C96.4224 17.8533 96.7158 16.96 96.7158 15.76V13.52L96.9158 11.42L96.8158 9.3V6.4H98.6358V15.56C98.6358 17.4267 98.1691 18.8 97.2358 19.68C96.3024 20.56 94.9358 21 93.1358 21ZM92.8958 16.56C91.8691 16.56 90.9491 16.3467 90.1358 15.92C89.3358 15.48 88.6958 14.8733 88.2158 14.1C87.7491 13.3267 87.5158 12.4333 87.5158 11.42C87.5158 10.3933 87.7491 9.5 88.2158 8.74C88.6958 7.96667 89.3358 7.36667 90.1358 6.94C90.9491 6.51333 91.8691 6.3 92.8958 6.3C93.8024 6.3 94.6291 6.48667 95.3758 6.86C96.1224 7.22 96.7158 7.78 97.1558 8.54C97.6091 9.3 97.8358 10.26 97.8358 11.42C97.8358 12.5667 97.6091 13.52 97.1558 14.28C96.7158 15.04 96.1224 15.6133 95.3758 16C94.6291 16.3733 93.8024 16.56 92.8958 16.56ZM93.1158 14.88C93.8224 14.88 94.4491 14.7333 94.9958 14.44C95.5424 14.1467 95.9691 13.74 96.2758 13.22C96.5958 12.7 96.7558 12.1 96.7558 11.42C96.7558 10.74 96.5958 10.14 96.2758 9.62C95.9691 9.1 95.5424 8.7 94.9958 8.42C94.4491 8.12667 93.8224 7.98 93.1158 7.98C92.4091 7.98 91.7758 8.12667 91.2158 8.42C90.6691 8.7 90.2358 9.1 89.9158 9.62C89.6091 10.14 89.4558 10.74 89.4558 11.42C89.4558 12.1 89.6091 12.7 89.9158 13.22C90.2358 13.74 90.6691 14.1467 91.2158 14.44C91.7758 14.7333 92.4091 14.88 93.1158 14.88ZM111.955 17V3H118.235C119.849 3 121.089 3.32667 121.955 3.98C122.822 4.62 123.255 5.5 123.255 6.62C123.255 7.38 123.082 8.02 122.735 8.54C122.402 9.06 121.949 9.46 121.375 9.74C120.802 10.02 120.182 10.16 119.515 10.16L119.875 9.56C120.675 9.56 121.382 9.7 121.995 9.98C122.609 10.26 123.095 10.6733 123.455 11.22C123.815 11.7533 123.995 12.42 123.995 13.22C123.995 14.42 123.542 15.3533 122.635 16.02C121.742 16.6733 120.409 17 118.635 17H111.955ZM113.955 15.38H118.555C119.662 15.38 120.509 15.1933 121.095 14.82C121.682 14.4467 121.975 13.86 121.975 13.06C121.975 12.2467 121.682 11.6533 121.095 11.28C120.509 10.9067 119.662 10.72 118.555 10.72H113.775V9.1H118.055C119.069 9.1 119.855 8.91333 120.415 8.54C120.975 8.16667 121.255 7.60667 121.255 6.86C121.255 6.11333 120.975 5.55333 120.415 5.18C119.855 4.80667 119.069 4.62 118.055 4.62H113.955V15.38ZM128.812 17V2.16H130.732V17H128.812ZM140.938 17.12C139.871 17.12 138.925 16.8867 138.098 16.42C137.271 15.9533 136.618 15.3133 136.138 14.5C135.658 13.6733 135.418 12.74 135.418 11.7C135.418 10.6467 135.658 9.71333 136.138 8.9C136.618 8.08667 137.271 7.45333 138.098 7C138.925 6.53333 139.871 6.3 140.938 6.3C141.991 6.3 142.931 6.53333 143.758 7C144.598 7.45333 145.251 8.08667 145.718 8.9C146.198 9.7 146.438 10.6333 146.438 11.7C146.438 12.7533 146.198 13.6867 145.718 14.5C145.251 15.3133 144.598 15.9533 143.758 16.42C142.931 16.8867 141.991 17.12 140.938 17.12ZM140.938 15.44C141.618 15.44 142.225 15.2867 142.758 14.98C143.305 14.6733 143.731 14.24 144.038 13.68C144.345 13.1067 144.498 12.4467 144.498 11.7C144.498 10.94 144.345 10.2867 144.038 9.74C143.731 9.18 143.305 8.74667 142.758 8.44C142.225 8.13333 141.618 7.98 140.938 7.98C140.258 7.98 139.651 8.13333 139.118 8.44C138.585 8.74667 138.158 9.18 137.838 9.74C137.518 10.2867 137.358 10.94 137.358 11.7C137.358 12.4467 137.518 13.1067 137.838 13.68C138.158 14.24 138.585 14.6733 139.118 14.98C139.651 15.2867 140.258 15.44 140.938 15.44ZM155.713 17.12C154.633 17.12 153.667 16.8867 152.813 16.42C151.973 15.9533 151.313 15.3133 150.833 14.5C150.353 13.6867 150.113 12.7533 150.113 11.7C150.113 10.6467 150.353 9.71333 150.833 8.9C151.313 8.08667 151.973 7.45333 152.813 7C153.667 6.53333 154.633 6.3 155.713 6.3C156.673 6.3 157.527 6.49333 158.273 6.88C159.033 7.25333 159.62 7.81333 160.033 8.56L158.573 9.5C158.227 8.98 157.8 8.6 157.293 8.36C156.8 8.10667 156.267 7.98 155.693 7.98C155 7.98 154.38 8.13333 153.833 8.44C153.287 8.74667 152.853 9.18 152.533 9.74C152.213 10.2867 152.053 10.94 152.053 11.7C152.053 12.46 152.213 13.12 152.533 13.68C152.853 14.24 153.287 14.6733 153.833 14.98C154.38 15.2867 155 15.44 155.693 15.44C156.267 15.44 156.8 15.32 157.293 15.08C157.8 14.8267 158.227 14.44 158.573 13.92L160.033 14.84C159.62 15.5733 159.033 16.14 158.273 16.54C157.527 16.9267 156.673 17.12 155.713 17.12ZM165.943 14.44L165.983 11.98L172.083 6.4H174.403L169.723 11L168.683 11.88L165.943 14.44ZM164.383 17V2.16H166.303V17H164.383ZM172.483 17L168.323 11.84L169.563 10.3L174.843 17H172.483Z" fill="white"/>
<path d="M197.351 14.1585H193.425V17.9999H192.095V14.1585H188.169V12.9131H192.095V9.05127H193.425V12.9131H197.351V14.1585Z" fill="white"/>
<path d="M190.182 7.10723H186.256V10.9486H184.926V7.10723H181V5.86185H184.926V2H186.256V5.86185H190.182V7.10723Z" fill="white"/>
<path d="M209.712 17.16C208.645 17.16 207.658 16.9867 206.752 16.64C205.858 16.28 205.078 15.78 204.412 15.14C203.758 14.4867 203.245 13.7267 202.872 12.86C202.498 11.9933 202.312 11.04 202.312 10C202.312 8.96 202.498 8.00667 202.872 7.14C203.245 6.27333 203.765 5.52 204.432 4.88C205.098 4.22667 205.878 3.72667 206.772 3.38C207.678 3.02 208.665 2.84 209.732 2.84C210.812 2.84 211.805 3.02667 212.712 3.4C213.632 3.76 214.412 4.3 215.052 5.02L213.752 6.28C213.218 5.72 212.618 5.30667 211.952 5.04C211.285 4.76 210.572 4.62 209.812 4.62C209.025 4.62 208.292 4.75333 207.612 5.02C206.945 5.28667 206.365 5.66 205.872 6.14C205.378 6.62 204.992 7.19333 204.712 7.86C204.445 8.51333 204.312 9.22667 204.312 10C204.312 10.7733 204.445 11.4933 204.712 12.16C204.992 12.8133 205.378 13.38 205.872 13.86C206.365 14.34 206.945 14.7133 207.612 14.98C208.292 15.2467 209.025 15.38 209.812 15.38C210.572 15.38 211.285 15.2467 211.952 14.98C212.618 14.7 213.218 14.2733 213.752 13.7L215.052 14.96C214.412 15.68 213.632 16.2267 212.712 16.6C211.805 16.9733 210.805 17.16 209.712 17.16ZM223.715 17.12C222.649 17.12 221.702 16.8867 220.875 16.42C220.049 15.9533 219.395 15.3133 218.915 14.5C218.435 13.6733 218.195 12.74 218.195 11.7C218.195 10.6467 218.435 9.71333 218.915 8.9C219.395 8.08667 220.049 7.45333 220.875 7C221.702 6.53333 222.649 6.3 223.715 6.3C224.769 6.3 225.709 6.53333 226.535 7C227.375 7.45333 228.029 8.08667 228.495 8.9C228.975 9.7 229.215 10.6333 229.215 11.7C229.215 12.7533 228.975 13.6867 228.495 14.5C228.029 15.3133 227.375 15.9533 226.535 16.42C225.709 16.8867 224.769 17.12 223.715 17.12ZM223.715 15.44C224.395 15.44 225.002 15.2867 225.535 14.98C226.082 14.6733 226.509 14.24 226.815 13.68C227.122 13.1067 227.275 12.4467 227.275 11.7C227.275 10.94 227.122 10.2867 226.815 9.74C226.509 9.18 226.082 8.74667 225.535 8.44C225.002 8.13333 224.395 7.98 223.715 7.98C223.035 7.98 222.429 8.13333 221.895 8.44C221.362 8.74667 220.935 9.18 220.615 9.74C220.295 10.2867 220.135 10.94 220.135 11.7C220.135 12.4467 220.295 13.1067 220.615 13.68C220.935 14.24 221.362 14.6733 221.895 14.98C222.429 15.2867 223.035 15.44 223.715 15.44ZM239.531 6.3C240.397 6.3 241.157 6.46667 241.811 6.8C242.477 7.13333 242.997 7.64 243.371 8.32C243.744 9 243.931 9.86 243.931 10.9V17H242.011V11.12C242.011 10.0933 241.757 9.32 241.251 8.8C240.757 8.28 240.057 8.02 239.151 8.02C238.471 8.02 237.877 8.15333 237.371 8.42C236.864 8.68667 236.471 9.08 236.191 9.6C235.924 10.12 235.791 10.7667 235.791 11.54V17H233.871V6.4H235.711V9.26L235.411 8.5C235.757 7.80667 236.291 7.26667 237.011 6.88C237.731 6.49333 238.571 6.3 239.531 6.3ZM249.764 17V5.46C249.764 4.42 250.064 3.59333 250.664 2.98C251.277 2.35333 252.144 2.04 253.264 2.04C253.677 2.04 254.071 2.09333 254.444 2.2C254.831 2.29333 255.157 2.44667 255.424 2.66L254.844 4.12C254.644 3.96 254.417 3.84 254.164 3.76C253.911 3.66667 253.644 3.62 253.364 3.62C252.804 3.62 252.377 3.78 252.084 4.1C251.791 4.40667 251.644 4.86667 251.644 5.48V6.9L251.684 7.78V17H249.764ZM247.964 7.98V6.4H254.724V7.98H247.964ZM256.544 17V6.4H258.464V17H256.544ZM257.504 4.36C257.131 4.36 256.817 4.24 256.564 4C256.324 3.76 256.204 3.46667 256.204 3.12C256.204 2.76 256.324 2.46 256.564 2.22C256.817 1.98 257.131 1.86 257.504 1.86C257.877 1.86 258.184 1.98 258.424 2.22C258.677 2.44667 258.804 2.73333 258.804 3.08C258.804 3.44 258.684 3.74667 258.444 4C258.204 4.24 257.891 4.36 257.504 4.36ZM268.761 21C267.787 21 266.841 20.86 265.921 20.58C265.014 20.3133 264.274 19.9267 263.701 19.42L264.621 17.94C265.114 18.3667 265.721 18.7 266.441 18.94C267.161 19.1933 267.914 19.32 268.701 19.32C269.954 19.32 270.874 19.0267 271.461 18.44C272.047 17.8533 272.341 16.96 272.341 15.76V13.52L272.541 11.42L272.441 9.3V6.4H274.261V15.56C274.261 17.4267 273.794 18.8 272.861 19.68C271.927 20.56 270.561 21 268.761 21ZM268.521 16.56C267.494 16.56 266.574 16.3467 265.761 15.92C264.961 15.48 264.321 14.8733 263.841 14.1C263.374 13.3267 263.141 12.4333 263.141 11.42C263.141 10.3933 263.374 9.5 263.841 8.74C264.321 7.96667 264.961 7.36667 265.761 6.94C266.574 6.51333 267.494 6.3 268.521 6.3C269.427 6.3 270.254 6.48667 271.001 6.86C271.747 7.22 272.341 7.78 272.781 8.54C273.234 9.3 273.461 10.26 273.461 11.42C273.461 12.5667 273.234 13.52 272.781 14.28C272.341 15.04 271.747 15.6133 271.001 16C270.254 16.3733 269.427 16.56 268.521 16.56ZM268.741 14.88C269.447 14.88 270.074 14.7333 270.621 14.44C271.167 14.1467 271.594 13.74 271.901 13.22C272.221 12.7 272.381 12.1 272.381 11.42C272.381 10.74 272.221 10.14 271.901 9.62C271.594 9.1 271.167 8.7 270.621 8.42C270.074 8.12667 269.447 7.98 268.741 7.98C268.034 7.98 267.401 8.12667 266.841 8.42C266.294 8.7 265.861 9.1 265.541 9.62C265.234 10.14 265.081 10.74 265.081 11.42C265.081 12.1 265.234 12.7 265.541 13.22C265.861 13.74 266.294 14.1467 266.841 14.44C267.401 14.7333 268.034 14.88 268.741 14.88ZM284.389 17.12C283.483 17.12 282.683 16.9533 281.989 16.62C281.309 16.2867 280.776 15.78 280.389 15.1C280.016 14.4067 279.829 13.54 279.829 12.5V6.4H281.749V12.28C281.749 13.32 281.996 14.1 282.489 14.62C282.996 15.14 283.703 15.4 284.609 15.4C285.276 15.4 285.856 15.2667 286.349 15C286.843 14.72 287.223 14.32 287.489 13.8C287.756 13.2667 287.889 12.6267 287.889 11.88V6.4H289.809V17H287.989V14.14L288.289 14.9C287.943 15.6067 287.423 16.1533 286.729 16.54C286.036 16.9267 285.256 17.12 284.389 17.12ZM295.465 17V6.4H297.305V9.28L297.125 8.56C297.418 7.82667 297.911 7.26667 298.605 6.88C299.298 6.49333 300.151 6.3 301.165 6.3V8.16C301.085 8.14667 301.005 8.14 300.925 8.14C300.858 8.14 300.791 8.14 300.725 8.14C299.698 8.14 298.885 8.44667 298.285 9.06C297.685 9.67333 297.385 10.56 297.385 11.72V17H295.465ZM311.33 17V14.76L311.23 14.34V10.52C311.23 9.70667 310.99 9.08 310.51 8.64C310.043 8.18667 309.336 7.96 308.39 7.96C307.763 7.96 307.15 8.06667 306.55 8.28C305.95 8.48 305.443 8.75333 305.03 9.1L304.23 7.66C304.776 7.22 305.43 6.88667 306.19 6.66C306.963 6.42 307.77 6.3 308.61 6.3C310.063 6.3 311.183 6.65333 311.97 7.36C312.756 8.06667 313.15 9.14667 313.15 10.6V17H311.33ZM307.85 17.12C307.063 17.12 306.37 16.9867 305.77 16.72C305.183 16.4533 304.73 16.0867 304.41 15.62C304.09 15.14 303.93 14.6 303.93 14C303.93 13.4267 304.063 12.9067 304.33 12.44C304.61 11.9733 305.056 11.6 305.67 11.32C306.296 11.04 307.136 10.9 308.19 10.9H311.55V12.28H308.27C307.31 12.28 306.663 12.44 306.33 12.76C305.996 13.08 305.83 13.4667 305.83 13.92C305.83 14.44 306.036 14.86 306.45 15.18C306.863 15.4867 307.436 15.64 308.17 15.64C308.89 15.64 309.516 15.48 310.05 15.16C310.596 14.84 310.99 14.3733 311.23 13.76L311.61 15.08C311.356 15.7067 310.91 16.2067 310.27 16.58C309.63 16.94 308.823 17.12 307.85 17.12ZM322.343 17.12C321.276 17.12 320.449 16.8333 319.863 16.26C319.276 15.6867 318.983 14.8667 318.983 13.8V4.08H320.903V13.72C320.903 14.2933 321.043 14.7333 321.323 15.04C321.616 15.3467 322.029 15.5 322.563 15.5C323.163 15.5 323.663 15.3333 324.063 15L324.663 16.38C324.369 16.6333 324.016 16.82 323.603 16.94C323.203 17.06 322.783 17.12 322.343 17.12ZM317.183 7.98V6.4H323.943V7.98H317.183ZM333.173 17.12C332.106 17.12 331.159 16.8867 330.333 16.42C329.506 15.9533 328.853 15.3133 328.373 14.5C327.893 13.6733 327.653 12.74 327.653 11.7C327.653 10.6467 327.893 9.71333 328.373 8.9C328.853 8.08667 329.506 7.45333 330.333 7C331.159 6.53333 332.106 6.3 333.173 6.3C334.226 6.3 335.166 6.53333 335.993 7C336.833 7.45333 337.486 8.08667 337.953 8.9C338.433 9.7 338.673 10.6333 338.673 11.7C338.673 12.7533 338.433 13.6867 337.953 14.5C337.486 15.3133 336.833 15.9533 335.993 16.42C335.166 16.8867 334.226 17.12 333.173 17.12ZM333.173 15.44C333.853 15.44 334.459 15.2867 334.993 14.98C335.539 14.6733 335.966 14.24 336.273 13.68C336.579 13.1067 336.733 12.4467 336.733 11.7C336.733 10.94 336.579 10.2867 336.273 9.74C335.966 9.18 335.539 8.74667 334.993 8.44C334.459 8.13333 333.853 7.98 333.173 7.98C332.493 7.98 331.886 8.13333 331.353 8.44C330.819 8.74667 330.393 9.18 330.073 9.74C329.753 10.2867 329.593 10.94 329.593 11.7C329.593 12.4467 329.753 13.1067 330.073 13.68C330.393 14.24 330.819 14.6733 331.353 14.98C331.886 15.2867 332.493 15.44 333.173 15.44ZM343.328 17V6.4H345.168V9.28L344.988 8.56C345.281 7.82667 345.774 7.26667 346.468 6.88C347.161 6.49333 348.014 6.3 349.028 6.3V8.16C348.948 8.14667 348.868 8.14 348.788 8.14C348.721 8.14 348.654 8.14 348.588 8.14C347.561 8.14 346.748 8.44667 346.148 9.06C345.548 9.67333 345.248 10.56 345.248 11.72V17H343.328Z" fill="white"/>
</svg>
