<svg width="128" height="17" viewBox="0 0 128 17" fill="none" xmlns="http://www.w3.org/2000/svg">
<path d="M0.504 13V1.8H5.752C7.096 1.8 8.12 2.06667 8.824 2.6C9.528 3.12267 9.88 3.82667 9.88 4.712C9.88 5.30933 9.74133 5.82133 9.464 6.248C9.18667 6.664 8.81333 6.98933 8.344 7.224C7.88533 7.448 7.384 7.56 6.84 7.56L7.128 6.984C7.75733 6.984 8.32267 7.10133 8.824 7.336C9.32533 7.56 9.72 7.89067 10.008 8.328C10.3067 8.76533 10.456 9.30933 10.456 9.96C10.456 10.92 10.088 11.6667 9.352 12.2C8.616 12.7333 7.52267 13 6.072 13H0.504ZM2.584 11.368H5.944C6.72267 11.368 7.32 11.24 7.736 10.984C8.152 10.728 8.36 10.3173 8.36 9.752C8.36 9.19733 8.152 8.792 7.736 8.536C7.32 8.26933 6.72267 8.136 5.944 8.136H2.424V6.52H5.528C6.25333 6.52 6.808 6.392 7.192 6.136C7.58667 5.88 7.784 5.496 7.784 4.984C7.784 4.46133 7.58667 4.072 7.192 3.816C6.808 3.56 6.25333 3.432 5.528 3.432H2.584V11.368ZM16.0999 13.112C15.3745 13.112 14.7345 12.9787 14.1799 12.712C13.6252 12.4347 13.1932 12.0187 12.8839 11.464C12.5745 10.8987 12.4199 10.1893 12.4199 9.336V4.456H14.4199V9.064C14.4199 9.832 14.5905 10.408 14.9319 10.792C15.2839 11.1653 15.7799 11.352 16.4199 11.352C16.8892 11.352 17.2945 11.256 17.6359 11.064C17.9879 10.872 18.2599 10.584 18.4519 10.2C18.6545 9.816 18.7559 9.34133 18.7559 8.776V4.456H20.7559V13H18.8519V10.696L19.1879 11.4C18.8999 11.9547 18.4785 12.3813 17.9239 12.68C17.3692 12.968 16.7612 13.112 16.0999 13.112ZM23.3745 13V4.456H25.3745V13H23.3745ZM24.3825 3.048C24.0092 3.048 23.6998 2.93067 23.4545 2.696C23.2198 2.46133 23.1025 2.17867 23.1025 1.848C23.1025 1.50667 23.2198 1.224 23.4545 0.999999C23.6998 0.765333 24.0092 0.648 24.3825 0.648C24.7558 0.648 25.0598 0.76 25.2945 0.983999C25.5398 1.19733 25.6625 1.46933 25.6625 1.8C25.6625 2.152 25.5452 2.45067 25.3105 2.696C25.0758 2.93067 24.7665 3.048 24.3825 3.048ZM27.9995 13V1.128H29.9995V13H27.9995ZM36.2405 13.112C35.4192 13.112 34.6778 12.9307 34.0165 12.568C33.3658 12.1947 32.8538 11.6827 32.4805 11.032C32.1072 10.3813 31.9205 9.61333 31.9205 8.728C31.9205 7.84267 32.1072 7.07467 32.4805 6.424C32.8538 5.77333 33.3658 5.26667 34.0165 4.904C34.6778 4.54133 35.4192 4.36 36.2405 4.36C36.9552 4.36 37.5952 4.52 38.1605 4.84C38.7258 5.14933 39.1738 5.624 39.5045 6.264C39.8352 6.904 40.0005 7.72533 40.0005 8.728C40.0005 9.72 39.8405 10.5413 39.5205 11.192C39.2005 11.832 38.7578 12.312 38.1925 12.632C37.6272 12.952 36.9765 13.112 36.2405 13.112ZM36.4805 11.4C36.9605 11.4 37.3872 11.2933 37.7605 11.08C38.1445 10.8667 38.4485 10.5573 38.6725 10.152C38.9072 9.74667 39.0245 9.272 39.0245 8.728C39.0245 8.17333 38.9072 7.69867 38.6725 7.304C38.4485 6.89867 38.1445 6.58933 37.7605 6.376C37.3872 6.16267 36.9605 6.056 36.4805 6.056C36.0005 6.056 35.5685 6.16267 35.1845 6.376C34.8112 6.58933 34.5072 6.89867 34.2725 7.304C34.0485 7.69867 33.9365 8.17333 33.9365 8.728C33.9365 9.272 34.0485 9.74667 34.2725 10.152C34.5072 10.5573 34.8112 10.8667 35.1845 11.08C35.5685 11.2933 36.0005 11.4 36.4805 11.4ZM39.0725 13V10.984L39.1525 8.712L38.9925 6.44V1.128H40.9765V13H39.0725ZM43.6089 13V4.456H45.6089V13H43.6089ZM44.6169 3.048C44.2435 3.048 43.9342 2.93067 43.6889 2.696C43.4542 2.46133 43.3369 2.17867 43.3369 1.848C43.3369 1.50667 43.4542 1.224 43.6889 0.999999C43.9342 0.765333 44.2435 0.648 44.6169 0.648C44.9902 0.648 45.2942 0.76 45.5289 0.983999C45.7742 1.19733 45.8969 1.46933 45.8969 1.8C45.8969 2.152 45.7795 2.45067 45.5449 2.696C45.3102 2.93067 45.0009 3.048 44.6169 3.048ZM53.0819 4.36C53.7645 4.36 54.3725 4.49333 54.9059 4.76C55.4499 5.02667 55.8765 5.43733 56.1859 5.992C56.4952 6.536 56.6499 7.24 56.6499 8.104V13H54.6499V8.36C54.6499 7.60267 54.4685 7.03733 54.1059 6.664C53.7539 6.29067 53.2579 6.104 52.6179 6.104C52.1485 6.104 51.7325 6.2 51.3699 6.392C51.0072 6.584 50.7245 6.872 50.5219 7.256C50.3299 7.62933 50.2339 8.104 50.2339 8.68V13H48.2339V4.456H50.1379V6.76L49.8019 6.056C50.1005 5.512 50.5325 5.096 51.0979 4.808C51.6739 4.50933 52.3352 4.36 53.0819 4.36ZM63.0746 16.216C62.2853 16.216 61.512 16.1093 60.7546 15.896C60.008 15.6933 59.3946 15.3947 58.9146 15L59.8106 13.496C60.184 13.8053 60.6533 14.0507 61.2186 14.232C61.7946 14.424 62.376 14.52 62.9626 14.52C63.9013 14.52 64.5893 14.3013 65.0266 13.864C65.464 13.4373 65.6826 12.792 65.6826 11.928V10.408L65.8426 8.472L65.7786 6.536V4.456H67.6826V11.704C67.6826 13.2507 67.288 14.3867 66.4986 15.112C65.7093 15.848 64.568 16.216 63.0746 16.216ZM62.8186 12.616C62.008 12.616 61.272 12.4453 60.6106 12.104C59.96 11.752 59.4426 11.2667 59.0586 10.648C58.6853 10.0293 58.4986 9.304 58.4986 8.472C58.4986 7.65067 58.6853 6.93067 59.0586 6.312C59.4426 5.69333 59.96 5.21333 60.6106 4.872C61.272 4.53067 62.008 4.36 62.8186 4.36C63.544 4.36 64.1946 4.504 64.7706 4.792C65.3466 5.08 65.8053 5.528 66.1466 6.136C66.4986 6.744 66.6746 7.52267 66.6746 8.472C66.6746 9.42133 66.4986 10.2053 66.1466 10.824C65.8053 11.432 65.3466 11.8853 64.7706 12.184C64.1946 12.472 63.544 12.616 62.8186 12.616ZM63.1226 10.92C63.624 10.92 64.072 10.8187 64.4666 10.616C64.8613 10.4027 65.1653 10.1147 65.3786 9.752C65.6026 9.37867 65.7146 8.952 65.7146 8.472C65.7146 7.992 65.6026 7.57067 65.3786 7.208C65.1653 6.83467 64.8613 6.552 64.4666 6.36C64.072 6.15733 63.624 6.056 63.1226 6.056C62.6213 6.056 62.168 6.15733 61.7626 6.36C61.368 6.552 61.0586 6.83467 60.8346 7.208C60.6213 7.57067 60.5146 7.992 60.5146 8.472C60.5146 8.952 60.6213 9.37867 60.8346 9.752C61.0586 10.1147 61.368 10.4027 61.7626 10.616C62.168 10.8187 62.6213 10.92 63.1226 10.92ZM74.9259 13V1.8H80.1739C81.5179 1.8 82.5419 2.06667 83.2459 2.6C83.9499 3.12267 84.3019 3.82667 84.3019 4.712C84.3019 5.30933 84.1632 5.82133 83.8859 6.248C83.6085 6.664 83.2352 6.98933 82.7659 7.224C82.3072 7.448 81.8059 7.56 81.2619 7.56L81.5499 6.984C82.1792 6.984 82.7445 7.10133 83.2459 7.336C83.7472 7.56 84.1419 7.89067 84.4299 8.328C84.7285 8.76533 84.8779 9.30933 84.8779 9.96C84.8779 10.92 84.5099 11.6667 83.7739 12.2C83.0379 12.7333 81.9445 13 80.4939 13H74.9259ZM77.0059 11.368H80.3659C81.1445 11.368 81.7419 11.24 82.1579 10.984C82.5739 10.728 82.7819 10.3173 82.7819 9.752C82.7819 9.19733 82.5739 8.792 82.1579 8.536C81.7419 8.26933 81.1445 8.136 80.3659 8.136H76.8459V6.52H79.9499C80.6752 6.52 81.2299 6.392 81.6139 6.136C82.0085 5.88 82.2059 5.496 82.2059 4.984C82.2059 4.46133 82.0085 4.072 81.6139 3.816C81.2299 3.56 80.6752 3.432 79.9499 3.432H77.0059V11.368ZM86.9058 13V1.128H88.9058V13H86.9058ZM95.3708 13.112C94.4961 13.112 93.7174 12.9253 93.0348 12.552C92.3521 12.168 91.8134 11.6453 91.4188 10.984C91.0241 10.3227 90.8268 9.57067 90.8268 8.728C90.8268 7.87467 91.0241 7.12267 91.4188 6.472C91.8134 5.81067 92.3521 5.29333 93.0348 4.92C93.7174 4.54667 94.4961 4.36 95.3708 4.36C96.2561 4.36 97.0401 4.54667 97.7228 4.92C98.4161 5.29333 98.9548 5.80533 99.3388 6.456C99.7334 7.10667 99.9308 7.864 99.9308 8.728C99.9308 9.57067 99.7334 10.3227 99.3388 10.984C98.9548 11.6453 98.4161 12.168 97.7228 12.552C97.0401 12.9253 96.2561 13.112 95.3708 13.112ZM95.3708 11.4C95.8614 11.4 96.2988 11.2933 96.6828 11.08C97.0668 10.8667 97.3654 10.5573 97.5788 10.152C97.8028 9.74667 97.9148 9.272 97.9148 8.728C97.9148 8.17333 97.8028 7.69867 97.5788 7.304C97.3654 6.89867 97.0668 6.58933 96.6828 6.376C96.2988 6.16267 95.8668 6.056 95.3868 6.056C94.8961 6.056 94.4588 6.16267 94.0748 6.376C93.7014 6.58933 93.4028 6.89867 93.1788 7.304C92.9548 7.69867 92.8428 8.17333 92.8428 8.728C92.8428 9.272 92.9548 9.74667 93.1788 10.152C93.4028 10.5573 93.7014 10.8667 94.0748 11.08C94.4588 11.2933 94.8908 11.4 95.3708 11.4ZM105.763 13.112C104.867 13.112 104.067 12.9253 103.363 12.552C102.67 12.168 102.126 11.6453 101.731 10.984C101.337 10.3227 101.139 9.57067 101.139 8.728C101.139 7.87467 101.337 7.12267 101.731 6.472C102.126 5.81067 102.67 5.29333 103.363 4.92C104.067 4.54667 104.867 4.36 105.763 4.36C106.595 4.36 107.326 4.53067 107.955 4.872C108.595 5.20267 109.081 5.69333 109.411 6.344L107.875 7.24C107.619 6.83467 107.305 6.536 106.931 6.344C106.569 6.152 106.174 6.056 105.747 6.056C105.257 6.056 104.814 6.16267 104.419 6.376C104.025 6.58933 103.715 6.89867 103.491 7.304C103.267 7.69867 103.155 8.17333 103.155 8.728C103.155 9.28267 103.267 9.76267 103.491 10.168C103.715 10.5627 104.025 10.8667 104.419 11.08C104.814 11.2933 105.257 11.4 105.747 11.4C106.174 11.4 106.569 11.304 106.931 11.112C107.305 10.92 107.619 10.6213 107.875 10.216L109.411 11.112C109.081 11.752 108.595 12.248 107.955 12.6C107.326 12.9413 106.595 13.112 105.763 13.112ZM112.694 11.096L112.742 8.584L117.206 4.456H119.606L115.814 8.264L114.758 9.144L112.694 11.096ZM111.062 13V1.128H113.062V13H111.062ZM117.51 13L114.39 9.144L115.654 7.544L119.942 13H117.51ZM123.608 13.112C122.894 13.112 122.206 13.0213 121.544 12.84C120.894 12.648 120.376 12.4187 119.992 12.152L120.76 10.632C121.144 10.8773 121.603 11.08 122.136 11.24C122.67 11.4 123.203 11.48 123.736 11.48C124.366 11.48 124.819 11.3947 125.096 11.224C125.384 11.0533 125.528 10.824 125.528 10.536C125.528 10.3013 125.432 10.1253 125.24 10.008C125.048 9.88 124.798 9.784 124.488 9.72C124.179 9.656 123.832 9.59733 123.448 9.544C123.075 9.49067 122.696 9.42133 122.312 9.336C121.939 9.24 121.598 9.10667 121.288 8.936C120.979 8.75467 120.728 8.51467 120.536 8.216C120.344 7.91733 120.248 7.52267 120.248 7.032C120.248 6.488 120.403 6.01867 120.712 5.624C121.022 5.21867 121.454 4.90933 122.008 4.696C122.574 4.472 123.24 4.36 124.008 4.36C124.584 4.36 125.166 4.424 125.752 4.552C126.339 4.68 126.824 4.86133 127.208 5.096L126.44 6.616C126.035 6.37067 125.624 6.20533 125.208 6.12C124.803 6.024 124.398 5.976 123.992 5.976C123.384 5.976 122.931 6.06667 122.632 6.248C122.344 6.42933 122.2 6.65867 122.2 6.936C122.2 7.192 122.296 7.384 122.488 7.512C122.68 7.64 122.931 7.74133 123.24 7.816C123.55 7.89067 123.891 7.95467 124.264 8.008C124.648 8.05067 125.027 8.12 125.4 8.216C125.774 8.312 126.115 8.44533 126.424 8.616C126.744 8.776 127 9.00533 127.192 9.304C127.384 9.60267 127.48 9.992 127.48 10.472C127.48 11.0053 127.32 11.4693 127 11.864C126.691 12.2587 126.248 12.568 125.672 12.792C125.096 13.0053 124.408 13.112 123.608 13.112Z" fill="white"/>
</svg>
