<svg width="342" height="257" viewBox="0 0 342 257" fill="none" xmlns="http://www.w3.org/2000/svg">
<path d="M90.6224 56.9443L0.617188 56.6367L0.443007 189.139L90.4483 189.447L90.6224 56.9443Z" fill="#F5F5F5"/>
<path d="M81.1354 147.868L80.2881 153.118L43.0742 147.761L43.9215 142.512L81.1354 147.868Z" fill="#E0E0E0"/>
<path d="M62.3931 129.141L67.7303 129.907L61.8127 166.495L56.4688 165.722L62.3931 129.141Z" fill="#E0E0E0"/>
<path d="M53.6362 79.8092C53.6396 79.8998 44.567 79.954 33.3809 79.9111C22.1948 79.8682 13.1208 79.769 13.1211 79.6728C13.1214 79.5767 22.1903 79.528 33.3801 79.5654C44.5699 79.6027 53.6088 79.6944 53.6362 79.8092Z" fill="#E0E0E0"/>
<path d="M80.3048 89.4337C80.3045 89.5298 65.2551 89.5533 46.6924 89.4933C28.1296 89.4333 13.0622 89.2921 13.0699 89.209C13.0775 89.1258 28.1122 89.0763 46.6916 89.1475C65.2709 89.2187 80.3051 89.3375 80.3048 89.4337Z" fill="#E0E0E0"/>
<path d="M80.3048 128.16C80.3045 128.256 65.2551 128.28 46.6924 128.22C28.1296 128.16 13.0622 128.019 13.0699 127.936C13.0775 127.852 28.1122 127.803 46.6916 127.874C65.2709 127.945 80.3051 128.064 80.3048 128.16Z" fill="#E0E0E0"/>
<path d="M80.2931 99.3477C80.2928 99.4439 65.2397 99.4729 46.6769 99.4129C28.1142 99.3529 13.0468 99.2117 13.0581 99.123C13.0695 99.0343 28.1078 99.0034 46.6798 99.0616C65.2518 99.1198 80.2934 99.2516 80.2931 99.3477Z" fill="#E0E0E0"/>
<path d="M80.2931 138.074C80.2928 138.17 65.2397 138.199 46.6769 138.139C28.1142 138.079 13.0468 137.938 13.0581 137.85C13.0695 137.761 28.1078 137.73 46.6798 137.788C65.2518 137.846 80.2934 137.978 80.2931 138.074Z" fill="#E0E0E0"/>
<path d="M80.2754 109.267C80.2751 109.363 65.222 109.392 46.663 109.326C28.1039 109.261 13.0291 109.131 13.0737 109.064C13.1183 108.998 28.1215 108.935 46.6898 108.999C65.2581 109.063 80.2757 109.171 80.2754 109.267Z" fill="#E0E0E0"/>
<path d="M80.2754 147.993C80.2751 148.089 65.222 148.118 46.663 148.053C28.1039 147.987 13.0291 147.857 13.0737 147.791C13.1183 147.725 28.1215 147.662 46.6898 147.726C65.2581 147.79 80.2757 147.897 80.2754 147.993Z" fill="#E0E0E0"/>
<path d="M80.2407 119.172C80.2404 119.268 65.191 119.292 46.6282 119.232C28.0654 119.172 12.998 119.031 13.0149 118.946C13.0318 118.861 28.0757 118.833 46.6551 118.905C65.2345 118.976 80.2852 119.106 80.2407 119.172Z" fill="#E0E0E0"/>
<path d="M80.2407 157.903C80.2404 157.999 65.191 158.022 46.6282 157.962C28.0654 157.902 12.998 157.761 13.0149 157.676C13.0318 157.591 28.0757 157.564 46.6551 157.635C65.2345 157.706 80.2852 157.836 80.2407 157.903Z" fill="#E0E0E0"/>
<path d="M325.837 204.845L325.123 209.255L293.867 204.758L294.588 200.348L325.837 204.845Z" fill="#E0E0E0"/>
<path d="M310.098 189.117L314.581 189.763L309.611 220.489L305.121 219.843L310.098 189.117Z" fill="#E0E0E0"/>
<path d="M281.312 150.096C281.365 150.176 275.074 154.473 267.255 159.689C259.436 164.906 253.058 169.076 253.004 169.016C252.951 168.956 259.249 164.646 267.061 159.423C274.874 154.2 281.258 149.983 281.312 150.096Z" fill="#E0E0E0"/>
<path d="M304.428 144.266C304.481 144.346 294.014 151.435 281.077 160.089C268.141 168.743 257.554 175.712 257.5 175.632C257.447 175.552 267.914 168.463 280.851 159.802C293.787 151.142 304.354 144.186 304.428 144.266Z" fill="#E0E0E0"/>
<path d="M309.065 151.18C309.118 151.26 298.65 158.349 285.714 167.009C272.778 175.67 262.19 182.626 262.137 182.546C262.084 182.466 272.518 175.41 285.487 166.75C298.457 158.089 309.025 151.107 309.065 151.18Z" fill="#E0E0E0"/>
<path d="M313.694 158.09C313.747 158.17 303.273 165.259 290.343 173.92C277.414 182.58 266.819 189.536 266.766 189.456C266.712 189.376 277.18 182.294 290.116 173.626C303.052 164.959 313.647 158.024 313.694 158.09Z" fill="#E0E0E0"/>
<path d="M318.362 165.024C318.415 165.104 307.947 172.186 295.011 180.847C282.075 189.507 271.487 196.463 271.434 196.389C271.38 196.316 281.848 189.221 294.784 180.56C307.72 171.899 318.275 164.944 318.362 165.024Z" fill="#E0E0E0"/>
<path d="M196.926 47.0749L128.34 10.4219L74.3425 111.297L142.929 147.95L196.926 47.0749Z" fill="#F5F5F5"/>
<path d="M131.175 116.366L126.825 117.852L115.777 87.3595L120.134 85.8672L131.175 116.366Z" fill="#E0E0E0"/>
<path d="M137.848 94.4844L139.436 98.8614L109.107 109.234L107.52 104.857L137.848 94.4844Z" fill="#E0E0E0"/>
<path d="M159.395 49.4986C159.341 49.5986 152.39 45.9877 143.857 41.4374C135.324 36.8872 128.459 33.1098 128.512 33.0098C128.565 32.9099 135.524 36.5208 144.057 41.071C152.59 45.6213 159.448 49.392 159.395 49.4986Z" fill="#E0E0E0"/>
<path d="M175.859 67.6349C175.805 67.7348 164.29 61.6856 150.14 54.1308C135.99 46.5759 124.568 40.3668 124.621 40.2668C124.675 40.1669 136.183 46.2095 150.333 53.771C164.484 61.3325 175.912 67.535 175.859 67.6349Z" fill="#E0E0E0"/>
<path d="M171.816 75.1857C171.762 75.2856 160.247 69.2431 146.097 61.6815C131.947 54.12 120.525 47.9176 120.578 47.8176C120.632 47.7177 132.14 53.7669 146.29 61.3218C160.441 68.8766 171.869 75.0857 171.816 75.1857Z" fill="#E0E0E0"/>
<path d="M167.773 82.7342C167.719 82.8342 156.204 76.7916 142.054 69.2367C127.904 61.6819 116.482 55.4928 116.535 55.3728C116.589 55.2529 128.097 61.3155 142.247 68.8703C156.398 76.4252 167.826 82.6343 167.773 82.7342Z" fill="#E0E0E0"/>
<path d="M163.73 90.2806C163.677 90.3805 152.161 84.338 138.011 76.7831C123.861 69.2282 112.432 63.0191 112.492 62.9192C112.552 62.8193 124.054 68.8618 138.205 76.4167C152.355 83.9715 163.783 90.1807 163.73 90.2806Z" fill="#E0E0E0"/>
<path d="M341.935 254.458C341.935 254.638 266.958 254.792 174.485 254.792C82.0123 254.792 7.02344 254.676 7.02344 254.458C7.02344 254.24 81.9891 254.125 174.485 254.125C266.981 254.125 341.935 254.266 341.935 254.458Z" fill="#263238"/>
<path d="M279.905 31.8271C277.944 32.2735 276.99 34.532 276.803 36.5306C276.616 38.5292 276.87 40.6478 276.029 42.4732C275.082 44.5252 272.82 46.0441 272.747 48.3026C272.7 49.6817 273.521 50.9674 273.481 52.3598C273.414 54.625 271.106 56.3571 270.979 58.5956C270.892 60.2278 271.98 61.7868 271.719 63.399C271.519 64.6515 270.539 65.6375 270.125 66.8367C269.304 69.235 270.952 71.8666 273.094 73.2123C274.293 73.9656 275.643 74.4481 277.049 74.6263C278.455 74.8044 279.883 74.6738 281.233 74.2437C282.583 73.8135 283.823 73.0941 284.866 72.1358C285.909 71.1775 286.73 70.0033 287.271 68.6954C288.458 65.8174 288.198 62.5729 287.938 59.475C287.137 49.8105 286.541 40.1326 286.15 30.4414" fill="#263238"/>
<path d="M274.211 65.9265C274.615 65.676 274.93 65.3056 275.112 64.8672C275.304 64.3458 275.381 63.789 275.338 63.235C275.265 62.5004 275.102 61.7777 274.851 61.0831C274.532 60.2101 274.414 59.2766 274.504 58.3516C274.671 57.3123 275.418 56.4596 276.092 55.6202C276.455 55.2093 276.758 54.7496 276.993 54.2544C277.228 53.7537 277.266 53.183 277.1 52.6555C276.753 51.5696 275.685 50.7701 275.198 49.511C274.969 48.8876 274.932 48.2102 275.092 47.5656C275.243 46.9613 275.467 46.3774 275.759 45.8268C276.322 44.8352 276.77 43.7823 277.093 42.6889C277.56 40.577 277.34 38.5584 277.66 36.8995C277.838 35.5709 278.428 34.3314 279.348 33.3553C279.608 33.0924 279.905 32.868 280.229 32.6891C280.34 32.631 280.459 32.5884 280.582 32.5625C280.164 32.7924 279.78 33.0794 279.441 33.4153C278.589 34.4011 278.052 35.6194 277.9 36.9129C277.783 37.7965 277.721 38.6865 277.714 39.5777C277.711 40.6266 277.609 41.6729 277.407 42.7023C277.088 43.8208 276.64 44.8984 276.072 45.9134C275.572 46.9594 275.112 48.1852 275.552 49.3311C275.992 50.477 277.053 51.2698 277.46 52.4956C277.644 53.1012 277.599 53.7531 277.333 54.3277C277.073 54.8726 276.736 55.3775 276.332 55.8267C275.665 56.6661 274.938 57.4656 274.778 58.3983C274.685 59.2829 274.789 60.1773 275.085 61.0165C275.323 61.7326 275.471 62.4756 275.525 63.2283C275.558 63.808 275.455 64.3874 275.225 64.9205C275.082 65.2547 274.851 65.5445 274.558 65.7599C274.453 65.8362 274.336 65.8927 274.211 65.9265Z" fill="#455A64"/>
<path d="M268.993 81.7227L262.989 99.0442L237.877 100.377L233.688 109.704L259.907 112.368C261.145 112.876 262.474 113.128 263.813 113.109C265.152 113.089 266.473 112.799 267.697 112.255C268.92 111.712 270.021 110.926 270.932 109.946C271.842 108.966 272.545 107.811 272.996 106.552L279.995 87.0457L268.993 81.7227Z" fill="#B78876"/>
<path d="M320.903 245.165C320.903 245.165 302.503 186.791 302.109 184.899C301.756 183.18 308.781 141.175 309.675 130.27L284.81 131.196V131.442L274.242 132.028L283.702 251.361H295.144L294.01 211.754C301.069 230.668 311.183 249.948 311.183 249.948L320.903 245.165Z" fill="#B78876"/>
<path d="M294.48 225.965C294.48 225.605 294.34 212.694 294.34 212.694C294.199 213.467 289.956 201.488 290.056 200.762C290.11 200.382 294.48 225.965 294.48 225.965Z" fill="#A36957"/>
<path d="M289.574 195.086C289.515 195.323 289.49 195.568 289.5 195.812C289.463 196.478 289.463 197.145 289.5 197.811C289.5 198.23 289.56 198.684 289.614 199.177C289.667 199.669 289.741 200.189 289.854 200.729C290.091 201.907 290.405 203.069 290.795 204.206C291.622 206.625 292.543 208.737 293.19 210.269C293.497 210.935 293.763 211.568 293.99 212.074C294.072 212.31 294.184 212.534 294.324 212.741C294.288 212.51 294.221 212.286 294.124 212.074C293.97 211.635 293.737 211.002 293.457 210.222C292.869 208.663 291.989 206.531 291.168 204.14C290.78 203.019 290.461 201.875 290.214 200.715C290.094 200.182 290.014 199.669 289.941 199.19C289.867 198.71 289.814 198.257 289.781 197.857C289.7 197.031 289.667 196.365 289.647 195.899C289.66 195.626 289.635 195.352 289.574 195.086Z" fill="#A36957"/>
<path d="M283.491 251.968V250.896L295.213 250.383L295.246 254.813L294.526 254.86C291.303 255.046 278.147 255.593 275.999 254.946C273.59 254.227 283.491 251.968 283.491 251.968Z" fill="#455A64"/>
<path d="M295.401 254.543C295.334 254.547 295.268 254.547 295.201 254.543L294.627 254.583L292.506 254.677C290.718 254.75 288.243 254.817 285.514 254.83C282.785 254.844 280.303 254.797 278.509 254.743L276.394 254.657H275.813H275.613C275.68 254.651 275.747 254.651 275.813 254.657H276.394L278.515 254.697C280.303 254.697 282.779 254.75 285.507 254.737C288.236 254.723 290.718 254.677 292.506 254.63L294.627 254.576H295.401V254.543Z" fill="#263238"/>
<path d="M279.667 254.918C279.57 254.569 279.435 254.232 279.267 253.912C279.055 253.616 278.811 253.346 278.539 253.105C278.903 253.235 279.206 253.497 279.387 253.838C279.607 254.153 279.707 254.536 279.667 254.918Z" fill="#263238"/>
<path d="M283.124 253.167C283.124 253.167 282.93 252.987 282.757 252.721C282.583 252.454 282.477 252.221 282.51 252.201C282.543 252.181 282.704 252.374 282.877 252.641C283.051 252.907 283.157 253.147 283.124 253.167Z" fill="#263238"/>
<path d="M284.069 252.693C284.069 252.727 283.856 252.6 283.656 252.42C283.455 252.24 283.308 252.073 283.335 252.047C283.362 252.02 283.549 252.14 283.749 252.32C283.949 252.5 284.096 252.633 284.069 252.693Z" fill="#263238"/>
<path d="M284.663 251.561C284.467 251.633 284.257 251.66 284.049 251.641C283.844 251.668 283.636 251.647 283.441 251.581C283.635 251.509 283.843 251.482 284.049 251.501C284.255 251.472 284.466 251.493 284.663 251.561Z" fill="#263238"/>
<path d="M284.866 250.786C284.667 250.915 284.436 250.984 284.199 250.986C283.972 251.016 283.741 250.984 283.531 250.893C283.752 250.855 283.975 250.837 284.199 250.839C284.419 250.8 284.642 250.782 284.866 250.786Z" fill="#263238"/>
<path d="M282.729 252.149C282.48 252.196 282.224 252.196 281.975 252.149C281.706 252.116 281.44 252.058 281.181 251.976C281.021 251.931 280.867 251.869 280.721 251.789C280.632 251.737 280.566 251.654 280.534 251.556C280.522 251.5 280.526 251.442 280.546 251.389C280.566 251.336 280.602 251.289 280.648 251.256C280.832 251.166 281.035 251.119 281.24 251.117C281.445 251.115 281.648 251.159 281.835 251.245C282.021 251.331 282.186 251.458 282.318 251.615C282.449 251.773 282.544 251.957 282.596 252.156C282.609 252.222 282.609 252.29 282.596 252.356C282.52 252.115 282.403 251.889 282.249 251.689C282.071 251.489 281.84 251.346 281.582 251.276C281.286 251.18 280.966 251.204 280.688 251.342C280.574 251.429 280.621 251.569 280.748 251.649C280.884 251.723 281.027 251.783 281.175 251.829C281.426 251.912 281.682 251.976 281.942 252.022C282.442 252.129 282.729 252.129 282.729 252.149Z" fill="#263238"/>
<path d="M282.538 252.188C282.441 252.033 282.407 251.846 282.445 251.668C282.469 251.472 282.54 251.284 282.651 251.121C282.714 251.01 282.804 250.916 282.912 250.848C283.021 250.781 283.145 250.742 283.272 250.734C283.348 250.752 283.414 250.797 283.457 250.862C283.501 250.926 283.518 251.004 283.506 251.081C283.489 251.2 283.446 251.314 283.379 251.414C283.278 251.58 283.159 251.734 283.025 251.874C282.909 252.007 282.763 252.11 282.598 252.174C282.598 252.174 282.745 252.041 282.952 251.801C283.072 251.664 283.177 251.514 283.265 251.354C283.366 251.194 283.439 250.908 283.265 250.874C283.092 250.841 282.892 251.048 282.778 251.194C282.672 251.339 282.599 251.505 282.565 251.681C282.538 251.848 282.529 252.018 282.538 252.188Z" fill="#263238"/>
<path d="M295.154 251.361C295.154 251.361 294.821 251.361 294.294 251.394C293.607 251.477 292.958 251.749 292.419 252.181C291.88 252.614 291.473 253.188 291.245 253.839C291.071 254.339 291.058 254.679 291.031 254.672C291.005 254.666 291.031 254.586 291.031 254.439C291.048 254.224 291.089 254.012 291.151 253.806C291.364 253.124 291.772 252.52 292.326 252.067C292.886 251.623 293.567 251.357 294.28 251.301C294.502 251.275 294.726 251.275 294.948 251.301C295.019 251.312 295.088 251.332 295.154 251.361Z" fill="#263238"/>
<path d="M289.542 253.611C288.982 253.742 288.408 253.798 287.834 253.778C287.263 253.807 286.691 253.758 286.133 253.631C286.133 253.591 286.893 253.631 287.834 253.631C288.775 253.631 289.535 253.571 289.542 253.611Z" fill="#263238"/>
<path d="M291.827 253.592C291.827 253.592 291.766 253.752 291.686 253.926C291.606 254.099 291.566 254.259 291.526 254.252C291.486 254.246 291.466 254.072 291.559 253.866C291.653 253.659 291.8 253.559 291.827 253.592Z" fill="#263238"/>
<path d="M292.687 252.52C292.687 252.52 292.64 252.666 292.52 252.786C292.4 252.906 292.279 252.986 292.246 252.96C292.212 252.933 292.293 252.813 292.413 252.686C292.533 252.56 292.654 252.486 292.687 252.52Z" fill="#263238"/>
<path d="M293.909 252.027C293.909 252.067 293.749 252.067 293.575 252.127C293.402 252.187 293.282 252.28 293.248 252.254C293.215 252.227 293.315 252.067 293.529 251.994C293.742 251.92 293.923 251.987 293.909 252.027Z" fill="#263238"/>
<path d="M294.787 251.787C294.787 251.827 294.74 251.887 294.64 251.92C294.539 251.954 294.453 251.96 294.439 251.92C294.426 251.88 294.493 251.82 294.586 251.787C294.68 251.753 294.773 251.753 294.787 251.787Z" fill="#263238"/>
<path d="M310.949 250.931L310.509 249.952L320.99 244.695L322.838 248.693L322.171 249.032C319.309 250.518 307.534 256.394 305.305 256.687C302.843 257.04 310.949 250.931 310.949 250.931Z" fill="#455A64"/>
<path d="M322.879 248.406L322.706 248.513L322.192 248.779L320.297 249.739C318.696 250.531 316.468 251.604 313.979 252.737C311.491 253.869 309.209 254.835 307.555 255.521L305.587 256.314L305.053 256.521C304.991 256.549 304.926 256.569 304.859 256.581L305.04 256.494L305.567 256.261L307.515 255.428C309.163 254.722 311.431 253.736 313.919 252.603C316.408 251.471 318.643 250.418 320.257 249.645L322.165 248.733L322.692 248.486L322.879 248.406Z" fill="#263238"/>
<path d="M308.701 255.184C308.47 254.903 308.208 254.648 307.92 254.425C307.607 254.239 307.273 254.092 306.926 253.985C307.309 253.979 307.685 254.092 308.002 254.306C308.319 254.521 308.563 254.827 308.701 255.184Z" fill="#263238"/>
<path d="M311.111 252.171C311.111 252.171 310.857 252.091 310.59 251.918C310.323 251.745 310.13 251.578 310.15 251.545C310.17 251.512 310.403 251.625 310.67 251.798C310.937 251.972 311.131 252.138 311.111 252.171Z" fill="#263238"/>
<path d="M311.767 251.359C311.767 251.392 311.54 251.359 311.279 251.279C311.019 251.199 310.826 251.099 310.832 251.059C311.001 251.043 311.171 251.071 311.326 251.139C311.58 251.199 311.78 251.292 311.767 251.359Z" fill="#263238"/>
<path d="M311.858 250.078C311.858 250.118 311.638 250.258 311.331 250.405C311.154 250.511 310.955 250.577 310.75 250.598C310.75 250.558 310.97 250.418 311.271 250.271C311.45 250.166 311.65 250.1 311.858 250.078Z" fill="#263238"/>
<path d="M311.724 249.293C311.724 249.293 311.53 249.56 311.183 249.753C310.986 249.886 310.753 249.956 310.516 249.953C310.707 249.824 310.91 249.715 311.123 249.626C311.45 249.446 311.69 249.26 311.724 249.293Z" fill="#263238"/>
<path d="M310.354 251.413C310.151 251.552 309.925 251.656 309.687 251.719C309.425 251.796 309.157 251.851 308.886 251.886C308.722 251.906 308.556 251.906 308.392 251.886C308.289 251.878 308.194 251.83 308.126 251.753C308.095 251.705 308.078 251.649 308.078 251.593C308.078 251.536 308.095 251.48 308.126 251.433C308.328 251.187 308.61 251.02 308.923 250.959C309.236 250.898 309.56 250.948 309.84 251.099C310.006 251.186 310.151 251.306 310.267 251.453C310.347 251.559 310.381 251.626 310.374 251.633C310.21 251.449 310.013 251.298 309.793 251.186C309.559 251.076 309.297 251.036 309.04 251.073C308.887 251.089 308.739 251.134 308.603 251.208C308.468 251.281 308.349 251.38 308.252 251.499C308.179 251.626 308.252 251.733 308.433 251.753C308.586 251.766 308.74 251.766 308.893 251.753C309.158 251.726 309.422 251.679 309.68 251.613C310.06 251.506 310.354 251.393 310.354 251.413Z" fill="#263238"/>
<path d="M310.171 251.526C310.022 251.42 309.918 251.264 309.877 251.086C309.819 250.899 309.805 250.7 309.837 250.506C309.849 250.379 309.893 250.256 309.965 250.15C310.038 250.043 310.136 249.958 310.251 249.9C310.418 249.847 310.805 250.187 310.832 250.313C310.859 250.44 310.638 250.373 310.625 250.48C310.603 250.669 310.559 250.855 310.491 251.033C310.443 251.204 310.351 251.36 310.224 251.486C310.224 251.486 310.305 251.306 310.398 251.006C310.446 250.829 310.479 250.649 310.498 250.466C310.498 250.28 310.498 249.993 310.285 250.04C310.071 250.087 310.011 250.347 309.964 250.533C309.924 250.706 309.924 250.886 309.964 251.059C310.019 251.221 310.089 251.377 310.171 251.526Z" fill="#263238"/>
<path d="M321.344 245.602C321.344 245.602 321.024 245.715 320.57 245.988C319.977 246.342 319.494 246.854 319.176 247.467C318.867 248.085 318.736 248.777 318.796 249.466C318.836 249.999 318.962 250.305 318.936 250.318C318.893 250.252 318.859 250.181 318.836 250.105C318.77 249.901 318.723 249.692 318.696 249.479C318.6 248.769 318.723 248.048 319.048 247.41C319.374 246.772 319.886 246.248 320.517 245.908C320.706 245.804 320.905 245.719 321.111 245.655C321.185 245.626 321.264 245.608 321.344 245.602Z" fill="#263238"/>
<path d="M317.149 249.963C316.208 250.616 315.158 251.095 314.047 251.376C314.047 251.336 314.747 251.069 315.601 250.709C316.455 250.349 317.129 249.929 317.149 249.963Z" fill="#263238"/>
<path d="M319.223 249.006C319.257 249.006 319.223 249.172 319.223 249.366C319.223 249.559 319.223 249.719 319.223 249.732C319.223 249.746 319.09 249.586 319.09 249.366C319.09 249.146 319.19 248.986 319.223 249.006Z" fill="#263238"/>
<path d="M319.564 247.677C319.597 247.677 319.564 247.83 319.523 247.99C319.483 248.15 319.383 248.27 319.35 248.257C319.316 248.243 319.35 248.103 319.39 247.943C319.43 247.783 319.523 247.663 319.564 247.677Z" fill="#263238"/>
<path d="M320.484 246.698C320.484 246.738 320.35 246.798 320.217 246.925C320.084 247.052 320.01 247.185 319.977 247.172C319.943 247.158 319.977 246.972 320.124 246.818C320.27 246.665 320.477 246.698 320.484 246.698Z" fill="#263238"/>
<path d="M321.185 246.149C321.185 246.149 321.185 246.256 321.105 246.33C321.025 246.403 320.951 246.444 320.924 246.417C320.897 246.39 320.924 246.31 321.005 246.236C321.085 246.162 321.159 246.122 321.185 246.149Z" fill="#263238"/>
<path d="M308.06 110.551L306.559 91.002H316.119V86.9471C316.119 86.9471 316.58 83.4362 315.105 75.7481C314.198 71.0313 311.056 68.1399 307.526 66.4211V66.3545L307.219 66.2745C304.314 64.972 301.211 64.1637 298.039 63.8828L285.73 64.0227C285.73 64.0227 276.33 62.8235 271.146 69.5456C269.145 72.1239 262.934 89.7719 262.934 89.7719L277.711 96.8737L276.33 87.087C276.33 87.087 276.61 94.1822 277.518 96.414C278.018 97.6665 279.519 101.557 279.519 101.557L279.326 113.296L308.06 110.551Z" fill="#BBD0FF"/>
<path d="M316.682 91.0831C315.929 90.9444 315.166 90.8686 314.4 90.8564C312.986 90.7764 311.064 90.7031 308.876 90.7164C306.688 90.7298 304.76 90.8231 303.345 90.9297C302.58 90.9563 301.819 91.05 301.07 91.2097C301.834 91.2705 302.602 91.2705 303.365 91.2097C304.773 91.163 306.701 91.1097 308.876 91.1031C311.051 91.0964 312.979 91.1031 314.393 91.1364C315.156 91.1791 315.922 91.1613 316.682 91.0831Z" fill="#263238"/>
<path d="M300.528 77.9922C300.446 78.6551 300.428 79.3245 300.475 79.9908C300.475 81.21 300.528 82.8889 300.601 84.7476C300.675 86.6063 300.762 88.2918 300.842 89.5044C300.845 90.1761 300.916 90.8457 301.055 91.503C301.137 90.84 301.155 90.1707 301.109 89.5044C301.109 88.2852 301.055 86.5997 300.982 84.7409C300.908 82.8822 300.822 81.2033 300.742 79.9842C300.739 79.3146 300.667 78.6472 300.528 77.9922Z" fill="#263238"/>
<g opacity="0.3">
<path d="M284.852 84.7188C284.852 84.7188 288.681 113.079 299.449 112.327C299.449 112.327 304.299 112.273 305.854 109.056V107.79L284.852 84.7188Z" fill="#6997FD"/>
</g>
<g opacity="0.3">
<path d="M300.53 79.6602L298.469 93.564L299.803 96.0024L302.005 91.2323L301.071 91.2056L300.53 79.6602Z" fill="#6997FD"/>
</g>
<path d="M279.461 101.569C279.334 101.361 279.235 101.137 279.168 100.902C279.001 100.469 278.781 99.8365 278.501 99.0437C277.833 96.978 277.282 94.876 276.853 92.748C276.425 90.6188 276.153 88.4611 276.039 86.2924C275.999 85.4596 275.986 84.7867 275.999 84.2937C275.982 84.0529 275.997 83.8108 276.046 83.5742C276.099 83.5742 276.139 84.6002 276.279 86.2391C276.467 88.3882 276.772 90.5255 277.193 92.6414C277.687 95.1197 278.281 97.3382 278.734 98.9304C278.948 99.6699 279.128 100.303 279.275 100.822C279.366 101.063 279.429 101.313 279.461 101.569Z" fill="#263238"/>
<path d="M283.809 109.716C283.716 109.716 283.449 109.136 283.215 108.384C283.014 107.922 282.925 107.42 282.955 106.918C283.249 107.325 283.452 107.791 283.549 108.284C283.74 108.736 283.829 109.225 283.809 109.716Z" fill="#263238"/>
<path d="M285.298 109.61C284.792 108.274 284.771 106.804 285.237 105.453C285.29 106.145 285.29 106.84 285.237 107.532C285.31 108.222 285.33 108.917 285.298 109.61Z" fill="#263238"/>
<path d="M278.013 97.1969C277.967 97.2769 274.531 95.6513 270.334 93.5594C266.138 91.4675 262.769 89.6954 262.809 89.6088C262.849 89.5222 266.292 91.1544 270.488 93.2463C274.684 95.3382 278.053 97.1103 278.013 97.1969Z" fill="#263238"/>
<path d="M284.072 66.3182C284.145 62.9472 284.165 59.4029 284.165 59.4029C284.165 59.4029 279.835 58.5702 279.081 52.8807C278.361 47.4577 280.376 34.7264 280.376 34.7264C286.7 32.3413 293.272 34.5065 297.602 39.6231L296.528 66.9845C296.401 70.1623 293.565 72.5873 290.163 72.4274C286.72 72.2609 283.998 69.5294 284.072 66.3182Z" fill="#B78876"/>
<path d="M280.043 44.9019C280.037 45.0887 280.103 45.2708 280.227 45.4108C280.351 45.5508 280.524 45.6382 280.711 45.6551C280.805 45.6643 280.901 45.654 280.992 45.6251C281.082 45.5961 281.166 45.549 281.238 45.4866C281.31 45.4242 281.368 45.3479 281.409 45.2623C281.451 45.1766 281.474 45.0835 281.478 44.9885C281.484 44.8023 281.418 44.6211 281.294 44.4821C281.17 44.3432 280.997 44.2572 280.811 44.2419C280.716 44.2275 280.619 44.2338 280.526 44.2604C280.434 44.2869 280.348 44.3331 280.275 44.3958C280.202 44.4585 280.144 44.5361 280.104 44.6235C280.064 44.7108 280.043 44.8058 280.043 44.9019Z" fill="#263238"/>
<path d="M279.774 43.9467C279.861 44.04 280.441 43.6467 281.208 43.6734C281.975 43.7001 282.543 44.1 282.636 44.0067C282.729 43.9134 282.596 43.7934 282.349 43.6001C282.015 43.3583 281.614 43.2256 281.202 43.2201C280.795 43.2046 280.395 43.3216 280.061 43.5534C279.814 43.7334 279.727 43.9 279.774 43.9467Z" fill="#263238"/>
<path d="M287.989 45.394C287.981 45.5813 288.047 45.7643 288.171 45.9047C288.295 46.045 288.469 46.132 288.656 46.1473C288.752 46.1618 288.85 46.1554 288.942 46.1284C289.035 46.1015 289.121 46.0547 289.194 45.9913C289.267 45.9279 289.326 45.8494 289.365 45.7612C289.405 45.673 289.425 45.5773 289.424 45.4807C289.431 45.2941 289.366 45.1119 289.241 44.9726C289.117 44.8333 288.943 44.7478 288.756 44.7341C288.661 44.7197 288.564 44.726 288.472 44.7525C288.379 44.7791 288.294 44.8253 288.221 44.888C288.148 44.9507 288.09 45.0283 288.049 45.1157C288.009 45.203 287.989 45.298 287.989 45.394Z" fill="#263238"/>
<path d="M287.935 44.4423C288.022 44.5423 288.602 44.149 289.37 44.169C290.137 44.189 290.704 44.5956 290.804 44.5023C290.904 44.409 290.757 44.289 290.51 44.1023C290.182 43.8542 289.782 43.7186 289.37 43.7157C288.961 43.7035 288.56 43.8201 288.222 44.049C287.982 44.229 287.895 44.3957 287.935 44.4423Z" fill="#263238"/>
<path d="M284.942 50.1624C284.533 50.0218 284.107 49.9345 283.675 49.9026C283.475 49.9026 283.288 49.8293 283.261 49.6961C283.245 49.4878 283.296 49.2799 283.408 49.1031L284.035 47.6041C284.619 46.3301 285.098 45.0112 285.469 43.6602C284.786 44.8843 284.202 46.1608 283.721 47.4776C283.515 48.0039 283.308 48.5102 283.114 48.9899C282.985 49.2279 282.942 49.5035 282.994 49.7693C283.02 49.8416 283.063 49.9068 283.118 49.9599C283.174 50.0131 283.241 50.0527 283.314 50.0758C283.425 50.1078 283.539 50.1257 283.655 50.1291C284.081 50.1946 284.513 50.2058 284.942 50.1624Z" fill="#263238"/>
<path d="M284.164 59.4024C286.833 59.5091 289.48 58.8749 291.81 57.5703C291.81 57.5703 289.868 61.4144 284.204 60.7415L284.164 59.4024Z" fill="#A36957"/>
<path d="M290.444 42.1708C290.284 42.4174 289.683 42.3108 289.016 42.1708C288.349 42.0308 287.762 41.9175 287.682 41.6309C287.602 41.3442 288.302 40.9642 289.196 41.1442C290.09 41.3242 290.604 41.9575 290.444 42.1708Z" fill="#263238"/>
<path d="M282.66 41.0381C282.6 41.3247 281.96 41.4314 281.226 41.4647C280.492 41.498 279.845 41.4647 279.758 41.1714C279.671 40.8781 280.292 40.4648 281.179 40.4248C282.066 40.3848 282.72 40.7648 282.66 41.0381Z" fill="#263238"/>
<path d="M284.955 52.0362C284.871 52.0163 284.783 52.0251 284.704 52.0614C284.625 52.0977 284.561 52.1592 284.522 52.2362C284.484 52.3042 284.464 52.3809 284.465 52.4588C284.466 52.5366 284.487 52.6129 284.526 52.68C284.566 52.7472 284.622 52.8028 284.69 52.8415C284.757 52.8802 284.834 52.9006 284.912 52.9006C284.99 52.9006 285.067 52.8802 285.134 52.8415C285.202 52.8028 285.258 52.7472 285.298 52.68C285.337 52.6129 285.358 52.5366 285.359 52.4588C285.36 52.3809 285.34 52.3042 285.302 52.2362C285.255 52.1467 285.178 52.0761 285.084 52.0361C284.991 51.9961 284.886 51.9891 284.789 52.0162" fill="#A36957"/>
<path d="M285.138 52.1151C285.138 52.0818 285.011 51.8885 284.671 51.9618C284.569 51.9883 284.476 52.0411 284.401 52.1148C284.326 52.1885 284.272 52.2805 284.243 52.3817C284.208 52.5094 284.211 52.6448 284.252 52.7706C284.294 52.8965 284.372 53.0071 284.477 53.0883C284.588 53.1643 284.72 53.2049 284.854 53.2049C284.989 53.2049 285.12 53.1643 285.231 53.0883C285.32 53.0286 285.39 52.9448 285.432 52.8468C285.475 52.7487 285.488 52.6406 285.472 52.5351C285.405 52.1818 285.144 52.1284 285.131 52.1751C285.118 52.2218 285.225 52.3418 285.205 52.5484C285.2 52.5995 285.183 52.6486 285.155 52.6916C285.127 52.7346 285.089 52.7702 285.044 52.795C284.993 52.8249 284.934 52.8406 284.874 52.8406C284.814 52.8406 284.756 52.8249 284.704 52.795C284.657 52.7556 284.622 52.7048 284.601 52.6475C284.58 52.5903 284.574 52.5286 284.584 52.4684C284.592 52.4157 284.612 52.3657 284.643 52.3228C284.675 52.2798 284.716 52.2451 284.764 52.2218C284.951 52.1084 285.118 52.1618 285.138 52.1151Z" fill="#263238"/>
<path d="M295.013 46.3073C294.346 47.8663 292.692 49.0721 292.918 50.7577C293.065 51.8436 293.766 52.8562 293.632 53.9488C293.459 55.2812 292.038 56.2672 291.831 57.633C291.584 59.3052 293.219 60.6043 293.866 62.1632C294.82 64.4417 293.606 66.9999 293.572 69.4916C293.612 71.3833 294.336 73.1966 295.612 74.5956C296.888 75.9945 298.628 76.8842 300.511 77.0997C302.032 77.2263 303.746 76.7666 304.514 75.4609C305.181 74.3816 305.034 73.0092 305.421 71.8167C306.008 70.0312 307.709 68.7254 308.089 66.8867C308.757 63.5556 304.687 60.7575 304.954 57.3465C305.067 55.8875 305.968 54.6217 306.348 53.2093C306.59 52.2811 306.609 51.3089 306.403 50.3721C306.196 49.4353 305.771 48.5606 305.161 47.8197C304.153 46.6271 302.699 45.821 301.825 44.5419C300.858 43.0695 300.824 41.2108 300.491 39.472C300.043 37.3585 299.065 35.3929 297.65 33.759C296.235 32.125 294.428 30.876 292.398 30.1287C290.368 29.3814 288.182 29.1602 286.043 29.4858C283.905 29.8114 281.884 30.6731 280.169 31.9904C280.169 31.9904 279.202 36.3808 283.718 37.1203C288.235 37.8598 290.323 37.007 290.83 38.8124C290.711 39.5562 290.769 40.3176 291.001 41.0344C291.233 41.7512 291.632 42.403 292.164 42.9363C294.006 44.9216 295.76 44.4952 295.013 46.3073Z" fill="#263238"/>
<path d="M302.182 76.7565C302.043 76.7613 301.904 76.7478 301.768 76.7165C301.377 76.6473 300.993 76.5425 300.621 76.4034C299.243 75.876 298.035 74.9849 297.125 73.8252C296.487 73.0249 295.986 72.1244 295.644 71.1603C295.254 70.0623 295.049 68.9075 295.037 67.7426C295.023 66.4587 295.184 65.1789 295.517 63.9386C295.699 63.2835 295.922 62.6405 296.184 62.0132C296.46 61.3889 296.702 60.7507 296.911 60.1012C297.095 59.4611 297.095 58.7825 296.911 58.1425C296.716 57.5124 296.464 56.9014 296.158 56.3171C295.848 55.7376 295.587 55.1338 295.377 54.5116C295.172 53.8959 295.123 53.2387 295.237 52.5996C295.504 51.3471 296.264 50.4144 296.718 49.4617C297.15 48.5799 297.356 47.6047 297.318 46.6237C297.258 45.188 296.736 43.8099 295.831 42.693C295.48 42.3018 295.103 41.9345 294.703 41.5938C295.171 41.8562 295.589 42.199 295.937 42.6064C296.909 43.7216 297.482 45.1278 297.565 46.6037C297.62 47.6275 297.419 48.6488 296.978 49.575C296.518 50.561 295.777 51.5003 295.55 52.6462C295.324 53.7921 295.864 54.998 296.458 56.1572C296.782 56.7583 297.045 57.3898 297.245 58.0426C297.442 58.7396 297.442 59.4774 297.245 60.1745C297.023 60.8466 296.767 61.507 296.478 62.1531C296.215 62.7667 295.993 63.3965 295.811 64.0385C295.479 65.2474 295.316 66.496 295.324 67.7493C295.303 69.8838 295.993 71.9648 297.285 73.6653C298.149 74.8105 299.299 75.7088 300.621 76.2702C301.615 76.6566 302.189 76.7165 302.182 76.7565Z" fill="#455A64"/>
<path d="M301.518 43.1424C301.193 43.2265 300.86 43.2756 300.524 43.289C299.609 43.3867 298.684 43.3621 297.776 43.2157C297.087 43.1138 296.425 42.8757 295.829 42.5154C295.234 42.1551 294.716 41.6797 294.306 41.1171C293.925 40.4054 293.621 39.6549 293.399 38.8786C293.114 38.1032 292.579 37.4445 291.878 37.0066C290.417 36.0805 288.702 35.9673 287.208 35.7874C285.829 35.7188 284.491 35.3016 283.318 34.5749C282.533 34.0552 281.965 33.2658 281.724 32.3564C281.666 32.1099 281.65 31.8553 281.677 31.6036C281.677 31.4304 281.717 31.3438 281.73 31.3438C281.738 31.6737 281.781 32.002 281.857 32.3231C282.133 33.1734 282.7 33.8998 283.458 34.375C284.61 35.0457 285.909 35.4211 287.241 35.4676C288.736 35.6408 290.51 35.7274 292.071 36.7134C292.835 37.1925 293.417 37.9122 293.726 38.7587C293.935 39.5153 294.223 40.2478 294.587 40.9439C295.364 42.0084 296.528 42.726 297.829 42.9425C298.708 43.1058 299.604 43.1662 300.497 43.1224C300.838 43.1033 301.179 43.11 301.518 43.1424Z" fill="#455A64"/>
<path d="M299.863 37.7174C299.611 37.8013 299.347 37.8397 299.082 37.8306C297.838 37.839 296.641 37.3607 295.746 36.4982C295.338 36.0896 294.99 35.6253 294.712 35.1192C294.112 34.1065 293.531 32.8607 292.284 32.341C291.082 31.9384 289.801 31.8265 288.548 32.0146C287.49 32.163 286.416 32.163 285.359 32.0146C284.623 31.9126 283.93 31.6081 283.357 31.1352C283.209 31.0064 283.079 30.8585 282.97 30.6955C282.89 30.58 282.857 30.5201 282.87 30.5156C282.87 30.5156 283.057 30.7288 283.444 31.0286C284.014 31.4338 284.677 31.6903 285.372 31.7748C286.411 31.8917 287.46 31.8738 288.494 31.7215C289.803 31.5081 291.144 31.6225 292.397 32.0546C293.041 32.3437 293.593 32.8048 293.992 33.387C294.343 33.9064 294.666 34.4446 294.959 34.9992C295.222 35.4835 295.547 35.9314 295.926 36.3317C296.261 36.6702 296.646 36.9555 297.067 37.1778C297.688 37.5013 298.37 37.6898 299.069 37.7307C299.582 37.7241 299.856 37.6841 299.863 37.7174Z" fill="#455A64"/>
<path d="M304.171 75.3216C304.138 75.3216 304.351 74.8819 304.598 74.0558C304.932 72.896 305.081 71.6909 305.038 70.4849C304.99 68.6996 304.502 66.9538 303.617 65.4016C303.13 64.5289 302.39 63.7494 301.783 62.7901C301.461 62.3014 301.235 61.7567 301.116 61.1845C301.01 60.5822 301.061 59.9631 301.262 59.3857C301.636 58.2332 302.303 57.2672 302.45 56.2079C302.597 55.1486 302.09 54.2093 301.582 53.3232C301.321 52.892 301.083 52.4473 300.869 51.9908C300.673 51.548 300.545 51.0788 300.488 50.5984C300.426 49.7518 300.452 48.901 300.568 48.0601C300.782 46.8714 300.671 45.6472 300.248 44.5159C300.059 44.1195 299.791 43.7659 299.461 43.4766C299.461 43.4766 299.494 43.4766 299.541 43.5165C299.62 43.5557 299.692 43.6075 299.754 43.6698C300.016 43.8868 300.227 44.1571 300.375 44.4626C300.857 45.6036 301.008 46.8575 300.809 48.0801C300.717 48.9054 300.705 49.7376 300.775 50.5651C300.94 51.4959 301.309 52.3787 301.856 53.15C302.141 53.6002 302.384 54.0751 302.583 54.569C302.793 55.1021 302.862 55.6804 302.783 56.2479C302.623 57.4138 301.936 58.3997 301.589 59.4857C301.407 60.0096 301.359 60.5707 301.449 61.1179C301.566 61.6472 301.778 62.1507 302.076 62.6035C302.643 63.5296 303.411 64.3224 303.898 65.2351C304.791 66.8396 305.268 68.6422 305.285 70.4782C305.306 71.7071 305.117 72.9306 304.725 74.0957C304.618 74.411 304.489 74.7183 304.338 75.0151C304.297 75.1247 304.241 75.2279 304.171 75.3216Z" fill="#455A64"/>
<path d="M276.998 199.454C276.998 199.454 272.501 156.923 272.241 141.207C271.981 125.491 279.32 109.982 279.32 109.982L308.061 108.789C308.061 108.789 313.745 124.732 313.845 131.44C314.045 144.458 310.382 157.309 310.803 167.636L311.763 199.481" fill="#263238"/>
<path d="M312.731 147.164C312.581 147.294 312.423 147.414 312.257 147.524L311.997 147.704L311.717 147.977C311.47 148.19 311.246 148.429 311.05 148.69C310.122 149.822 309.448 151.854 308.801 154.379C308.471 155.78 307.983 157.138 307.347 158.43C307.154 158.783 306.93 159.12 306.68 159.436C306.56 159.596 306.446 159.769 306.306 159.922L305.866 160.362C305.235 160.95 304.503 161.42 303.704 161.747C302.096 162.454 300.275 162.787 298.621 163.62C296.925 164.53 295.616 166.02 294.931 167.817C294.117 169.622 293.597 171.514 292.93 173.286C292.263 175.058 291.362 176.751 289.928 177.83C288.556 178.782 286.928 179.295 285.257 179.302C283.71 179.395 282.275 179.349 280.988 179.542C279.829 179.662 278.721 180.08 277.772 180.755C277.079 181.296 276.559 182.028 276.278 182.86C276.099 183.385 276.06 183.947 276.164 184.492C276.244 184.865 276.344 185.045 276.324 185.052C276.217 184.884 276.14 184.699 276.097 184.505C275.957 183.95 275.975 183.366 276.151 182.82C276.416 181.946 276.939 181.173 277.652 180.601C278.625 179.868 279.777 179.408 280.988 179.269C282.322 179.056 283.743 179.082 285.271 178.982C286.892 178.972 288.471 178.47 289.801 177.543C291.149 176.367 292.144 174.84 292.676 173.133C293.343 171.381 293.83 169.482 294.678 167.643C295.396 165.773 296.765 164.224 298.534 163.28C300.255 162.427 302.076 162.101 303.644 161.421C304.412 161.104 305.117 160.653 305.726 160.089L306.146 159.669C306.28 159.522 306.393 159.356 306.513 159.203C306.748 158.9 306.956 158.576 307.133 158.237C307.773 156.963 308.267 155.622 308.608 154.239C309.275 151.721 310.002 149.662 310.983 148.523C311.178 148.264 311.402 148.027 311.65 147.817C311.757 147.724 311.85 147.63 311.944 147.557L312.217 147.384C312.384 147.3 312.555 147.227 312.731 147.164Z" fill="#FAFAFA"/>
<path d="M312.906 127.484C312.936 127.672 312.95 127.861 312.946 128.051C312.944 128.601 312.877 129.149 312.746 129.683C312.171 131.632 311.043 133.372 309.497 134.693C308.476 135.629 307.358 136.454 306.161 137.151C304.873 137.911 303.452 138.637 301.991 139.463C300.457 140.285 299.027 141.289 297.735 142.454C296.409 143.768 295.317 145.298 294.506 146.978C293.688 148.681 292.754 150.326 291.71 151.901C291.18 152.635 290.567 153.306 289.882 153.9C289.208 154.473 288.466 154.963 287.674 155.359C286.241 156.062 284.747 156.635 283.211 157.071C281.783 157.511 280.449 157.904 279.288 158.403C278.234 158.822 277.232 159.358 276.299 160.002C275.597 160.488 274.967 161.069 274.424 161.728C273.971 162.299 273.592 162.926 273.297 163.593C273.344 163.409 273.407 163.228 273.484 163.054C273.702 162.55 273.982 162.076 274.318 161.641C274.85 160.954 275.479 160.349 276.186 159.842C277.122 159.176 278.132 158.617 279.195 158.177C280.48 157.654 281.791 157.198 283.124 156.811C284.638 156.365 286.111 155.79 287.527 155.092C288.278 154.701 288.983 154.227 289.629 153.68C290.287 153.095 290.878 152.438 291.39 151.721C292.419 150.153 293.344 148.52 294.159 146.831C294.996 145.114 296.124 143.554 297.495 142.221C298.81 141.038 300.266 140.023 301.831 139.196C303.299 138.377 304.72 137.664 306.007 136.911C307.201 136.237 308.32 135.438 309.343 134.526C310.876 133.245 312.014 131.557 312.626 129.656C312.797 128.944 312.891 128.216 312.906 127.484Z" fill="#FAFAFA"/>
<path d="M272.387 143.433C272.361 143.391 272.341 143.346 272.327 143.299C272.277 143.171 272.235 143.04 272.201 142.906C272.086 142.376 272.109 141.826 272.267 141.307C272.641 139.975 274.115 138.263 276.49 137.417C277.678 137.01 279.019 136.75 280.42 136.404C281.583 136.211 282.684 135.744 283.63 135.041C284.576 134.337 285.339 133.418 285.857 132.36C286.237 131.584 286.569 130.785 286.851 129.968C287.373 128.195 288.082 126.482 288.966 124.859C289.98 123.263 291.517 122.068 293.316 121.481C294.952 120.951 296.622 120.528 298.313 120.215C299.822 119.926 301.284 119.428 302.656 118.736C303.818 118.073 304.82 117.163 305.592 116.071C306.731 114.494 307.38 112.618 307.46 110.675C307.463 109.962 307.416 109.249 307.32 108.543C307.521 109.235 307.613 109.954 307.593 110.675C307.567 112.66 306.939 114.59 305.792 116.211C305.011 117.339 303.987 118.279 302.796 118.963C301.406 119.68 299.922 120.198 298.386 120.502C296.711 120.819 295.057 121.244 293.436 121.774C291.709 122.339 290.233 123.486 289.26 125.018C288.39 126.62 287.69 128.308 287.172 130.055C286.883 130.886 286.542 131.699 286.151 132.487C285.756 133.244 285.252 133.94 284.656 134.552C283.485 135.619 282.042 136.345 280.487 136.651C279.072 137.01 277.738 137.237 276.57 137.623C274.255 138.409 272.788 140.028 272.394 141.321C272.232 141.819 272.189 142.348 272.267 142.866C272.324 143.051 272.364 143.241 272.387 143.433Z" fill="#FAFAFA"/>
<path d="M310.435 179.41C310.462 179.549 310.478 179.689 310.482 179.83C310.495 180.234 310.452 180.637 310.355 181.029C309.936 182.474 309.049 183.739 307.833 184.627C307.021 185.272 306.123 185.802 305.165 186.199C304.144 186.632 303.016 186.978 301.829 187.345C300.596 187.704 299.39 188.15 298.219 188.677C297.003 189.257 295.913 190.07 295.01 191.069C294.036 192.082 293.196 193.194 292.262 194.18C291.368 195.135 290.331 195.944 289.186 196.578C287.239 197.64 285.06 198.207 282.842 198.231C281.356 198.247 279.879 198.001 278.478 197.505C278.098 197.374 277.728 197.216 277.371 197.032C277.241 196.978 277.117 196.908 277.004 196.825C277.138 196.862 277.27 196.909 277.398 196.965C277.764 197.121 278.138 197.259 278.518 197.378C279.916 197.816 281.377 198.02 282.842 197.984C285.011 197.928 287.135 197.35 289.033 196.299C290.141 195.672 291.147 194.878 292.015 193.947C292.929 192.974 293.763 191.868 294.757 190.829C295.713 189.793 296.865 188.955 298.146 188.364C299.334 187.834 300.558 187.389 301.809 187.032C302.983 186.672 304.104 186.365 305.145 185.926C306.075 185.545 306.951 185.041 307.746 184.427C308.942 183.584 309.833 182.378 310.288 180.989C310.387 180.469 310.436 179.94 310.435 179.41Z" fill="#FAFAFA"/>
<path d="M307.159 91.1104L301.594 91.2436C301.38 92.364 300.955 93.4334 300.34 94.3948C295.67 86.3336 292.088 75.541 291.194 71.2039C291.327 70.7709 291.48 70.2912 291.674 69.7582C291.813 68.9487 291.788 68.1196 291.601 67.3199C291.44 66.3539 291.174 65.0548 291.093 64.4552C290.847 62.6164 290.546 62.33 289.906 62.5365C289.039 62.8229 290.266 67.6863 289.552 67.7929C289.165 67.8462 288.698 66.1807 288.565 64.8149C288.432 63.4492 287.804 59.2387 287.357 58.9589C286.69 58.5458 286.11 59.1987 286.283 60.5578C286.457 61.9169 286.664 66.0474 285.943 66.1074C285.222 66.1673 284.609 59.1854 284.609 59.1854C284.609 59.1854 284.722 57.6664 283.882 57.6998C282.374 57.7664 283.555 65.1214 283.681 65.8209C283.775 66.3006 283.014 66.3939 282.921 65.8675C282.827 65.3412 282.481 58.8923 280.919 58.9456C279.732 58.9456 281.833 65.0015 281.166 66.4005C280.499 67.7996 280.045 61.6571 278.918 61.737C278.498 61.7703 278.184 61.8503 278.958 65.3212C279.699 68.079 280.59 70.7945 281.627 73.4557C283.415 83.0825 291.26 113.882 303.556 108.245C310.441 105.088 313.23 91.1104 313.23 91.1104H307.159Z" fill="#B78876"/>
<path d="M283.445 66.2843C283.498 66.2976 283.553 66.2976 283.605 66.2843C283.686 66.2597 283.755 66.2074 283.8 66.1365C283.845 66.0657 283.864 65.9811 283.852 65.8979C283.852 65.4848 283.772 64.8852 283.679 64.1058C283.522 63.1664 283.42 62.2188 283.372 61.2677C283.372 60.7081 283.372 60.1085 283.405 59.4756C283.415 59.1538 283.449 58.8332 283.505 58.5163C283.559 58.2165 283.759 57.85 283.992 57.91H284.032C284.266 57.91 284.453 58.0832 284.526 58.363C284.609 58.653 284.64 58.955 284.619 59.2557C284.757 61.1215 284.995 62.9785 285.333 64.8186C285.387 65.0651 285.44 65.3183 285.52 65.5715C285.556 65.701 285.6 65.8279 285.654 65.9512C285.688 66.0198 285.726 66.0865 285.767 66.1511C285.797 66.1997 285.838 66.2408 285.887 66.2709C285.935 66.3009 285.99 66.3192 286.047 66.3243C286.144 66.3136 286.236 66.2743 286.311 66.2115C286.386 66.1486 286.44 66.065 286.468 65.9712C286.525 65.8409 286.567 65.7046 286.594 65.5648C286.646 65.2963 286.682 65.0248 286.701 64.752C286.762 63.6419 286.746 62.5289 286.654 61.4209C286.57 60.8678 286.548 60.3069 286.588 59.7487C286.612 59.5077 286.729 59.2855 286.914 59.1292C286.957 59.1038 287.005 59.0877 287.054 59.0819C287.104 59.0762 287.154 59.0809 287.201 59.0959C287.258 59.1094 287.312 59.1319 287.362 59.1625C287.395 59.1878 287.421 59.2226 287.435 59.2624C287.645 59.8027 287.799 60.363 287.895 60.9346C288.015 61.5209 288.115 62.1271 288.209 62.7334C288.302 63.3396 288.389 63.9526 288.462 64.5721C288.519 65.2115 288.622 65.846 288.769 66.4708C288.848 66.7903 288.948 67.1042 289.069 67.4102C289.138 67.5815 289.232 67.7411 289.35 67.8832C289.395 67.9423 289.456 67.9874 289.525 68.0133C289.595 68.0393 289.67 68.045 289.743 68.0298C289.811 68.0075 289.871 67.9682 289.919 67.9157C289.967 67.8632 290.001 67.7992 290.017 67.73C290.096 67.3895 290.12 67.0388 290.09 66.6907C290.09 66.3576 290.05 66.0245 290.017 65.7047C289.97 65.1451 289.917 64.5921 289.897 64.0458C289.88 63.7774 289.88 63.5082 289.897 63.2397C289.91 63.1209 289.939 63.0043 289.983 62.8933C289.997 62.8566 290.018 62.8228 290.043 62.7933H290.13C290.571 62.6135 290.717 63.2264 290.837 63.7194C290.957 64.2124 291.004 64.772 291.111 65.2983C291.284 66.3443 291.511 67.3902 291.625 68.3895C291.702 68.868 291.684 69.3571 291.571 69.8286C291.411 70.3082 291.251 70.7812 291.098 71.2543V71.3009V71.3409C291.879 74.6138 292.875 77.8319 294.08 80.9743C295.134 83.819 296.195 86.304 297.122 88.3027C298.049 90.3013 298.89 91.8669 299.464 92.9195L300.131 94.112C300.203 94.2542 300.29 94.3882 300.391 94.5118C300.335 94.3638 300.266 94.2211 300.184 94.0854L299.517 92.8662C298.97 91.7936 298.183 90.2014 297.275 88.2027C296.368 86.2041 295.341 83.7191 294.313 80.8744C293.138 77.7368 292.162 74.5281 291.391 71.2676V71.3609C291.545 70.8945 291.698 70.4215 291.858 69.9485C291.997 69.4293 292.024 68.8867 291.938 68.3562C291.818 67.3103 291.598 66.2976 291.424 65.245C291.324 64.7254 291.258 64.1924 291.151 63.6461C291.144 63.3655 291.097 63.0872 291.011 62.82C290.935 62.6575 290.805 62.5258 290.644 62.4469C290.473 62.391 290.288 62.391 290.117 62.4469H290.01C289.954 62.465 289.901 62.4945 289.857 62.5335C289.783 62.5963 289.725 62.6764 289.69 62.7667C289.629 62.9109 289.59 63.0637 289.576 63.2197C289.557 63.5081 289.557 63.7974 289.576 64.0858C289.576 64.6454 289.656 65.205 289.703 65.7647C289.703 66.0911 289.757 66.4309 289.77 66.7307C289.796 67.0312 289.781 67.3339 289.723 67.6301C289.723 67.6967 289.67 67.6834 289.723 67.7167L289.683 67.6767C289.598 67.5678 289.531 67.4465 289.483 67.3169C289.366 67.0288 289.271 66.7326 289.196 66.4309C289.05 65.8242 288.949 65.2073 288.896 64.5855C288.825 63.9592 288.738 63.3396 288.636 62.7267C288.542 62.1138 288.436 61.5142 288.316 60.9146C288.215 60.3043 288.045 59.7075 287.808 59.1358C287.763 59.0403 287.691 58.9595 287.602 58.9027C287.524 58.8576 287.441 58.8219 287.355 58.7961C287.26 58.7711 287.161 58.7654 287.063 58.7791C286.966 58.7928 286.872 58.8258 286.788 58.876C286.65 58.9787 286.535 59.1086 286.45 59.2576C286.365 59.4066 286.312 59.5716 286.294 59.7421C286.251 60.0448 286.251 60.3521 286.294 60.6548C286.294 60.9413 286.361 61.2211 286.381 61.5009C286.474 62.5909 286.494 63.686 286.441 64.7787C286.425 65.0382 286.392 65.2965 286.341 65.5515C286.322 65.6706 286.288 65.7869 286.241 65.8979C286.223 65.9418 286.199 65.9824 286.167 66.0178C286.167 66.0778 286.121 66.0178 286.127 66.0978C286.127 66.0311 286.127 66.0978 286.127 66.0112C286.098 65.9662 286.071 65.9195 286.047 65.8713C286 65.7647 285.96 65.6447 285.92 65.5315C285.847 65.2916 285.794 65.0451 285.74 64.8053C285.392 62.981 285.141 61.1397 284.986 59.2891C285.006 58.9541 284.968 58.6182 284.873 58.2964C284.829 58.1285 284.739 57.9762 284.613 57.8567C284.548 57.7937 284.47 57.7447 284.385 57.7126C284.3 57.6805 284.21 57.6661 284.119 57.6702H284.159C284.046 57.6537 283.931 57.6708 283.828 57.7194C283.724 57.768 283.638 57.8458 283.579 57.9433C283.48 58.1022 283.412 58.2786 283.379 58.463C283.323 58.7933 283.291 59.1273 283.285 59.4623C283.285 60.1285 283.285 60.7081 283.285 61.2744C283.348 62.2315 283.471 63.1838 283.652 64.1258C283.766 64.8986 283.852 65.4982 283.892 65.9046C283.905 65.9757 283.893 66.0491 283.857 66.1123C283.822 66.1754 283.766 66.2244 283.699 66.251C283.499 66.271 283.439 66.2776 283.445 66.2843Z" fill="#A36957"/>
<path d="M239.991 100.284C238.69 100.257 237.39 100.407 236.129 100.731C232.679 101.637 226.735 105.234 226.488 109.678H230.811C230.811 109.678 228.39 114.821 229.097 114.342C230.945 113.102 234.614 109.378 234.614 109.378L239.991 100.284Z" fill="#B78876"/>
<path d="M298.921 22.8485C298.82 22.8485 298.433 19.2909 298.046 14.8539C297.659 10.417 297.419 6.85938 297.512 6.85938C297.606 6.85938 298 10.417 298.387 14.8539C298.774 19.2909 299.014 22.8485 298.921 22.8485Z" fill="#263238"/>
<path d="M317.875 7.13332C317.949 7.18662 315.033 11.4171 311.357 16.5802C307.681 21.7434 304.632 25.9072 304.552 25.8273C304.472 25.7473 307.394 21.5435 311.071 16.3804C314.747 11.2172 317.795 7.08002 317.875 7.13332Z" fill="#263238"/>
<path d="M325.746 26.3061C325.746 26.3993 322.356 27.1788 318.14 28.0449C313.924 28.911 310.481 29.5372 310.461 29.4439C310.441 29.3507 313.844 28.5712 318.067 27.7051C322.29 26.839 325.699 26.2128 325.746 26.3061Z" fill="#263238"/>
<path d="M118.893 117.81L95.2759 238.927L92.207 254.783L249.656 254.024C256.727 253.99 262.999 247.721 265.26 238.408L293.188 124.065C294.915 116.997 291.126 109.642 285.762 109.648L126.365 109.815C122.896 109.808 119.787 113.086 118.893 117.81Z" fill="#2D74FF"/>
<g opacity="0.5">
<path d="M118.893 117.81L95.2759 238.927L92.207 254.783L249.656 254.024C256.727 253.99 262.999 247.721 265.26 238.408L293.188 124.065C294.915 116.997 291.126 109.642 285.762 109.648L126.365 109.815C122.896 109.808 119.787 113.086 118.893 117.81Z" fill="black"/>
</g>
<path d="M234.57 230.708L217.891 96.5255C217.224 91.0293 212.827 86.9254 207.643 86.9454L171.083 87.0586C169.725 87.0739 168.383 87.3654 167.141 87.9151C165.899 88.4649 164.782 89.2615 163.858 90.2565L146.512 108.691L44.8375 109.237C38.6263 109.27 33.8495 115.146 34.6701 121.742L50.1547 245.757C50.8219 251.247 55.2184 255.344 60.3889 255.337L237.619 254.984C257.353 255.391 259.241 249.575 259.241 249.575C236.585 254.578 234.57 230.741 234.57 230.708Z" fill="#2D74FF"/>
<path d="M93.9975 190.323C98.6732 190.323 102.464 186.537 102.464 181.868C102.464 177.199 98.6732 173.414 93.9975 173.414C89.3217 173.414 85.5312 177.199 85.5312 181.868C85.5312 186.537 89.3217 190.323 93.9975 190.323Z" fill="#113F62"/>
<path d="M160.927 190.323C165.603 190.323 169.393 186.537 169.393 181.868C169.393 177.199 165.603 173.414 160.927 173.414C156.251 173.414 152.461 177.199 152.461 181.868C152.461 186.537 156.251 190.323 160.927 190.323Z" fill="#113F62"/>
<path d="M139.625 191.676L139.158 190.79C139.118 190.71 134.741 182.635 125.942 182.635C117.936 182.635 115.934 190.237 115.881 190.563L115.641 191.529L113.699 191.063L113.933 190.09C113.933 189.997 116.321 180.637 125.942 180.637C135.949 180.637 140.732 189.484 140.932 189.864L141.4 190.743L139.625 191.676Z" fill="#113F62"/>
<path d="M239.856 30.6996C239.64 30.6088 239.454 30.4584 239.321 30.2661C239.187 30.0738 239.111 29.8475 239.102 29.6137L238.835 23.4313C238.826 23.2392 238.861 23.0475 238.939 22.8715C239.016 22.6954 239.134 22.5398 239.282 22.417C239.43 22.2942 239.605 22.2076 239.793 22.1639C239.98 22.1202 240.176 22.1208 240.363 22.1655C240.88 22.2768 241.413 22.2816 241.932 22.1796C242.45 22.0777 242.943 21.8711 243.378 21.5725C243.78 21.3189 244.125 20.9859 244.392 20.594C244.659 20.2022 244.843 19.7597 244.933 19.2941C244.993 18.8226 244.958 18.3437 244.83 17.886C244.702 17.4282 244.483 17.0009 244.186 16.6292C243.873 16.2064 243.48 15.8493 243.029 15.5783C242.578 15.3074 242.078 15.128 241.557 15.0503C240.507 14.992 239.469 15.2892 238.609 15.8937C237.749 16.4982 237.119 17.3747 236.82 18.3814C236.721 18.6864 236.507 18.9412 236.224 19.0928C235.941 19.2445 235.61 19.2812 235.3 19.1953C234.991 19.1094 234.726 18.9076 234.562 18.6319C234.398 18.3562 234.346 18.0278 234.419 17.7151C234.872 16.1318 235.858 14.7529 237.211 13.8102C238.563 12.8674 240.199 12.4184 241.844 12.5387C242.7 12.6526 243.525 12.9371 244.268 13.3755C245.012 13.8138 245.66 14.3969 246.174 15.0903C246.674 15.7328 247.039 16.469 247.249 17.2552C247.458 18.0413 247.508 18.8615 247.395 19.6672C247.243 20.4716 246.928 21.2366 246.469 21.9149C246.01 22.5932 245.417 23.1705 244.726 23.6111C243.725 24.284 242.556 24.6647 241.35 24.7104L241.557 29.4805C241.565 29.6901 241.52 29.8982 241.425 30.0856C241.331 30.273 241.191 30.4336 241.018 30.5525C240.845 30.6715 240.645 30.7449 240.436 30.7659C240.227 30.787 240.016 30.755 239.823 30.673L239.856 30.6996Z" fill="#2D74FF"/>
<path d="M241.68 33.2301C241.694 33.4313 241.648 33.6321 241.547 33.8072C241.447 33.9822 241.297 34.1236 241.116 34.2135C240.935 34.3034 240.732 34.3377 240.532 34.3121C240.331 34.2864 240.143 34.2021 239.991 34.0696C239.839 33.9371 239.729 33.7625 239.676 33.5678C239.623 33.3732 239.629 33.1673 239.694 32.9761C239.758 32.785 239.878 32.6172 240.038 32.494C240.198 32.3708 240.391 32.2977 240.592 32.2841C240.726 32.2741 240.86 32.2907 240.988 32.333C241.115 32.3753 241.233 32.4424 241.334 32.5304C241.435 32.6183 241.517 32.7255 241.577 32.8456C241.636 32.9657 241.671 33.0964 241.68 33.2301Z" fill="#2D74FF"/>
<path d="M218.418 21.9768C218.446 21.845 218.466 21.7115 218.478 21.5771C218.478 21.284 218.551 20.9109 218.604 20.3846C218.67 19.7384 218.779 19.0974 218.931 18.4659C219.018 18.0928 219.065 17.6797 219.198 17.26C219.332 16.8403 219.465 16.3873 219.612 15.9276C220.384 13.65 221.51 11.5076 222.948 9.57858C224.832 7.08071 227.221 5.00614 229.959 3.48938C231.518 2.61175 233.178 1.92716 234.903 1.45077C236.764 0.958067 238.682 0.707275 240.607 0.70461C241.622 0.688344 242.636 0.741768 243.643 0.864502C244.156 0.9178 244.663 1.05104 245.177 1.13765C245.697 1.22651 246.209 1.35117 246.712 1.51073C248.815 2.09755 250.815 3.00303 252.643 4.19557C256.707 6.82796 259.803 10.7099 261.462 15.2547C262.356 17.6892 262.808 20.2633 262.797 22.8562C262.824 25.5273 262.351 28.18 261.402 30.6776L261.102 31.4371L261.062 31.537L261.102 31.6369C262.777 35.481 264.438 39.2584 266.006 42.9159L266.286 42.5961L256.279 38.7654L256.159 38.7188L256.059 38.812C253.411 41.3735 250.17 43.2411 246.625 44.2483C243.595 45.0812 240.424 45.263 237.319 44.7818C234.214 44.3007 231.246 43.1674 228.612 41.4569C226.454 40.044 224.552 38.2756 222.988 36.2271C220.72 33.237 219.251 29.7203 218.718 26.0074C218.638 25.3412 218.571 24.7816 218.511 24.2753C218.451 23.7689 218.511 23.3559 218.478 23.0028C218.444 22.6497 218.478 22.4165 218.478 22.2233C218.511 22.2183 218.541 22.2009 218.562 22.1746C218.583 22.1483 218.593 22.1151 218.591 22.0816C218.588 22.0481 218.573 22.0167 218.548 21.9939C218.524 21.971 218.491 21.9583 218.458 21.9583C218.424 21.9583 218.392 21.971 218.367 21.9939C218.342 22.0167 218.327 22.0481 218.325 22.0816C218.322 22.1151 218.332 22.1483 218.353 22.1746C218.374 22.2009 218.404 22.2183 218.438 22.2233C218.438 22.4165 218.438 22.6763 218.438 23.0028C218.438 23.3292 218.438 23.7823 218.438 24.2886C218.438 24.7949 218.551 25.3745 218.618 26.0341C218.837 27.6365 219.219 29.2124 219.759 30.7375C220.522 32.7516 221.55 34.6557 222.814 36.4003C224.385 38.4854 226.301 40.2877 228.478 41.7301C231.145 43.4833 234.155 44.6502 237.307 45.1533C240.46 45.6564 243.684 45.4842 246.765 44.6481C250.353 43.6304 253.635 41.7449 256.319 39.1585L256.099 39.2051L266.106 43.0558L266.606 43.249L266.386 42.736C264.798 39.0785 263.157 35.3078 261.489 31.457V31.6502L261.796 30.8708C262.77 28.3188 263.254 25.6069 263.224 22.8762C263.245 20.2283 262.793 17.5978 261.889 15.1082C260.194 10.4727 257.029 6.517 252.876 3.84248C251.002 2.62212 248.95 1.70058 246.792 1.111C246.281 0.949676 245.759 0.827187 245.231 0.744584C244.71 0.651314 244.196 0.518071 243.676 0.471436C242.656 0.344959 241.628 0.287091 240.601 0.298222C238.644 0.306491 236.697 0.570787 234.81 1.08435C233.062 1.57993 231.38 2.28221 229.799 3.17627C227.033 4.73023 224.63 6.85351 222.747 9.40536C221.314 11.3663 220.204 13.5434 219.458 15.8543C219.318 16.334 219.185 16.7937 219.065 17.1867C218.959 17.5884 218.874 17.9953 218.811 18.4059C218.668 19.0418 218.574 19.6877 218.531 20.3379C218.491 20.8509 218.464 21.244 218.444 21.5371C218.416 21.6819 218.407 21.8297 218.418 21.9768Z" fill="#263238"/>
</svg>
