<svg width="400" height="400" viewBox="0 0 400 400" fill="none" xmlns="http://www.w3.org/2000/svg">
<path d="M336.502 161.281C328.218 157.746 318.465 160.103 313.238 166.486C312.534 167.32 311.918 168.225 311.401 169.187L295.515 198.812C293.102 203.313 285.533 201.777 285.533 196.787V71.2716C285.533 66.6325 283.429 62.4262 280.021 59.3832C276.631 56.3398 271.922 54.4605 266.728 54.4605C256.324 54.4605 247.907 61.9938 247.907 71.272V160.96C247.907 163.807 245.323 166.115 242.136 166.115H242.134C238.947 166.115 236.364 163.807 236.364 160.96V51.2074C236.364 41.9249 227.939 34.4 217.548 34.4C207.155 34.4 198.731 41.9249 198.731 51.2074V160.96C198.731 163.807 196.147 166.115 192.96 166.115C189.774 166.115 187.19 163.807 187.19 160.96V63.8226C187.19 54.5685 179.085 46.6304 168.726 46.4615C158.172 46.2889 149.558 53.8788 149.558 63.2655V160.96C149.558 163.806 146.974 166.114 143.786 166.114C140.6 166.114 138.016 163.806 138.016 160.96V86.811C138.016 77.5569 129.911 69.6188 119.552 69.4495C108.999 69.2769 100.383 76.8664 100.383 86.2535V166.114H100.377V221.244C100.377 273.665 148.386 317.828 207.073 317.7C252.316 317.602 290.906 292.302 306.208 256.675L345.336 183.701C346.589 181.359 347.19 178.883 347.19 176.451C347.19 170.186 343.249 164.175 336.502 161.281Z" fill="#D2ECFC"/>
<path d="M234.72 126.528H181.175C161.097 126.528 144.82 142.801 144.82 162.875V239.231H162.187V165.033C162.187 153.357 171.655 143.892 183.333 143.892H232.561C244.24 143.892 253.707 153.357 253.707 165.033V239.231H271.073V162.875C271.073 142.801 254.797 126.528 234.72 126.528Z" fill="#263238"/>
<path d="M105.366 233.544V261.441C105.366 318.083 151.293 364 207.947 364C264.6 364 310.527 318.082 310.527 261.44V233.544C310.527 216.876 297.012 203.364 280.341 203.364H135.552C118.881 203.364 105.366 216.876 105.366 233.544Z" fill="#2D74FF"/>
<path d="M211.384 321.986C235.017 321.986 254.176 302.831 254.176 279.203C254.176 255.574 235.017 236.42 211.384 236.42C187.751 236.42 168.592 255.574 168.592 279.203C168.592 302.831 187.751 321.986 211.384 321.986Z" fill="white"/>
<path d="M225.643 313.608C244.652 305.736 253.679 283.948 245.805 264.944C237.931 245.939 216.139 236.914 197.131 244.786C178.122 252.658 169.095 274.446 176.969 293.45C184.843 312.455 206.635 321.48 225.643 313.608Z" fill="#D2ECFC"/>
<path d="M223.784 266.706C223.784 259.634 217.862 253.946 210.706 254.326C204.337 254.665 199.173 259.966 198.99 266.341C198.855 270.994 201.295 275.076 204.981 277.307L202.73 305.687C202.708 305.962 202.743 306.239 202.834 306.5C202.924 306.761 203.068 307 203.255 307.203C203.443 307.406 203.67 307.568 203.923 307.679C204.176 307.789 204.45 307.846 204.726 307.846H218.042C218.318 307.846 218.592 307.789 218.845 307.679C219.098 307.568 219.325 307.406 219.513 307.203C219.7 307 219.844 306.761 219.934 306.5C220.025 306.239 220.06 305.962 220.038 305.687L217.788 277.307C221.377 275.135 223.784 271.206 223.784 266.706Z" fill="#263238"/>
<path d="M338.528 358.72L296.195 285.411C294.863 283.106 291.535 283.106 290.204 285.411L247.87 358.72C246.539 361.025 248.203 363.907 250.865 363.907H335.533C338.196 363.907 339.86 361.025 338.528 358.72Z" fill="#263238"/>
<path d="M331.887 356.293L294.976 292.375C294.187 291.008 292.212 291.008 291.423 292.375L254.512 356.293C253.723 357.66 254.71 359.369 256.289 359.369H330.11C331.689 359.37 332.676 357.66 331.887 356.293Z" fill="white"/>
<path d="M331.887 356.293L294.977 292.375C294.187 291.008 292.213 291.008 291.423 292.375L291.226 292.718L326.715 354.175C327.505 355.542 326.518 357.251 324.939 357.251H254.24C254.205 358.347 255.068 359.369 256.289 359.369H330.111C331.69 359.37 332.677 357.66 331.887 356.293Z" fill="#DDE4F0"/>
<path d="M293.199 343.019C291.298 343.019 289.684 341.536 289.524 339.642L287.195 312.091C287.153 311.582 287.216 311.07 287.381 310.588C287.546 310.105 287.81 309.661 288.155 309.285C288.5 308.91 288.92 308.61 289.387 308.405C289.855 308.2 290.36 308.094 290.87 308.093H295.528C296.038 308.094 296.543 308.2 297.01 308.405C297.477 308.61 297.897 308.91 298.243 309.285C298.588 309.661 298.851 310.105 299.016 310.588C299.182 311.07 299.245 311.582 299.203 312.091L296.874 339.642C296.714 341.535 295.099 343.019 293.199 343.019Z" fill="#DDE4F0"/>
<path d="M295.529 309.287H290.871C290.526 309.287 290.185 309.358 289.868 309.497C289.552 309.636 289.269 309.839 289.035 310.093C288.802 310.347 288.623 310.647 288.512 310.973C288.4 311.3 288.357 311.646 288.386 311.99L290.715 339.541C290.769 340.163 291.054 340.742 291.514 341.164C291.974 341.587 292.575 341.821 293.2 341.821C293.824 341.821 294.426 341.587 294.886 341.164C295.346 340.742 295.631 340.163 295.685 339.541L298.013 311.99C298.042 311.646 298 311.3 297.888 310.973C297.776 310.647 297.598 310.347 297.365 310.093C297.131 309.839 296.847 309.636 296.531 309.497C296.215 309.358 295.874 309.287 295.529 309.287Z" fill="#263238"/>
<path d="M293.199 352.719C290.898 352.719 289.025 350.847 289.025 348.546C289.025 346.245 290.897 344.373 293.199 344.373C295.501 344.373 297.373 346.245 297.373 348.546C297.373 350.847 295.5 352.719 293.199 352.719Z" fill="#DDE4F0"/>
<path d="M290.22 348.546C290.22 348.155 290.297 347.768 290.447 347.406C290.597 347.045 290.816 346.716 291.093 346.44C291.37 346.163 291.698 345.944 292.06 345.794C292.421 345.644 292.809 345.567 293.2 345.567C293.591 345.567 293.978 345.644 294.34 345.794C294.701 345.944 295.03 346.163 295.307 346.44C295.583 346.716 295.803 347.045 295.952 347.406C296.102 347.768 296.179 348.155 296.179 348.546C296.179 349.336 295.865 350.094 295.307 350.652C294.748 351.211 293.99 351.525 293.2 351.525C292.41 351.525 291.652 351.211 291.093 350.652C290.534 350.094 290.22 349.336 290.22 348.546ZM136.93 186.777C131.282 185.544 124.333 182.446 117.232 177.825L99.4732 177.858L81.7148 177.891C74.6312 182.539 67.6927 185.662 62.05 186.917C64.1457 190.9 68.4238 200.385 67.1964 212.691C66.462 220.053 64.0231 225.758 62.1293 229.317C62.1339 231.81 62.4083 245.07 73.1448 255.764C79.9327 262.524 89.3001 266.696 99.6391 266.678C109.978 266.658 119.33 262.451 126.092 255.665C136.789 244.931 137.013 231.67 137.009 229.177C135.102 225.624 132.642 219.929 131.88 212.57C130.606 200.27 134.849 190.768 136.93 186.777Z" fill="#263238"/>
<path d="M99.6309 262.316C90.7962 262.332 82.4831 258.907 76.2244 252.673C68.0094 244.491 66.689 234.47 66.5164 230.333C69.2526 224.896 70.9413 219.112 71.5389 213.124C72.4764 203.724 70.5476 195.689 68.1308 189.681C72.8259 188.021 77.9348 185.476 83.0057 182.251L115.958 182.189C121.041 185.395 126.159 187.921 130.86 189.564C128.466 195.581 126.567 203.623 127.539 213.019C128.159 219.006 129.87 224.783 132.626 230.21C132.468 234.347 131.184 244.375 123.001 252.586C116.765 258.844 108.466 262.299 99.6309 262.316Z" fill="white"/>
<path d="M99.6245 258.734C91.6626 258.749 84.1715 255.663 78.5314 250.045C71.3798 242.922 70.0335 234.206 69.8054 230.349C72.3924 225.084 73.9959 219.489 74.5723 213.712C75.3005 206.415 74.3846 199.183 71.8506 192.187C75.8443 190.623 80.0932 188.449 84.2666 185.831L114.711 185.774C118.894 188.377 123.151 190.536 127.15 192.084C124.642 199.089 123.754 206.325 124.508 213.619C125.107 219.395 126.731 224.983 129.338 230.238C129.123 234.096 127.808 242.82 120.685 249.967C115.065 255.605 107.586 258.719 99.6245 258.734Z" fill="white"/>
<path d="M86.7782 215.953L80.4141 225.58L96.9843 235.266L118.683 211.746L108.989 204.411L96.5835 224.425L86.7782 215.953Z" fill="#263238"/>
</svg>
