<svg class="o-icon o-icon--bdp-logo o-icon--bdp-logo-dark" version="1.1" id="Layer_1" xmlns="http://www.w3.org/2000/svg" xmlns:xlink="http://www.w3.org/1999/xlink" x="0px" y="0px" viewBox="0 0 346.3 121.4" style="enable-background:new 0 0 346.3 121.4;" xml:space="preserve">
<style type="text/css">
	.o-icon--bdp-logo-dark .st0{display:none;}
	.o-icon--bdp-logo-dark .st1{fill-rule:evenodd;clip-rule:evenodd;}
	.o-icon--bdp-logo-dark .st2{display:inline;}
	.o-icon--bdp-logo-dark .st3{fill:#FFFFFF;}
	.o-icon--bdp-logo-dark .st4{font-family:'CenturyGothic-Bold';}
	.o-icon--bdp-logo-dark .st5{font-size:19.49px;}
	.o-icon--bdp-logo-dark .st6{display:inline;fill:#898989;}
	.o-icon--bdp-logo-dark .st7{fill-rule:evenodd;clip-rule:evenodd;fill:#FFFFFF;}
	.o-icon--bdp-logo-dark .st8{display:none;fill-rule:evenodd;clip-rule:evenodd;fill:#537A48;}
	.o-icon--bdp-logo-dark .st9{fill:#2D74FF;}
	.o-icon--bdp-logo-dark .st10{fill-rule:evenodd;clip-rule:evenodd;fill:#2D74FF;}
	.o-icon--bdp-logo-dark .st11{display:inline;fill:#537A48;}
	.o-icon--bdp-logo-dark .st12{display:none;fill-rule:evenodd;clip-rule:evenodd;fill:#2D74FF;}
	.o-icon--bdp-logo-dark .st13{display:inline;fill-rule:evenodd;clip-rule:evenodd;fill:#2D74FF;}
</style>
<g id="CAPS_Bolded_-_Sans-Serif_Font__x28_Inverse_x29_" class="st0">
	<rect id="Black_Rectangle" x="-0.2" y="0.1" class="st1" width="346.5" height="121.6"></rect>
	<g id="PSA_Logo__x28_Black_x29__00000117635135375489145170000005108872549256505507_" class="st2">
		
			<image style="overflow:visible;" width="2480" height="930" xlink:href="D6058A7555175884.png" transform="matrix(2.061862e-02 0 0 2.061862e-02 198.0638 102.0782)">
		</image>
	</g>
	<g id="Centralise_00000178202004096972014180000008429074433048600455_" class="st2">
		<g id="PSA_Logo__x28_White_x29_">
			
				<image style="overflow:visible;" width="2480" height="930" xlink:href="D6058A7555175885.png" transform="matrix(2.090909e-02 0 0 2.090909e-02 196.6239 101.8593)">
			</image>
		</g>
		<text transform="matrix(1 0 0 1 254.1606 121.0791)" class="st3 st4 st5">GROUP</text>
		
			<text id="A_member_of_the_00000172408619457416773060000014341919739725473937_" transform="matrix(1 0 0 1 24.4709 121.0791)" class="st3 st4 st5">A MEMBER OF THE</text>
		<g id="Single_Spacing_00000140730697811647408940000016638073220182904964_" class="st0">
			<rect x="248.5" y="114.1" class="st6" width="7" height="7"></rect>
			<rect x="189.6" y="114.1" class="st6" width="7" height="7"></rect>
		</g>
	</g>
	<g id="BDP_2_00000063621498407350120790000014457259325233381045_" class="st2">
		<g>
			<path class="st3" d="M78.4,13.4C69.7,4.8,58.2,0,46,0C33.9,0,22.3,4.8,13.4,13.4C5.8,21,1.1,31.1,0.1,41.7l0,0.6h0.6h72.7h1.2
				l-0.9-0.9L48.3,16l-0.4-0.4L47.6,16l-5,5l-0.4,0.4l0.4,0.4l5,5.1l4.8,4.8l1.7,1.7l0.9,0.9h-1.2h-43H9.9l0.3-0.7l0.5-1.4
				c1.8-4.6,4.8-9.2,8.5-12.9C26.3,12,35.9,8.1,46,8.1c10.2,0,19.7,3.9,26.8,11.1C80,26.6,84,36.2,84,46c0,0.6-0.1,1.2-0.1,1.8
				l0,0.2l0,0.1c-0.1,0.6-0.1,1.1-0.1,1.6v1v0.5h-0.5h-1c-3.2,0-5.8-0.7-7.6-1.2c-0.4-0.1-0.8-0.2-1.1-0.3l-0.1,0L73,49.6l-0.5-0.1
				l-0.1,0c-1.7-0.5-4-1.2-6.9-1.2c-3.3,0-5.7,0.7-7.3,1.2c-0.3,0.1-0.5,0.1-0.7,0.2L57,49.9l-0.1,0c-1.9,0.5-4.7,1.4-8,1.4
				c-3.7,0-6.4-0.8-8.1-1.3l-0.3-0.1c-0.1,0-0.2-0.1-0.4-0.1l-0.6-0.2c-1.7-0.5-4.3-1.3-7.4-1.3c-3.1,0-5.7,0.8-7.4,1.3l-0.6,0.2
				l-0.5,0.2c-1.8,0.5-4.7,1.4-8.3,1.4c-3.6,0-6.5-0.9-8.3-1.4l-0.5-0.2l-0.6-0.2c-1.3-0.4-3.1-0.9-5.3-1.2L0,48.3L0,49
				C1,60.6,5.6,70.8,13.4,78.6c8.9,8.7,20.5,13.4,32.6,13.4c12.2,0,23.7-4.8,32.4-13.4C82.2,74.9,85,71,87.1,67l0.5-0.9l-1,0.2
				c-1.4,0.2-2.9,0.4-4.4,0.4c-3.2,0-5.8-0.7-7.6-1.2c-0.4-0.1-0.8-0.2-1.1-0.3l-0.1,0c-0.1,0-0.3-0.1-0.5-0.1l-0.2-0.1l-0.1,0
				c-1.7-0.5-4-1.2-6.9-1.2c-3.3,0-5.7,0.7-7.3,1.2c-0.3,0.1-0.5,0.1-0.7,0.2L57,65.3c-1.9,0.5-4.7,1.4-8,1.4
				c-3.7,0-6.4-0.8-8.1-1.3l-0.3-0.1c-0.1,0-0.2-0.1-0.4-0.1l-0.6-0.2c-1.7-0.5-4.3-1.3-7.4-1.3c-3.1,0-5.7,0.8-7.4,1.3l-0.6,0.2
				l0,0l-0.1,0c-0.4,0.1-0.9,0.2-1.4,0.4l-0.1,0c0,0-0.1,0-0.1,0l-0.8,0.2l0.5,0.6c1.7,2,3.8,3.8,6.2,5.6l0.2,0.1l0.2,0
				c0.9-0.2,2-0.4,3.4-0.4c3.6,0,6.5,0.9,8.3,1.4l0.5,0.2c0.1,0,0.3,0.1,0.4,0.1l0.3,0.1c1.7,0.5,4.1,1.2,7.3,1.2
				c2.9,0,5.6-0.8,7.2-1.3l0.6-0.2l0.2,0c0.2,0,0.4-0.1,0.6-0.2c1.8-0.5,4.5-1.3,8.1-1.3c2.1,0,3.8,0.4,4.3,0.5l1.9,0.5l0.9,0.2
				L72,73.6l-1.4,1.3C63.9,80.8,55.2,84,46,84C35.9,84,26.3,80,19.2,72.9c-3.2-3.2-5.8-7-8-11.6l-0.9-1.9l-0.5-1l1,0.3l2.1,0.5
				c0.8,0.2,1.4,0.2,2.4,0.2c3.1,0,5.7-0.8,7.4-1.3l0.6-0.2l0.5-0.2c1.8-0.5,4.7-1.4,8.3-1.4c3.6,0,6.5,0.9,8.3,1.4L41,58
				c0.1,0,0.3,0.1,0.4,0.1l0.3,0.1c1.7,0.5,4.1,1.2,7.3,1.2c2.9,0,5.6-0.8,7.2-1.3l0.6-0.2l0.4-0.1l0.3-0.1c1.8-0.5,4.5-1.3,8.2-1.3
				c3.4,0,6.1,0.8,7.9,1.3c0.2,0.1,0.5,0.1,0.7,0.2l0,0l0,0l0.1,0c1.3,0.4,2.9,0.9,5,1.1l0,0l0,0c0.5,0,1,0.1,1.5,0.1l0.1,0
				c0.4,0,0.8,0.1,1.2,0.1c3.2,0,5.5-0.7,7.2-1.2l0.1,0l0.4-0.1l0.3-0.1l0.1,0l0.3-0.1l0.1-0.3c0.9-4.3,1.4-8.1,1.4-11.5
				C92.1,33.6,87.2,22,78.4,13.4z"></path>
		</g>
		<path class="st7" d="M110.8,13.1c0-3.9-1.9-7.9-12.5-7.9V2.7h34.9C153.4,2.7,169,8,169,24.6c0,11.1-7.2,16.6-17.3,18.8v0.2
			c11.1,2.2,21.7,9.1,21.7,21.7c0,15.7-13.5,23.6-33.9,23.6H98.3v-2.4c10.6,0,12.5-4.1,12.5-7.9V13.1L110.8,13.1z M124.3,77.1
			c0,4.6,1,7,10.6,7c13.5,0,23.6-4.1,23.6-19.3c0-15.7-15.4-18.3-27.7-18.3h-6.5V77.1L124.3,77.1z M134.9,41.2
			c13.2,0,20.9-5.5,20.9-16.1c0-9.9-6.3-15.4-15.4-17.1c-12-0.7-16.1-1-16.1,3.6v29.6H134.9L134.9,41.2z"></path>
		<path class="st7" d="M181.5,88.9v-2.4c9.6,0,11.6-4.1,11.6-7.9V13.1c0-3.9-1.9-7.9-11.6-7.9V2.7h33.7c33.2,0,53.5,14,53.5,43.3
			c0,26.5-17.8,42.9-52.5,42.9H181.5L181.5,88.9z M206.3,77.1c0,4.8,3.4,6.3,6.3,6.5c26.5,1.2,41.7-13.2,41.7-37.6
			c0-25.5-16.6-38.5-40.4-38.5c-6.3,0-7.5,0.2-7.5,6.5V77.1L206.3,77.1z"></path>
		<path class="st7" d="M288.5,13.1c0-3.9-2.2-7.9-10.8-7.9V2.7h32.7c20.2,0,35.9,9.1,35.9,24.6c0,19.3-16.6,27.9-33.2,27.9
			c-3.9,0-7.5-0.2-11.3-0.5v23.8c0,3.9,1.9,7.9,11.3,7.9v2.4H277v-2.4c9.4,0,11.6-4.1,11.6-7.9V13.1L288.5,13.1z M301.8,49.9
			c1.9,0,4.3,0.2,6.3,0.2c14.2,0,23.8-6.7,23.8-21.9c0-14.7-11.8-20.7-24.3-20.7c-5.5,0-5.8,0.5-5.8,6V49.9L301.8,49.9z"></path>
	</g>
</g>
<g id="CAPS_Bolded_-_Sans-Serif_Font__x28_Black_x29_" class="st0">
	<rect id="White_Rectangle" x="-2.7" y="-2.6" class="st7" width="351.6" height="132"></rect>
	<g id="PSA_Logo__x28_Blue_x29_" class="st2">
		
			<image style="overflow:visible;" width="2480" height="930" xlink:href="D6058A7555175883.png" transform="matrix(2.061827e-02 0 0 2.061827e-02 198.0641 102.0787)">
		</image>
	</g>
	<g id="Centralise" class="st2">
		<text transform="matrix(1 0 0 1 254.2375 121.0813)" class="st4 st5">GROUP</text>
		
			<text id="A_member_of_the_00000033345895053500515440000007722326502763978396_" transform="matrix(1 0 0 1 24.3938 121.0813)" class="st4 st5">A MEMBER OF THE</text>
		<g id="PSA_Logo__x28_Black_x29_">
			
				<image style="overflow:visible;" width="2480" height="930" xlink:href="D6058A755517588C.png" transform="matrix(2.091053e-02 0 0 2.091053e-02 196.5444 101.8539)">
			</image>
		</g>
		<g id="Single_Spacing_00000182514916343824672490000002159161319707198889_" class="st0">
			<rect x="248.4" y="114.1" class="st2" width="7" height="7"></rect>
			<rect x="189.5" y="114.1" class="st2" width="7" height="7"></rect>
		</g>
	</g>
	<g id="BDP_2_00000100367273320045313330000000777462995698456740_" class="st2">
		<g>
			<path d="M78.4,13.4C69.7,4.8,58.2,0,46,0C33.9,0,22.3,4.8,13.4,13.4C5.8,21,1.1,31.1,0.1,41.7l0,0.6h0.6h72.7h1.2l-0.9-0.9
				L48.3,16l-0.4-0.4L47.6,16l-5,5l-0.4,0.4l0.4,0.4l5,5.1l4.8,4.8l1.7,1.7l0.9,0.9h-1.2h-43H9.9l0.3-0.7l0.5-1.4
				c1.8-4.6,4.8-9.2,8.5-12.9C26.3,12,35.9,8.1,46,8.1c10.2,0,19.7,3.9,26.8,11.1C80,26.6,84,36.2,84,46c0,0.6-0.1,1.2-0.1,1.8
				l0,0.2l0,0.1c-0.1,0.6-0.1,1.1-0.1,1.6v1v0.5h-0.5h-1c-3.2,0-5.8-0.7-7.6-1.2c-0.4-0.1-0.8-0.2-1.1-0.3l-0.1,0L73,49.6l-0.5-0.1
				l-0.1,0c-1.7-0.5-4-1.2-6.9-1.2c-3.3,0-5.7,0.7-7.3,1.2c-0.3,0.1-0.5,0.1-0.7,0.2L57,49.9l-0.1,0c-1.9,0.5-4.7,1.4-8,1.4
				c-3.7,0-6.4-0.8-8.1-1.3l-0.3-0.1c-0.1,0-0.2-0.1-0.4-0.1l-0.6-0.2c-1.7-0.5-4.3-1.3-7.4-1.3c-3.1,0-5.7,0.8-7.4,1.3l-0.6,0.2
				l-0.5,0.2c-1.8,0.5-4.7,1.4-8.3,1.4c-3.6,0-6.5-0.9-8.3-1.4l-0.5-0.2l-0.6-0.2c-1.3-0.4-3.1-0.9-5.3-1.2L0,48.3L0,49
				C1,60.6,5.6,70.8,13.4,78.6c8.9,8.7,20.5,13.4,32.6,13.4c12.2,0,23.7-4.8,32.4-13.4C82.2,74.9,85,71,87.1,67l0.5-0.9l-1,0.2
				c-1.4,0.2-2.9,0.4-4.4,0.4c-3.2,0-5.8-0.7-7.6-1.2c-0.4-0.1-0.8-0.2-1.1-0.3l-0.1,0c-0.1,0-0.3-0.1-0.5-0.1l-0.2-0.1l-0.1,0
				c-1.7-0.5-4-1.2-6.9-1.2c-3.3,0-5.7,0.7-7.3,1.2c-0.3,0.1-0.5,0.1-0.7,0.2L57,65.3c-1.9,0.5-4.7,1.4-8,1.4
				c-3.7,0-6.4-0.8-8.1-1.3l-0.3-0.1c-0.1,0-0.2-0.1-0.4-0.1l-0.6-0.2c-1.7-0.5-4.3-1.3-7.4-1.3c-3.1,0-5.7,0.8-7.4,1.3l-0.6,0.2
				l0,0l-0.1,0c-0.4,0.1-0.9,0.2-1.4,0.4l-0.1,0c0,0-0.1,0-0.1,0l-0.8,0.2l0.5,0.6c1.7,2,3.8,3.8,6.2,5.6l0.2,0.1l0.2,0
				c0.9-0.2,2-0.4,3.4-0.4c3.6,0,6.5,0.9,8.3,1.4l0.5,0.2c0.1,0,0.3,0.1,0.4,0.1l0.3,0.1c1.7,0.5,4.1,1.2,7.3,1.2
				c2.9,0,5.6-0.8,7.2-1.3l0.6-0.2l0.2,0c0.2,0,0.4-0.1,0.6-0.2c1.8-0.5,4.5-1.3,8.1-1.3c2.1,0,3.8,0.4,4.3,0.5l1.9,0.5l0.9,0.2
				L72,73.6l-1.4,1.3C63.9,80.8,55.2,84,46,84C35.9,84,26.3,80,19.2,72.9c-3.2-3.2-5.8-7-8-11.6l-0.9-1.9l-0.5-1l1,0.3l2.1,0.5
				c0.8,0.2,1.4,0.2,2.4,0.2c3.1,0,5.7-0.8,7.4-1.3l0.6-0.2l0.5-0.2c1.8-0.5,4.7-1.4,8.3-1.4c3.6,0,6.5,0.9,8.3,1.4L41,58
				c0.1,0,0.3,0.1,0.4,0.1l0.3,0.1c1.7,0.5,4.1,1.2,7.3,1.2c2.9,0,5.6-0.8,7.2-1.3l0.6-0.2l0.4-0.1l0.3-0.1c1.8-0.5,4.5-1.3,8.2-1.3
				c3.4,0,6.1,0.8,7.9,1.3c0.2,0.1,0.5,0.1,0.7,0.2l0,0l0,0l0.1,0c1.3,0.4,2.9,0.9,5,1.1l0,0l0,0c0.5,0,1,0.1,1.5,0.1l0.1,0
				c0.4,0,0.8,0.1,1.2,0.1c3.2,0,5.5-0.7,7.2-1.2l0.1,0l0.4-0.1l0.3-0.1l0.1,0l0.3-0.1l0.1-0.3c0.9-4.3,1.4-8.1,1.4-11.5
				C92.1,33.6,87.2,22,78.4,13.4z"></path>
		</g>
		<path class="st1" d="M110.8,13.1c0-3.9-1.9-7.9-12.5-7.9V2.7h34.9C153.4,2.7,169,8,169,24.6c0,11.1-7.2,16.6-17.3,18.8v0.2
			c11.1,2.2,21.7,9.1,21.7,21.7c0,15.7-13.5,23.6-33.9,23.6H98.3v-2.4c10.6,0,12.5-4.1,12.5-7.9V13.1L110.8,13.1z M124.3,77.1
			c0,4.6,1,7,10.6,7c13.5,0,23.6-4.1,23.6-19.3c0-15.7-15.4-18.3-27.7-18.3h-6.5V77.1L124.3,77.1z M134.9,41.2
			c13.2,0,20.9-5.5,20.9-16.1c0-9.9-6.3-15.4-15.4-17.1c-12-0.7-16.1-1-16.1,3.6v29.6H134.9L134.9,41.2z"></path>
		<path class="st1" d="M181.5,88.9v-2.4c9.6,0,11.6-4.1,11.6-7.9V13.1c0-3.9-1.9-7.9-11.6-7.9V2.7h33.7c33.2,0,53.5,14,53.5,43.3
			c0,26.5-17.8,42.9-52.5,42.9H181.5L181.5,88.9z M206.3,77.1c0,4.8,3.4,6.3,6.3,6.5c26.5,1.2,41.7-13.2,41.7-37.6
			c0-25.5-16.6-38.5-40.4-38.5c-6.3,0-7.5,0.2-7.5,6.5V77.1L206.3,77.1z"></path>
		<path class="st1" d="M288.5,13.1c0-3.9-2.2-7.9-10.8-7.9V2.7h32.7c20.2,0,35.9,9.1,35.9,24.6c0,19.3-16.6,27.9-33.2,27.9
			c-3.9,0-7.5-0.2-11.3-0.5v23.8c0,3.9,1.9,7.9,11.3,7.9v2.4H277v-2.4c9.4,0,11.6-4.1,11.6-7.9V13.1L288.5,13.1z M301.8,49.9
			c1.9,0,4.3,0.2,6.3,0.2c14.2,0,23.8-6.7,23.8-21.9c0-14.7-11.8-20.7-24.3-20.7c-5.5,0-5.8,0.5-5.8,6V49.9L301.8,49.9z"></path>
	</g>
</g>
<rect id="White_Rectangle_00000012461487239592404110000013163963334514845610_" x="-2.7" y="-2.6" class="st8" width="351.6" height="132"></rect>
<g id="Center">
	<g>
		<path class="st9" d="M237.3,120.8C237.3,120.8,237.3,120.8,237.3,120.8c0.6-1.1,1-2.2,1.5-3.2c0-0.1,0.1-0.1,0.2-0.1
			c1.1,0,2.2,0,3.2,0c0.8,0,1.5,0,2.3,0c0.1,0,0.1,0,0.1,0.1c0.2,0.5,0.4,0.9,0.6,1.4c0.3,0.6,0.5,1.2,0.8,1.8c0,0,0,0.1,0.1,0.1
			h2.4c0,0,0,0,0-0.1c-1.1-2.4-2.2-4.8-3.3-7.1c-1-2.1-2-4.2-2.9-6.3c-0.1-0.3-0.3-0.6-0.4-0.9c0,0,0,0.1,0,0.1
			c-0.8,1.6-1.6,3.2-2.4,4.8c-0.6,1.2-1.2,2.5-1.8,3.7c-0.9,1.9-1.8,3.8-2.8,5.7c0,0.1,0,0.1,0,0.1H237.3z M241.8,111.4
			C241.8,111.4,241.8,111.4,241.8,111.4c0.6,1.3,1.2,2.6,1.8,3.8c0,0,0.1,0.1,0,0.1c-1.2,0-2.4,0-3.6,0c0,0,0,0-0.1,0
			C240.5,114,241.1,112.7,241.8,111.4z"></path>
		<path class="st9" d="M225.6,109.4c-0.2-0.5-0.5-0.9-0.9-1.3c-0.5-0.5-1.1-0.9-1.8-1c-0.7-0.2-1.5-0.2-2.2-0.2c-0.8,0-1.7,0-2.5,0
			c-0.1,0-0.1,0-0.1,0.1c0,2.3,0,4.6,0,6.9c0,2.3,0,4.6,0,6.9c0,0,0,0,0,0h2.3c0,0,0,0,0-0.1c0-1.8,0-3.5,0-5.3c0-0.1,0-0.1,0.1-0.1
			c0.3,0,0.5,0,0.8,0c0.6,0,1.1-0.1,1.7-0.2c0.9-0.2,1.7-0.7,2.3-1.4c0.5-0.7,0.7-1.4,0.8-2.3C225.9,110.7,225.8,110,225.6,109.4z
			 M223.4,112c-0.2,0.3-0.4,0.5-0.7,0.7c-0.4,0.2-0.8,0.3-1.2,0.3c-0.4,0-0.7,0-1.1,0c-0.1,0-0.1,0-0.1-0.1c0-0.6,0-1.3,0-1.9
			c0-0.6,0-1.3,0-1.9c0-0.1,0-0.1,0.1-0.1c0.2,0,0.5,0,0.7,0c0.5,0,1,0.1,1.5,0.3c0.2,0.1,0.4,0.2,0.6,0.4c0.2,0.2,0.3,0.4,0.4,0.7
			C223.7,110.9,223.7,111.5,223.4,112z"></path>
		<path class="st9" d="M235.2,116.4c0-0.6-0.2-1.1-0.4-1.7c-0.3-0.5-0.7-0.9-1.1-1.3c-0.3-0.2-0.6-0.4-0.9-0.6
			c-0.6-0.3-1.2-0.6-1.8-0.8c-0.4-0.2-0.9-0.3-1.2-0.6c-0.4-0.3-0.6-0.8-0.5-1.3c0.1-0.5,0.5-0.9,0.9-1.1c0.5-0.2,1-0.3,1.5-0.1
			c0.4,0.1,0.7,0.3,1,0.6c0.1,0.2,0.3,0.4,0.4,0.6c0,0.1,0,0.1,0.1,0c0.2-0.1,0.5-0.3,0.7-0.4c0.3-0.2,0.7-0.4,1-0.6
			c0.1,0,0.1-0.1,0-0.1c-0.3-0.5-0.7-1-1.2-1.4c-0.4-0.3-0.8-0.6-1.2-0.7c-0.7-0.3-1.4-0.3-2.2-0.2c-1.1,0.1-2,0.6-2.7,1.5
			c-0.9,1.1-1,2.3-0.5,3.5c0.2,0.5,0.6,0.9,1,1.3c0.4,0.4,0.9,0.7,1.4,0.9c0.3,0.2,0.7,0.3,1,0.4c0.5,0.2,1,0.4,1.5,0.7
			c0.4,0.3,0.7,0.6,0.8,1.1c0.1,0.3,0.1,0.6,0.1,0.9c-0.1,0.7-0.5,1.3-1.1,1.7c-0.7,0.3-1.3,0.3-2,0.1c-0.4-0.2-0.7-0.5-0.9-1
			c-0.1-0.2-0.1-0.4-0.2-0.6c0-0.2-0.1-0.5-0.1-0.8c0,0,0-0.1-0.1-0.1c-0.7,0.2-1.5,0.3-2.2,0.5c-0.1,0-0.1,0.1-0.1,0.1
			c0,0.3,0.1,0.6,0.2,0.8c0.3,1.1,1,2,1.9,2.7c0.8,0.5,1.6,0.7,2.5,0.7c0.2,0,0.3,0,0.5,0c1-0.1,1.8-0.5,2.5-1.1
			c0.5-0.4,0.8-0.9,1.1-1.4C235.1,117.9,235.2,117.2,235.2,116.4z"></path>
		<path class="st9" d="M215.1,107.9c-1.2-1.1-2.7-1.7-4.4-2c-0.1,0-0.1,0-0.1-0.1c-0.2-0.3-0.4-0.6-0.6-0.9
			c-0.6-0.9-1.4-1.7-2.3-2.3c-0.6-0.5-1.3-0.8-2.1-1c-0.2,0-0.3-0.1-0.5-0.1c-0.2,0-0.5,0-0.7,0c-0.2,0-0.3,0.1-0.5,0.1
			c-0.4,0.1-0.8,0.3-1.2,0.6c-0.6,0.5-0.9,1.1-1.1,1.9c-0.1,0.3-0.1,0.7-0.2,1c0,0.3,0,0.6,0,1c0,0.1,0,0.2,0,0.3c0,0,0-0.1,0.1-0.1
			c0.2-0.5,0.5-1,0.9-1.3c0.6-0.4,1.2-0.6,1.9-0.4c0.9,0.2,1.7,0.6,2.4,1.1c0.1,0.1,0.3,0.2,0.5,0.3c-0.4,0.1-0.8,0.1-1.1,0.2
			c-1,0.2-2,0.5-3,0.9c-0.8,0.3-1.5,0.7-2.2,1.3c-0.1,0-0.1,0-0.1,0c0-0.2-0.1-0.5-0.1-0.7c0-0.3-0.1-0.6-0.1-0.9c0-0.5,0-1,0-1.5
			c0-0.1,0-0.2,0-0.3c-0.1,0.2-0.1,0.3-0.2,0.5c-0.2,0.6-0.4,1.3-0.5,2c-0.1,0.4-0.1,0.8-0.1,1.2c0,0.2,0,0.3,0,0.5
			c0,0.1,0,0.1-0.1,0.2c-0.2,0.2-0.4,0.4-0.5,0.5c-0.2,0.2-0.4,0.4-0.6,0.7c-0.3,0.3-0.5,0.7-0.8,1.1c-0.3,0.5-0.6,1-0.8,1.5
			c-0.3,0.6-0.5,1.2-0.7,1.9c0,0,0,0.1,0,0.1c0,0,0,0,0,0c0,0,0.1,0,0.1-0.1c0.8-1.2,1.7-2.3,2.9-3.2c0.2-0.1,0.4-0.3,0.6-0.4
			c0.1,0,0.1,0,0.1,0c0.1,0.9,0.4,1.7,0.7,2.6c0,0.1,0,0.1,0,0.2c-0.6,0.5-1.1,1-1.5,1.6c-0.7,0.9-1.2,1.8-1.5,2.8c0,0,0,0.1,0,0.2
			c0,0,0,0,0,0c0.5-0.7,1-1.4,1.7-2c0.6-0.5,1.1-1,1.8-1.4c0.1-0.1,0.1,0,0.1,0c0.4,0.9,0.9,1.7,1.5,2.5c0.6,0.9,1.4,1.6,2.3,2.2
			c1,0.6,2,0.9,3.2,0.7c1.2-0.2,2-0.9,2.5-1.9c0.2-0.5,0.4-1,0.4-1.5c0.1-0.4,0.1-0.9,0.1-1.3c0,0,0,0,0,0c0,0,0,0,0,0
			c-0.1,0.5-0.3,0.9-0.7,1.2c-0.4,0.4-0.8,0.8-1.4,0.9c-0.6,0.2-1.2,0.1-1.8-0.1c-1-0.3-1.8-0.9-2.6-1.6c-0.6-0.5-1.1-1.2-1.6-1.9
			c0-0.1-0.1-0.1-0.1-0.2c0,0,0,0,0.1,0c0.9-0.2,1.8-0.4,2.7-0.3c0.7,0,1.4,0.1,2.1,0.4c0.4,0.2,0.8,0.4,1,0.8
			c0.1,0.2,0.2,0.5,0.1,0.7c0,0.2-0.2,0.3-0.3,0.5c0.4-0.1,0.8-0.2,1.1-0.5c0.7-0.5,1-1.7,0.2-2.5c-0.5-0.5-1-0.8-1.6-1
			c-1.3-0.4-2.6-0.4-3.9-0.2c-0.7,0.1-1.4,0.4-2.1,0.7c-0.1,0-0.1,0-0.1,0c-0.4-0.8-0.7-1.6-0.9-2.4c0-0.1,0-0.1,0.1-0.1
			c0.8-0.4,1.6-0.7,2.5-0.9c1.3-0.3,2.6-0.5,4-0.4c0.7,0,1.5,0.1,2.2,0.2c0,0,0.1,0,0.1,0.1c0.1,0.3,0.3,0.5,0.4,0.8
			c0.7,1.4,1,2.9,1.1,4.5c0,1.1,0,2.1-0.3,3.1c0,0.1-0.1,0.3-0.1,0.4c0,0,0,0,0,0c0.9-1.2,1.3-2.5,1.5-4c0.2-1.5,0-2.9-0.4-4.3
			c0,0,0,0,0,0c0.4,0.2,0.8,0.4,1.1,0.7c0.5,0.6,0.5,1.2,0.1,1.8c-0.1,0.1-0.2,0.2-0.3,0.3c0.1,0,0.1,0,0.1,0
			c0.7-0.1,1.3-0.4,1.8-0.8c0.8-0.7,1.1-1.9,0.6-2.8C215.9,108.7,215.6,108.2,215.1,107.9z"></path>
	</g>
	<g>
		<path class="st9" d="M268.9,109.4l-1.9,1.9c-1.2-1.3-2.6-1.9-4.2-1.9c-1.4,0-2.5,0.5-3.5,1.4c-0.9,0.9-1.4,2-1.4,3.3
			c0,1.4,0.5,2.5,1.4,3.4c1,0.9,2.2,1.4,3.6,1.4c0.9,0,1.7-0.2,2.3-0.6c0.6-0.4,1.1-1,1.5-1.8h-4.1V114h7l0,0.6c0,1.2-0.3,2.4-1,3.5
			c-0.6,1.1-1.5,1.9-2.5,2.5s-2.2,0.9-3.5,0.9c-1.5,0-2.7-0.3-3.9-0.9s-2-1.5-2.7-2.7c-0.7-1.2-1-2.4-1-3.8c0-1.9,0.6-3.5,1.8-4.8
			c1.5-1.6,3.3-2.4,5.7-2.4c1.2,0,2.4,0.2,3.4,0.7C267.1,107.8,268,108.4,268.9,109.4z"></path>
		<path class="st9" d="M272.5,107.1h2.8c1.5,0,2.6,0.1,3.3,0.4c0.7,0.3,1.2,0.7,1.6,1.4s0.6,1.4,0.6,2.3c0,0.9-0.2,1.7-0.7,2.3
			c-0.4,0.6-1.1,1.1-2,1.4l3.3,6.2h-2.9l-3.1-5.9h-0.2v5.9h-2.7V107.1z M275.2,112.6h0.8c0.8,0,1.4-0.1,1.8-0.3s0.5-0.6,0.5-1.1
			c0-0.3-0.1-0.6-0.2-0.8c-0.2-0.2-0.4-0.4-0.6-0.5s-0.8-0.1-1.5-0.1h-0.7V112.6z"></path>
		<path class="st9" d="M290.2,106.7c2,0,3.7,0.7,5.1,2.2c1.4,1.4,2.1,3.2,2.1,5.2c0,2-0.7,3.8-2.1,5.2c-1.4,1.4-3.1,2.1-5.1,2.1
			c-2.1,0-3.8-0.7-5.2-2.2s-2.1-3.2-2.1-5.2c0-1.3,0.3-2.6,1-3.7s1.5-2,2.7-2.7C287.7,107.1,288.9,106.7,290.2,106.7z M290.2,109.3
			c-1.3,0-2.4,0.5-3.3,1.4c-0.9,0.9-1.3,2-1.3,3.4c0,1.5,0.6,2.8,1.7,3.7c0.9,0.7,1.9,1.1,3,1.1c1.3,0,2.3-0.5,3.2-1.4
			c0.9-0.9,1.3-2,1.3-3.4c0-1.3-0.4-2.5-1.3-3.4C292.6,109.8,291.5,109.3,290.2,109.3z"></path>
		<path class="st9" d="M299.9,107.1h2.7v9.1c0,0.8,0.1,1.3,0.2,1.7c0.1,0.3,0.4,0.6,0.7,0.8c0.3,0.2,0.7,0.3,1.1,0.3
			c0.5,0,0.9-0.1,1.2-0.3c0.3-0.2,0.6-0.5,0.7-0.8c0.1-0.3,0.2-1,0.2-1.9v-8.7h2.7v8.3c0,1.4-0.1,2.4-0.2,2.9
			c-0.2,0.5-0.5,1.1-0.9,1.6c-0.4,0.5-1,0.9-1.5,1.1s-1.3,0.4-2,0.4c-1,0-1.9-0.2-2.7-0.7c-0.8-0.5-1.3-1-1.6-1.8s-0.5-1.9-0.5-3.6
			V107.1z"></path>
		<path class="st9" d="M312.5,107.1h2.8c1.5,0,2.6,0.1,3.3,0.4s1.2,0.7,1.6,1.4c0.4,0.6,0.6,1.4,0.6,2.3c0,1-0.3,1.8-0.8,2.4
			s-1.2,1.1-2.1,1.4c-0.5,0.1-1.5,0.2-2.8,0.2v5.9h-2.7V107.1z M315.1,112.6h0.8c0.7,0,1.1,0,1.4-0.1c0.3-0.1,0.5-0.3,0.6-0.5
			c0.1-0.2,0.2-0.5,0.2-0.8c0-0.5-0.2-0.9-0.6-1.2c-0.3-0.2-0.9-0.3-1.7-0.3h-0.8V112.6z"></path>
	</g>
	<g>
		<path class="st9" d="M30.1,107.1h2.7l5.4,14h-2.8l-1.1-2.9h-5.7l-1.1,2.9h-2.8L30.1,107.1z M31.5,110.8l-1.9,4.8h3.7L31.5,110.8z"></path>
		<path class="st9" d="M47.1,107.1h2.6l3.2,9.8l3.3-9.8h2.6l2.3,14h-2.6l-1.5-8.8l-3,8.8h-2.3l-2.9-8.8l-1.5,8.8h-2.6L47.1,107.1z"></path>
		<path class="st9" d="M63.3,107.1h7.6v2.6h-5v2.5h5v2.6h-5v3.7h5v2.6h-7.6V107.1z"></path>
		<path class="st9" d="M74.8,107.1h2.6l3.2,9.8l3.3-9.8h2.6l2.3,14h-2.6l-1.5-8.8l-3,8.8h-2.3l-2.9-8.8l-1.5,8.8h-2.6L74.8,107.1z"></path>
		<path class="st9" d="M91,121.1v-14h2.2c1.3,0,2.2,0.1,2.8,0.2c0.8,0.2,1.5,0.6,2,1.2c0.5,0.6,0.7,1.3,0.7,2.1c0,0.5-0.1,1-0.3,1.5
			s-0.6,0.8-1.1,1.2c0.9,0.4,1.5,0.9,1.9,1.5s0.6,1.3,0.6,2.1c0,0.8-0.2,1.5-0.6,2.2c-0.4,0.6-0.9,1.1-1.6,1.5
			c-0.6,0.3-1.5,0.5-2.7,0.5H91z M93.6,109.6v3h0.6c0.6,0,1.1-0.1,1.4-0.4s0.5-0.6,0.5-1.1c0-0.4-0.1-0.8-0.4-1s-0.8-0.4-1.4-0.4
			H93.6z M93.6,114.9v3.6h0.7c1.1,0,1.9-0.1,2.2-0.4c0.4-0.3,0.6-0.7,0.6-1.2c0-0.6-0.2-1.1-0.7-1.4c-0.5-0.3-1.2-0.5-2.3-0.5H93.6z
			"></path>
		<path class="st9" d="M102.3,107.1h7.6v2.6h-5v2.5h5v2.6h-5v3.7h5v2.6h-7.6V107.1z"></path>
		<path class="st9" d="M112.6,107.1h2.8c1.5,0,2.6,0.1,3.3,0.4c0.7,0.3,1.2,0.7,1.6,1.4c0.4,0.6,0.6,1.4,0.6,2.3
			c0,0.9-0.2,1.7-0.7,2.3c-0.4,0.6-1.1,1.1-2,1.4l3.3,6.2h-2.9l-3.1-5.9h-0.2v5.9h-2.7V107.1z M115.2,112.6h0.8
			c0.8,0,1.4-0.1,1.8-0.3s0.5-0.6,0.5-1.1c0-0.3-0.1-0.6-0.2-0.8c-0.2-0.2-0.4-0.4-0.6-0.5s-0.8-0.1-1.5-0.1h-0.7V112.6z"></path>
		<path class="st9" d="M135.8,106.7c2,0,3.7,0.7,5.1,2.2c1.4,1.4,2.1,3.2,2.1,5.2c0,2-0.7,3.8-2.1,5.2c-1.4,1.4-3.1,2.1-5.1,2.1
			c-2.1,0-3.8-0.7-5.2-2.2c-1.4-1.5-2.1-3.2-2.1-5.2c0-1.3,0.3-2.6,1-3.7s1.5-2,2.7-2.7C133.2,107.1,134.5,106.7,135.8,106.7z
			 M135.7,109.3c-1.3,0-2.4,0.5-3.3,1.4c-0.9,0.9-1.3,2-1.3,3.4c0,1.5,0.6,2.8,1.7,3.7c0.9,0.7,1.9,1.1,3,1.1c1.3,0,2.3-0.5,3.2-1.4
			c0.9-0.9,1.3-2,1.3-3.4c0-1.3-0.4-2.5-1.3-3.4C138.1,109.8,137,109.3,135.7,109.3z"></path>
		<path class="st9" d="M145.6,107.1h6.9v2.6h-4.3v2.5h4.3v2.6h-4.3v6.3h-2.6V107.1z"></path>
		<path class="st9" d="M159,107.1h7.7v2.6h-2.6v11.4h-2.7v-11.4H159V107.1z"></path>
		<path class="st9" d="M168.5,107.1h2.7v5.3h4.7v-5.3h2.7v14h-2.7v-6.1h-4.7v6.1h-2.7V107.1z"></path>
		<path class="st9" d="M181.8,107.1h7.6v2.6h-5v2.5h5v2.6h-5v3.7h5v2.6h-7.6V107.1z"></path>
	</g>
</g>
<g id="BDP_2_00000127734484966256644310000009681297593072334490_">
	<g>
		<path class="st9" d="M78.4,13.4C69.7,4.8,58.2,0,46,0C33.9,0,22.3,4.8,13.4,13.4C5.8,21.1,1.1,31.1,0.1,41.7l0,0.6h0.6h72.7h1.2
			l-0.9-0.9L48.3,16l-0.4-0.4L47.6,16l-5,5l-0.4,0.4l0.4,0.4l5,5.1l4.8,4.8l1.7,1.7l0.9,0.9h-1.2h-43H9.9l0.3-0.7l0.5-1.4
			c1.8-4.6,4.8-9.2,8.5-12.9C26.3,12.1,35.9,8.1,46,8.1c10.2,0,19.7,3.9,26.8,11.1C80,26.6,84,36.2,84,46c0,0.6-0.1,1.2-0.1,1.8
			l0,0.2l0,0.1c-0.1,0.6-0.1,1.1-0.1,1.6v1v0.5h-0.5h-1c-3.2,0-5.8-0.7-7.6-1.2c-0.4-0.1-0.8-0.2-1.1-0.3l-0.1,0L73,49.6l-0.5-0.1
			l-0.1,0c-1.7-0.5-4-1.2-6.9-1.2c-3.3,0-5.7,0.7-7.3,1.2c-0.3,0.1-0.5,0.1-0.7,0.2L57,49.9l-0.1,0c-1.9,0.5-4.7,1.4-8,1.4
			c-3.7,0-6.4-0.8-8.1-1.3l-0.3-0.1c-0.1,0-0.2-0.1-0.4-0.1l-0.6-0.2c-1.7-0.5-4.3-1.3-7.4-1.3c-3.1,0-5.7,0.8-7.4,1.3l-0.6,0.2
			l-0.5,0.2c-1.8,0.5-4.7,1.4-8.3,1.4c-3.6,0-6.5-0.9-8.3-1.4l-0.5-0.2l-0.6-0.2c-1.3-0.4-3.1-0.9-5.3-1.2L0,48.4L0,49
			C1,60.6,5.6,70.9,13.4,78.7c8.9,8.7,20.5,13.4,32.6,13.4c12.2,0,23.7-4.8,32.4-13.4c3.8-3.8,6.6-7.6,8.7-11.7l0.5-0.9l-1,0.2
			c-1.4,0.2-2.9,0.4-4.4,0.4c-3.2,0-5.8-0.7-7.6-1.2c-0.4-0.1-0.8-0.2-1.1-0.3l-0.1,0c-0.1,0-0.3-0.1-0.5-0.1l-0.2-0.1l-0.1,0
			c-1.7-0.5-4-1.2-6.9-1.2c-3.3,0-5.7,0.7-7.3,1.2c-0.3,0.1-0.5,0.1-0.7,0.2L57,65.3c-1.9,0.5-4.7,1.4-8,1.4c-3.7,0-6.4-0.8-8.1-1.3
			l-0.3-0.1c-0.1,0-0.2-0.1-0.4-0.1l-0.6-0.2c-1.7-0.5-4.3-1.3-7.4-1.3c-3.1,0-5.7,0.8-7.4,1.3l-0.6,0.2l0,0l-0.1,0
			c-0.4,0.1-0.9,0.2-1.4,0.4l-0.1,0c0,0-0.1,0-0.1,0l-0.8,0.2l0.5,0.6c1.7,2,3.8,3.8,6.2,5.6l0.2,0.1l0.2,0c0.9-0.2,2-0.4,3.4-0.4
			c3.6,0,6.5,0.9,8.3,1.4l0.5,0.2c0.1,0,0.3,0.1,0.4,0.1l0.3,0.1c1.7,0.5,4.1,1.2,7.3,1.2c2.9,0,5.6-0.8,7.2-1.3l0.6-0.2l0.2,0
			c0.2,0,0.4-0.1,0.6-0.2c1.8-0.5,4.5-1.3,8.1-1.3c2.1,0,3.8,0.4,4.3,0.5l1.9,0.5l0.9,0.2L72,73.7l-1.4,1.3C63.9,80.8,55.2,84,46,84
			C35.9,84,26.3,80,19.2,72.9c-3.2-3.2-5.8-7-8-11.6l-0.9-1.9l-0.5-1l1,0.3l2.1,0.5c0.8,0.2,1.4,0.2,2.4,0.2c3.1,0,5.7-0.8,7.4-1.3
			l0.6-0.2l0.5-0.2c1.8-0.5,4.7-1.4,8.3-1.4c3.6,0,6.5,0.9,8.3,1.4L41,58c0.1,0,0.3,0.1,0.4,0.1l0.3,0.1c1.7,0.5,4.1,1.2,7.3,1.2
			c2.9,0,5.6-0.8,7.2-1.3l0.6-0.2l0.4-0.1l0.3-0.1c1.8-0.5,4.5-1.3,8.2-1.3c3.4,0,6.1,0.8,7.9,1.3c0.2,0.1,0.5,0.1,0.7,0.2l0,0l0,0
			l0.1,0c1.3,0.4,2.9,0.9,5,1.1l0,0l0,0c0.5,0,1,0.1,1.5,0.1l0.1,0c0.4,0,0.8,0.1,1.2,0.1c3.2,0,5.5-0.7,7.2-1.2l0.1,0l0.4-0.1
			l0.3-0.1l0.1,0l0.3-0.1l0.1-0.3c0.9-4.3,1.4-8.1,1.4-11.5C92.1,33.6,87.2,22,78.4,13.4z"></path>
	</g>
	<path class="st10" d="M110.8,13.1c0-3.9-1.9-7.9-12.5-7.9V2.7h34.9C153.4,2.7,169,8,169,24.6c0,11.1-7.2,16.6-17.3,18.8v0.2
		c11.1,2.2,21.7,9.1,21.7,21.7c0,15.7-13.5,23.6-33.9,23.6H98.3v-2.4c10.6,0,12.5-4.1,12.5-7.9V13.1L110.8,13.1z M124.3,77.1
		c0,4.6,1,7,10.6,7c13.5,0,23.6-4.1,23.6-19.3c0-15.7-15.4-18.3-27.7-18.3h-6.5V77.1L124.3,77.1z M134.9,41.3
		c13.2,0,20.9-5.5,20.9-16.1c0-9.9-6.3-15.4-15.4-17.1c-12-0.7-16.1-1-16.1,3.6v29.6H134.9L134.9,41.3z"></path>
	<path class="st10" d="M181.5,88.9v-2.4c9.6,0,11.6-4.1,11.6-7.9V13.1c0-3.9-1.9-7.9-11.6-7.9V2.7h33.7c33.2,0,53.5,14,53.5,43.3
		c0,26.5-17.8,42.9-52.5,42.9H181.5L181.5,88.9z M206.3,77.1c0,4.8,3.4,6.3,6.3,6.5c26.5,1.2,41.7-13.2,41.7-37.6
		c0-25.5-16.6-38.5-40.4-38.5c-6.3,0-7.5,0.2-7.5,6.5V77.1L206.3,77.1z"></path>
	<path class="st10" d="M288.5,13.1c0-3.9-2.2-7.9-10.8-7.9V2.7h32.7c20.2,0,35.9,9.1,35.9,24.6c0,19.3-16.6,27.9-33.2,27.9
		c-3.9,0-7.5-0.2-11.3-0.5v23.8c0,3.9,1.9,7.9,11.3,7.9v2.4H277v-2.4c9.4,0,11.6-4.1,11.6-7.9V13.1L288.5,13.1z M301.8,49.9
		c1.9,0,4.3,0.2,6.3,0.2c14.2,0,23.8-6.7,23.8-21.9c0-14.7-11.8-20.7-24.3-20.7c-5.5,0-5.8,0.5-5.8,6V49.9L301.8,49.9z"></path>
</g>
<g id="Single_Spacing_00000034782520666423740420000012247506833631225266_" class="st0">
	<rect x="248.5" y="114.1" class="st11" width="7" height="7"></rect>
	<rect x="189.4" y="114.1" class="st11" width="7" height="7"></rect>
</g>
<path id="International" class="st12" d="M5.6,121.2H7v-14H5.6V121.2L5.6,121.2z M26.7,121.2h1.4v-12.1h0l7,12.1H37v-14h-1.4v12.3h0
	l-7.1-12.3h-1.7V121.2L26.7,121.2z M59.5,121.2h1.4v-12.8h4.1v-1.2h-9.6v1.2h4.1V121.2L59.5,121.2z M83.6,121.2h7.1V120H85v-5.4h5.2
	v-1.2H85v-5h5.5v-1.2h-6.9V121.2L83.6,121.2z M111.7,108.4h1.4c1.9,0,3.5,0.1,3.5,2.4c0,1.9-1.9,2.6-3.5,2.6h-1.5V108.4L111.7,108.4
	z M110.3,121.2h1.4v-6.6h1.1c1.3,0,1.9,0.1,2.7,1.9l2,4.7h1.5l-2.4-5.4c-0.4-0.9-0.7-1.5-1.8-1.7v0c1.7-0.2,3.1-1.4,3.1-3.2
	c0-2.6-1.6-3.6-4.1-3.6h-3.6V121.2L110.3,121.2z M137.9,121.2h1.4v-12.1h0l7,12.1h1.9v-14h-1.4v12.3h0l-7.1-12.3h-1.7V121.2
	L137.9,121.2z M166.7,121.2h1.3l1.5-3.7h7.1l1.5,3.7h1.4l-5.5-14h-1.6L166.7,121.2L166.7,121.2z M176.1,116.2H170l3-7.7L176.1,116.2
	L176.1,116.2z M199.4,121.2h1.4v-12.8h4.1v-1.2h-9.6v1.2h4.1V121.2L199.4,121.2z M223.3,121.2h1.4v-14h-1.4V121.2L223.3,121.2z
	 M243.9,114.2c0,4.3,2.1,7.2,6.1,7.2c4,0,6.1-2.9,6.1-7.2c0-3.8-1.9-7.2-6.1-7.2C245.9,107,243.9,110.4,243.9,114.2L243.9,114.2z
	 M250.1,108.2c3.3,0,4.8,3.1,4.8,6c0,3-1.5,6-4.8,6c-3.3,0-4.8-3.1-4.8-6C245.3,111.2,246.8,108.2,250.1,108.2L250.1,108.2z
	 M275.5,121.2h1.4v-12.1h0l7,12.1h1.9v-14h-1.4v12.3h0l-7.1-12.3h-1.7V121.2L275.5,121.2z M304.3,121.2h1.3l1.5-3.7h7.1l1.5,3.7h1.4
	l-5.5-14H310L304.3,121.2L304.3,121.2z M313.7,116.2h-6.1l3-7.7L313.7,116.2L313.7,116.2z M335.6,121.2h7V120H337v-12.8h-1.4V121.2
	L335.6,121.2z"></path>
<g id="BDP" class="st0">
	<g class="st2">
		<path class="st9" d="M78.4,13.4C69.7,4.8,58.2,0,46,0C33.9,0,22.3,4.8,13.4,13.4C5.8,21,1.1,31.1,0.1,41.7l0,0.6h0.6h72.7h1.2
			l-0.9-0.9L48.3,16l-0.4-0.4L47.6,16l-5,5l-0.4,0.4l0.4,0.4l5,5.1l4.8,4.8l1.7,1.7l0.9,0.9h-1.2h-43H9.9l0.3-0.7l0.5-1.4
			c1.8-4.6,4.8-9.2,8.5-12.9C26.3,12,35.9,8.1,46,8.1c10.2,0,19.7,3.9,26.8,11.1C80,26.6,84,36.2,84,46c0,0.6-0.1,1.2-0.1,1.8l0,0.2
			l0,0.1c-0.1,0.6-0.1,1.1-0.1,1.6v1v0.5h-0.5h-1c-3.2,0-5.8-0.7-7.6-1.2c-0.4-0.1-0.8-0.2-1.1-0.3l-0.1,0L73,49.6l-0.5-0.1l-0.1,0
			c-1.7-0.5-4-1.2-6.9-1.2c-3.3,0-5.7,0.7-7.3,1.2c-0.3,0.1-0.5,0.1-0.7,0.2L57,49.9l-0.1,0c-1.9,0.5-4.7,1.4-8,1.4
			c-3.7,0-6.4-0.8-8.1-1.3l-0.3-0.1c-0.1,0-0.2-0.1-0.4-0.1l-0.6-0.2c-1.7-0.5-4.3-1.3-7.4-1.3c-3.1,0-5.7,0.8-7.4,1.3l-0.6,0.2
			l-0.5,0.2c-1.8,0.5-4.7,1.4-8.3,1.4c-3.6,0-6.5-0.9-8.3-1.4l-0.5-0.2l-0.6-0.2c-1.3-0.4-3.1-0.9-5.3-1.2L0,48.3L0,49
			C1,60.6,5.6,70.8,13.4,78.6c8.9,8.7,20.5,13.4,32.6,13.4c12.2,0,23.7-4.8,32.4-13.4C82.2,74.9,85,71,87.1,67l0.5-0.9l-1,0.2
			c-1.4,0.2-2.9,0.4-4.4,0.4c-3.2,0-5.8-0.7-7.6-1.2c-0.4-0.1-0.8-0.2-1.1-0.3l-0.1,0c-0.1,0-0.3-0.1-0.5-0.1l-0.2-0.1l-0.1,0
			c-1.7-0.5-4-1.2-6.9-1.2c-3.3,0-5.7,0.7-7.3,1.2c-0.3,0.1-0.5,0.1-0.7,0.2L57,65.3c-1.9,0.5-4.7,1.4-8,1.4c-3.7,0-6.4-0.8-8.1-1.3
			l-0.3-0.1c-0.1,0-0.2-0.1-0.4-0.1l-0.6-0.2c-1.7-0.5-4.3-1.3-7.4-1.3c-3.1,0-5.7,0.8-7.4,1.3l-0.6,0.2l0,0l-0.1,0
			c-0.4,0.1-0.9,0.2-1.4,0.4l-0.1,0c0,0-0.1,0-0.1,0l-0.8,0.2l0.5,0.6c1.7,2,3.8,3.8,6.2,5.6l0.2,0.1l0.2,0c0.9-0.2,2-0.4,3.4-0.4
			c3.6,0,6.5,0.9,8.3,1.4l0.5,0.2c0.1,0,0.3,0.1,0.4,0.1l0.3,0.1c1.7,0.5,4.1,1.2,7.3,1.2c2.9,0,5.6-0.8,7.2-1.3l0.6-0.2l0.2,0
			c0.2,0,0.4-0.1,0.6-0.2c1.8-0.5,4.5-1.3,8.1-1.3c2.1,0,3.8,0.4,4.3,0.5l1.9,0.5l0.9,0.2L72,73.6l-1.4,1.3C63.9,80.8,55.2,84,46,84
			C35.9,84,26.3,80,19.2,72.9c-3.2-3.2-5.8-7-8-11.6l-0.9-1.9l-0.5-1l1,0.3l2.1,0.5c0.8,0.2,1.4,0.2,2.4,0.2c3.1,0,5.7-0.8,7.4-1.3
			l0.6-0.2l0.5-0.2c1.8-0.5,4.7-1.4,8.3-1.4c3.6,0,6.5,0.9,8.3,1.4L41,58c0.1,0,0.3,0.1,0.4,0.1l0.3,0.1c1.7,0.5,4.1,1.2,7.3,1.2
			c2.9,0,5.6-0.8,7.2-1.3l0.6-0.2l0.4-0.1l0.3-0.1c1.8-0.5,4.5-1.3,8.2-1.3c3.4,0,6.1,0.8,7.9,1.3c0.2,0.1,0.5,0.1,0.7,0.2l0,0l0,0
			l0.1,0c1.3,0.4,2.9,0.9,5,1.1l0,0l0,0c0.5,0,1,0.1,1.5,0.1l0.1,0c0.4,0,0.8,0.1,1.2,0.1c3.2,0,5.5-0.7,7.2-1.2l0.1,0l0.4-0.1
			l0.3-0.1l0.1,0l0.3-0.1l0.1-0.3c0.9-4.3,1.4-8.1,1.4-11.5C92.1,33.6,87.2,22,78.4,13.4z"></path>
	</g>
	<path class="st13" d="M110.8,13.1c0-3.9-1.9-7.9-12.5-7.9V2.7h34.9C153.4,2.7,169,8,169,24.6c0,11.1-7.2,16.6-17.3,18.8v0.2
		c11.1,2.2,21.7,9.1,21.7,21.7c0,15.7-13.5,23.6-33.9,23.6H98.3v-2.4c10.6,0,12.5-4.1,12.5-7.9V13.1L110.8,13.1z M124.3,77.1
		c0,4.6,1,7,10.6,7c13.5,0,23.6-4.1,23.6-19.3c0-15.7-15.4-18.3-27.7-18.3h-6.5V77.1L124.3,77.1z M134.9,41.2
		c13.2,0,20.9-5.5,20.9-16.1c0-9.9-6.3-15.4-15.4-17.1c-12-0.7-16.1-1-16.1,3.6v29.6H134.9L134.9,41.2z"></path>
	<path class="st13" d="M181.5,88.9v-2.4c9.6,0,11.6-4.1,11.6-7.9V13.1c0-3.9-1.9-7.9-11.6-7.9V2.7h33.7c33.2,0,53.5,14,53.5,43.3
		c0,26.5-17.8,42.9-52.5,42.9H181.5L181.5,88.9z M206.3,77.1c0,4.8,3.4,6.3,6.3,6.5c26.5,1.2,41.7-13.2,41.7-37.6
		c0-25.5-16.6-38.5-40.4-38.5c-6.3,0-7.5,0.2-7.5,6.5V77.1L206.3,77.1z"></path>
	<path class="st13" d="M288.5,13.1c0-3.9-2.2-7.9-10.8-7.9V2.7h32.7c20.2,0,35.9,9.1,35.9,24.6c0,19.3-16.6,27.9-33.2,27.9
		c-3.9,0-7.5-0.2-11.3-0.5v23.8c0,3.9,1.9,7.9,11.3,7.9v2.4H277v-2.4c9.4,0,11.6-4.1,11.6-7.9V13.1L288.5,13.1z M301.8,49.9
		c1.9,0,4.3,0.2,6.3,0.2c14.2,0,23.8-6.7,23.8-21.9c0-14.7-11.8-20.7-24.3-20.7c-5.5,0-5.8,0.5-5.8,6V49.9L301.8,49.9z"></path>
</g>
<rect x="192.1" y="104.1" class="st0" width="74" height="17"></rect>
</svg>