<svg width="400" height="400" viewBox="0 0 400 400" fill="none" xmlns="http://www.w3.org/2000/svg">
<path d="M378.005 235.614C376.69 219.265 358.509 196.314 340.032 190.007C316.433 181.911 301.475 194.743 279.874 192.394C221.466 186.038 205.895 144.753 182.742 107.34C131.413 24.4179 -10.5831 59.9153 6.16413 168.156C16.2382 233.246 85.155 331.898 188.189 267.191C232.677 239.21 219.173 222.979 266.409 248.102C285.054 258.005 383.976 309.655 378.005 235.614Z" fill="#D2ECFC"/>
<path opacity="0.5" d="M196.139 368C302.003 368 387.823 363.021 387.823 356.878C387.823 350.736 302.003 345.757 196.139 345.757C90.2752 345.757 4.45544 350.736 4.45544 356.878C4.45544 363.021 90.2752 368 196.139 368Z" fill="#D1DBF4"/>
<path d="M34.385 337.582C29.3331 337.582 18.8142 337.582 18.6362 330.193C18.4978 324.397 25.7148 321.99 31.9431 321.695C32.6332 321.662 33.323 321.764 33.9732 321.996C34.6235 322.228 35.2214 322.585 35.7327 323.047C36.2441 323.508 36.6589 324.066 36.9535 324.687C37.2481 325.308 37.4167 325.98 37.4497 326.666V327.059C44.5085 326.725 49.0759 325.193 50.7467 322.579C54.5133 316.684 47.2964 301.465 40.3266 286.757C32.121 269.456 22.828 249.855 22.65 231.08C22.6435 230.393 22.7731 229.712 23.0314 229.076C23.2897 228.439 23.6717 227.859 24.1555 227.369C24.6393 226.879 25.2155 226.489 25.8511 226.22C26.4867 225.952 27.1694 225.81 27.8601 225.804C29.2457 225.806 30.5745 226.351 31.5589 227.32C32.5433 228.289 33.1039 229.605 33.1195 230.981C33.2777 247.468 42.0171 265.968 49.7877 282.297C58.6853 301.141 66.446 317.421 59.5751 328.179C55.5909 334.507 47.3359 337.582 34.385 337.582Z" fill="#2D74FF"/>
<path d="M27.9094 236.258C26.5231 236.258 25.1927 235.714 24.2078 234.744C23.2229 233.774 22.663 232.458 22.65 231.08C22.5116 217.128 27.1877 205.348 36.1743 197.017C47.237 186.76 64.4884 181.995 84.775 183.586C99.0012 184.706 108.126 181.268 118.685 177.269C120.425 176.62 122.175 175.952 123.974 175.304C125.285 174.83 126.732 174.892 127.996 175.478C129.261 176.064 130.239 177.125 130.716 178.428C131.193 179.731 131.13 181.169 130.541 182.426C129.951 183.682 128.883 184.655 127.572 185.129C125.823 185.758 124.122 186.406 122.432 187.045C111.665 191.112 100.543 195.307 83.9445 194.01C66.6436 192.645 52.2295 196.427 43.3517 204.661C36.4313 211.027 33.0601 219.879 33.1689 230.982C33.1754 231.668 33.0458 232.349 32.7875 232.986C32.5292 233.622 32.1473 234.202 31.6635 234.692C31.1797 235.182 30.6035 235.572 29.9678 235.841C29.3322 236.11 28.6496 236.251 27.9589 236.258H27.9094Z" fill="#2D74FF"/>
<path d="M149.545 192.51L128.389 200.212C126.624 200.854 124.674 200.774 122.968 199.988C121.263 199.202 119.941 197.775 119.295 196.02L110.558 172.32C109.912 170.566 109.993 168.628 110.784 166.934C111.575 165.239 113.011 163.925 114.776 163.283L135.932 155.581L149.534 192.482L149.545 192.51Z" fill="#2D74FF"/>
<path opacity="0.7" d="M149.545 192.51L128.389 200.212C126.624 200.854 124.674 200.774 122.968 199.988C121.263 199.202 119.941 197.775 119.295 196.02L110.558 172.32C109.912 170.566 109.993 168.628 110.784 166.934C111.575 165.239 113.011 163.925 114.776 163.283L135.932 155.581L149.534 192.482L149.545 192.51Z" fill="white"/>
<path opacity="0.2" d="M126.505 159.005L135.946 155.576L149.549 192.498L140.108 195.937C139.48 195.333 138.999 194.593 138.704 193.775L126.841 161.56C126.531 160.746 126.415 159.871 126.505 159.005Z" fill="#2D74FF"/>
<path d="M157.148 164.773L156.22 165.111L158.485 171.255L159.413 170.917L157.148 164.773Z" fill="#2D74FF"/>
<path d="M154.789 161.284L151.458 152.225C150.886 150.689 149.855 149.364 148.503 148.428C147.151 147.492 145.543 146.989 143.895 146.989C142.957 146.986 142.027 147.149 141.146 147.47L135.136 149.661L134.79 148.737L140.81 146.547C141.798 146.187 142.843 146.004 143.895 146.006C145.746 146.01 147.552 146.578 149.07 147.631C150.588 148.685 151.746 150.175 152.387 151.901L155.719 160.96L154.789 161.284Z" fill="#2D74FF"/>
<path d="M149.709 195.156L158.537 191.982C161.422 190.945 162.914 187.781 161.871 184.914L149.888 151.99C148.845 149.124 145.661 147.64 142.776 148.677L133.948 151.851C131.063 152.887 129.571 156.052 130.614 158.918L142.597 191.843C143.64 194.709 146.825 196.192 149.709 195.156Z" fill="#2D74FF"/>
<path d="M144.656 161.981C144.857 162.529 144.891 163.124 144.752 163.691C144.613 164.258 144.308 164.771 143.876 165.165C143.444 165.56 142.903 165.818 142.323 165.907C141.743 165.996 141.149 165.912 140.617 165.665C140.085 165.419 139.639 165.021 139.335 164.522C139.03 164.023 138.882 163.446 138.907 162.863C138.933 162.281 139.133 161.719 139.48 161.249C139.828 160.778 140.308 160.421 140.86 160.223C141.598 159.957 142.412 159.992 143.123 160.322C143.835 160.652 144.386 161.248 144.656 161.981Z" fill="#263238"/>
<path d="M152.041 182.015C152.242 182.562 152.275 183.157 152.135 183.723C151.996 184.289 151.692 184.801 151.26 185.195C150.828 185.59 150.288 185.847 149.708 185.937C149.129 186.026 148.536 185.942 148.004 185.697C147.472 185.451 147.026 185.054 146.721 184.556C146.416 184.058 146.266 183.482 146.291 182.9C146.316 182.317 146.513 181.756 146.859 181.285C147.205 180.814 147.684 180.456 148.235 180.256C148.601 180.123 148.99 180.063 149.379 180.079C149.769 180.095 150.151 180.188 150.505 180.351C150.858 180.515 151.176 180.746 151.439 181.031C151.703 181.316 151.907 181.651 152.041 182.015Z" fill="#263238"/>
<path d="M367.458 340.362C358.748 340.362 350.186 338.584 346.034 333.2C326.38 307.655 326.558 256.271 326.726 206.547C326.825 179.774 328.951 154.475 325.955 134.825C324.196 123.242 318.046 115.293 311.838 111.186C302.624 105.134 289.969 108.386 284.562 109.772C283.888 109.959 283.184 110.01 282.49 109.924C281.796 109.837 281.126 109.613 280.52 109.266C279.914 108.919 279.384 108.455 278.961 107.902C278.537 107.349 278.229 106.718 278.054 106.045C277.879 105.372 277.841 104.671 277.942 103.983C278.043 103.295 278.281 102.634 278.642 102.039C279.003 101.444 279.48 100.926 280.045 100.516C280.61 100.106 281.251 99.8124 281.932 99.6519C288.684 97.9129 304.522 93.8552 317.631 102.462C326.479 108.268 334.131 118.634 336.356 133.263C339.47 153.699 337.344 179.371 337.245 206.547C337.077 254.522 336.909 304.128 354.388 326.814C355.802 328.641 361.308 330.282 370.453 329.81C371.264 329.81 372.055 329.722 372.836 329.653C372.482 328.941 372.299 328.158 372.302 327.364C372.302 325.978 372.856 324.648 373.842 323.668C374.829 322.688 376.166 322.137 377.561 322.137C389.059 322.137 395.109 323.12 396.276 328.346C396.612 329.85 396.79 333.622 391.234 336.206C387.082 338.142 377.176 340.362 367.458 340.362Z" fill="#2D74FF"/>
<path d="M256.9 172.229C255.874 172.218 254.874 171.91 254.021 171.343C253.169 170.775 252.502 169.973 252.102 169.034C251.702 168.095 251.587 167.06 251.77 166.057C251.953 165.054 252.427 164.125 253.133 163.386C256.91 159.515 260.321 156.509 263.326 153.885C270.583 147.529 273.084 145.043 272.847 140.278C272.491 137.338 271.863 134.437 270.968 131.612C268.803 123.703 266.351 114.753 270.553 107.571C272.807 103.71 276.633 101.067 281.932 99.7109C283.272 99.3949 284.683 99.6136 285.862 100.32C287.041 101.027 287.895 102.165 288.239 103.489C288.583 104.814 288.391 106.221 287.703 107.406C287.016 108.592 285.888 109.462 284.562 109.831C280.835 110.813 279.935 112.316 279.619 112.827C277.641 116.217 279.549 123.232 281.092 128.861C282.208 132.411 282.957 136.066 283.326 139.767C283.82 149.838 277.839 155.084 270.256 161.726C267.399 164.241 264.147 167.09 260.647 170.666C260.159 171.162 259.576 171.556 258.932 171.824C258.289 172.092 257.598 172.23 256.9 172.229Z" fill="#2D74FF"/>
<path d="M253.959 155.038L253.736 154.815C252.736 153.822 251.114 153.822 250.115 154.816L220.962 183.798C219.962 184.792 219.962 186.403 220.962 187.397L221.186 187.619C222.186 188.613 223.808 188.612 224.807 187.618L253.96 158.636C254.96 157.642 254.96 156.031 253.959 155.038Z" fill="#263238"/>
<path d="M269.153 170.118L268.93 169.896C267.93 168.902 266.309 168.902 265.309 169.896L236.151 198.873C235.151 199.867 235.151 201.478 236.151 202.472L236.374 202.694C237.374 203.688 238.996 203.688 239.996 202.694L269.153 173.717C270.153 172.723 270.153 171.112 269.153 170.118Z" fill="#263238"/>
<path d="M230.16 165.826L250.706 145.408C251.364 144.754 252.145 144.235 253.005 143.881C253.865 143.527 254.787 143.345 255.718 143.345C256.649 143.345 257.57 143.527 258.43 143.881C259.29 144.235 260.072 144.754 260.73 145.408L278.689 163.256C279.347 163.91 279.869 164.686 280.226 165.541C280.582 166.396 280.765 167.312 280.765 168.237C280.765 169.162 280.582 170.078 280.226 170.933C279.869 171.787 279.347 172.564 278.689 173.218L258.144 193.636L230.16 165.826Z" fill="#2D74FF"/>
<path opacity="0.7" d="M230.16 165.826L250.706 145.408C251.364 144.754 252.145 144.235 253.005 143.881C253.865 143.527 254.787 143.345 255.718 143.345C256.649 143.345 257.57 143.527 258.43 143.881C259.29 144.235 260.072 144.754 260.73 145.408L278.689 163.256C279.347 163.91 279.869 164.686 280.226 165.541C280.582 166.396 280.765 167.312 280.765 168.237C280.765 169.162 280.582 170.078 280.226 170.933C279.869 171.787 279.347 172.564 278.689 173.218L258.144 193.636L230.16 165.826Z" fill="white"/>
<path opacity="0.2" d="M237.246 158.729L230.128 165.794L258.116 193.608L265.224 186.534C264.941 185.711 264.471 184.965 263.85 184.353L239.441 160.144C238.83 159.509 238.079 159.025 237.246 158.729Z" fill="#2D74FF"/>
<path d="M228.928 162.232L228.418 162.739C226.248 164.896 226.248 168.392 228.418 170.548L253.339 195.315C255.509 197.471 259.027 197.471 261.197 195.315L261.707 194.808C263.877 192.651 263.877 189.155 261.707 186.999L236.786 162.232C234.616 160.076 231.098 160.076 228.928 162.232Z" fill="#2D74FF"/>
<path d="M222.027 165.242C222.675 150.49 210.294 137.965 194.373 137.266C178.452 136.567 165.02 147.959 164.373 162.71C163.725 177.462 176.106 189.988 192.027 190.687C207.948 191.386 221.38 179.994 222.027 165.242Z" fill="#2D74FF"/>
<path d="M200.591 164.105C200.591 166.46 200.498 168.824 200.314 171.179C200.13 173.533 199.843 175.877 199.424 178.201C199.209 179.358 198.963 180.514 198.676 181.661C198.38 182.807 198.052 183.943 197.632 185.049C197.213 186.155 196.732 187.25 196.076 188.243C195.749 188.734 195.37 189.215 194.909 189.604C194.674 189.799 194.428 189.973 194.142 190.095C193.865 190.218 193.558 190.3 193.251 190.31C192.944 190.321 192.627 190.259 192.35 190.147C192.064 190.034 191.808 189.87 191.562 189.686C191.091 189.307 190.702 188.836 190.365 188.345C189.699 187.352 189.208 186.267 188.788 185.162C188.368 184.056 188.031 182.92 187.734 181.773C187.437 180.627 187.191 179.47 186.976 178.313C186.557 175.99 186.26 173.646 186.065 171.291C185.871 168.937 185.768 166.583 185.758 164.218C185.748 163.041 185.789 161.864 185.83 160.676C185.871 159.499 185.942 158.322 186.024 157.145C186.198 154.79 186.464 152.446 186.853 150.112C187.048 148.945 187.273 147.789 187.55 146.642C187.826 145.496 188.143 144.36 188.532 143.244C188.931 142.128 189.392 141.033 190.047 140.04C190.375 139.549 190.743 139.067 191.214 138.689C191.45 138.504 191.705 138.341 191.982 138.228C192.258 138.115 192.565 138.064 192.872 138.075C193.18 138.085 193.476 138.156 193.753 138.279C194.029 138.402 194.285 138.566 194.51 138.75C194.971 139.129 195.36 139.589 195.698 140.071C196.373 141.043 196.885 142.118 197.335 143.213C197.776 144.308 198.134 145.434 198.451 146.571C198.769 147.707 199.035 148.864 199.27 150.02C199.731 152.334 200.048 154.678 200.263 157.032C200.488 159.387 200.591 161.741 200.591 164.105ZM200.202 164.105C200.202 161.761 200.12 159.407 199.925 157.063C199.731 154.719 199.444 152.385 199.014 150.082C198.799 148.925 198.543 147.779 198.246 146.642C197.95 145.506 197.602 144.39 197.172 143.295C196.742 142.2 196.25 141.135 195.595 140.163C195.268 139.682 194.889 139.221 194.449 138.852C194.224 138.668 193.988 138.504 193.722 138.382C193.456 138.259 193.18 138.187 192.893 138.177C192.606 138.167 192.32 138.228 192.054 138.33C191.787 138.443 191.542 138.597 191.317 138.781C190.876 139.149 190.508 139.62 190.201 140.112C189.576 141.104 189.126 142.19 188.747 143.295C188.368 144.401 188.061 145.537 187.805 146.683C187.55 147.83 187.335 148.986 187.15 150.143C186.434 154.79 186.209 159.499 186.219 164.198C186.209 166.542 186.29 168.896 186.464 171.24C186.639 173.584 186.905 175.918 187.314 178.232C187.519 179.388 187.754 180.535 188.031 181.681C188.317 182.817 188.645 183.943 189.044 185.049C189.453 186.144 189.924 187.219 190.569 188.192C190.897 188.673 191.255 189.133 191.705 189.492C191.931 189.676 192.166 189.829 192.432 189.932C192.688 190.034 192.975 190.095 193.251 190.085C193.528 190.075 193.804 190.003 194.06 189.891C194.316 189.768 194.551 189.614 194.766 189.42C195.206 189.041 195.565 188.581 195.882 188.099C196.517 187.117 196.977 186.042 197.387 184.947C197.786 183.841 198.113 182.715 198.39 181.579C198.666 180.443 198.902 179.286 199.096 178.129C199.495 175.816 199.761 173.482 199.935 171.138C200.12 168.804 200.202 166.45 200.202 164.105Z" fill="#F2F2F2"/>
<path d="M212.496 164.105C212.475 167.146 212.086 170.186 211.278 173.113C210.448 176.041 209.2 178.846 207.5 181.374C205.811 183.892 203.652 186.124 201.072 187.751C199.782 188.56 198.39 189.205 196.937 189.645C195.483 190.085 193.958 190.31 192.443 190.31C190.918 190.31 189.403 190.085 187.949 189.645C186.495 189.205 185.103 188.56 183.814 187.762C181.234 186.144 179.074 183.913 177.375 181.384C175.676 178.856 174.427 176.041 173.587 173.124C173.178 171.66 172.871 170.165 172.666 168.661C172.461 167.156 172.369 165.631 172.359 164.116C172.369 162.59 172.472 161.075 172.666 159.571C172.871 158.066 173.178 156.571 173.587 155.108C174.427 152.18 175.676 149.375 177.375 146.847C179.074 144.329 181.234 142.097 183.814 140.48C185.103 139.682 186.495 139.037 187.949 138.597C189.403 138.156 190.918 137.931 192.443 137.931C193.958 137.931 195.483 138.167 196.926 138.607C198.38 139.047 199.772 139.682 201.062 140.49C203.641 142.108 205.791 144.339 207.49 146.857C209.189 149.375 210.438 152.19 211.267 155.108C212.086 158.025 212.475 161.065 212.496 164.105ZM212.045 164.105C212.045 161.106 211.667 158.097 210.878 155.21C210.08 152.313 208.882 149.529 207.234 147.011C206.415 145.752 205.474 144.575 204.43 143.5C203.385 142.425 202.218 141.452 200.959 140.644C199.69 139.845 198.318 139.19 196.885 138.76C195.452 138.32 193.948 138.095 192.443 138.085C190.938 138.095 189.444 138.32 188 138.76C186.567 139.2 185.195 139.845 183.926 140.654C182.657 141.463 181.5 142.435 180.456 143.51C179.412 144.585 178.48 145.772 177.651 147.021C176.003 149.529 174.816 152.323 174.028 155.21C173.639 156.653 173.352 158.127 173.158 159.622C172.963 161.106 172.871 162.611 172.861 164.105C172.861 165.6 172.963 167.105 173.158 168.589C173.352 170.073 173.639 171.547 174.038 173.001C174.826 175.887 176.024 178.682 177.672 181.19C178.491 182.439 179.432 183.626 180.477 184.701C181.521 185.776 182.677 186.748 183.947 187.547C185.216 188.345 186.577 188.99 188.021 189.43C189.454 189.87 190.948 190.106 192.453 190.106C193.958 190.095 195.452 189.87 196.885 189.43C198.318 188.99 199.69 188.355 200.959 187.547C202.229 186.738 203.385 185.776 204.43 184.701C205.474 183.626 206.415 182.449 207.234 181.19C208.882 178.682 210.08 175.887 210.878 173.001C211.667 170.104 212.045 167.105 212.045 164.105Z" fill="#F2F2F2"/>
<path d="M169.073 153.736L175.092 153.685L181.111 153.654C183.117 153.644 185.123 153.644 187.13 153.634L193.149 153.623L205.176 153.654L211.195 153.685L217.214 153.746C217.225 153.746 217.235 153.756 217.235 153.767C217.235 153.777 217.225 153.787 217.214 153.787L211.195 153.848L205.176 153.879L193.128 153.9L187.109 153.889C185.103 153.889 183.097 153.889 181.09 153.869L175.071 153.838L169.052 153.787C169.032 153.787 169.022 153.777 169.022 153.756C169.042 153.746 169.052 153.736 169.073 153.736Z" fill="#F2F2F2"/>
<path d="M166.975 163.808L173.516 163.757L180.057 163.727L193.129 163.706L206.2 163.737L212.741 163.767L219.282 163.829C219.293 163.829 219.303 163.839 219.303 163.849C219.303 163.86 219.293 163.87 219.282 163.87L212.741 163.931L206.2 163.962L193.129 163.982L180.057 163.962L173.516 163.931L166.975 163.88C166.954 163.88 166.944 163.87 166.944 163.849C166.954 163.819 166.965 163.808 166.975 163.808Z" fill="white"/>
<path d="M169.073 173.881L175.092 173.83L181.111 173.799C183.117 173.789 185.123 173.789 187.13 173.779L193.149 173.769L205.176 173.799L211.195 173.83L217.214 173.891C217.225 173.891 217.235 173.902 217.235 173.912C217.235 173.922 217.225 173.932 217.214 173.932L211.195 173.994L205.176 174.024L193.128 174.055L187.109 174.045C185.103 174.045 183.097 174.045 181.09 174.024L175.071 173.994L169.052 173.943C169.032 173.943 169.022 173.932 169.022 173.912C169.042 173.902 169.052 173.881 169.073 173.881Z" fill="#F2F2F2"/>
<path d="M211.072 184.087H176.903C176.842 184.087 176.801 184.035 176.801 183.984C176.801 183.933 176.852 183.882 176.903 183.882H211.072C211.134 183.882 211.175 183.933 211.175 183.984C211.175 184.035 211.134 184.087 211.072 184.087Z" fill="#F2F2F2"/>
<path d="M172.712 170.974C170.48 170.954 168.597 169.183 168.423 166.941L168.014 161.853C167.921 160.646 168.31 159.448 169.109 158.598C169.866 157.779 170.9 157.319 172.026 157.319L211.723 157.247C212.961 157.247 214.057 157.749 214.783 158.649C215.541 159.571 215.817 160.83 215.561 162.089L214.476 167.422C214.026 169.643 211.866 171.373 209.563 171.373L172.712 170.974Z" fill="#2D74FF"/>
<path d="M211.81 158.281L172.113 158.353C170.312 158.353 168.981 159.919 169.135 161.772L169.544 166.859C169.677 168.569 171.141 169.93 172.82 169.94L209.629 170.339C211.452 170.36 213.212 168.998 213.57 167.217L214.656 161.884C215.045 159.929 213.775 158.271 211.81 158.281Z" fill="#F2F2F2"/>
<path d="M187.234 161.946L185.402 167.545H185.391C185.309 167.821 185.084 168.016 184.849 168.067H184.839C184.828 168.067 184.818 168.077 184.808 168.077C184.798 168.077 184.798 168.087 184.787 168.087H184.777H184.757H184.746H184.705H184.695H184.675H184.665H184.654H184.634H184.624C184.613 168.087 184.613 168.077 184.603 168.077H184.593C184.583 168.077 184.572 168.067 184.562 168.067H184.552C184.316 168.006 184.102 167.811 183.999 167.545L182.842 164.013L181.686 167.545C181.604 167.821 181.379 168.016 181.143 168.067H181.133C181.123 168.067 181.113 168.077 181.102 168.077H181.092C181.082 168.077 181.082 168.087 181.072 168.087H181.061H181.041H181.02H181H180.99H180.969H180.959H180.918H180.908H180.898C180.887 168.087 180.887 168.077 180.877 168.077H180.867C180.857 168.077 180.846 168.067 180.836 168.067H180.826C180.58 168.006 180.376 167.811 180.273 167.545L178.441 161.946V161.925C178.41 161.843 178.4 161.741 178.4 161.659C178.4 161.331 178.594 161.014 178.901 160.912C178.973 160.881 179.055 160.871 179.127 160.871C179.434 160.871 179.731 161.086 179.833 161.424C179.843 161.434 180.468 163.348 180.99 164.935C181.512 163.348 182.136 161.434 182.136 161.424C182.218 161.178 182.382 161.004 182.587 160.922L182.597 160.912C182.607 160.912 182.607 160.902 182.617 160.902H182.628C182.638 160.902 182.638 160.891 182.638 160.891H182.648C182.658 160.881 182.658 160.881 182.668 160.881L182.679 160.871C182.689 160.871 182.699 160.871 182.709 160.861H182.72C182.73 160.861 182.74 160.861 182.75 160.85H182.761H182.791H182.802C182.812 160.85 182.822 160.85 182.832 160.84H182.842H182.853H182.873H182.883C182.894 160.85 182.894 160.85 182.904 160.85H182.914H182.945C182.955 160.861 182.965 160.861 182.986 160.861C182.996 160.871 183.006 160.871 183.016 160.871C183.027 160.871 183.027 160.871 183.027 160.881C183.037 160.881 183.047 160.881 183.057 160.891H183.068L183.078 160.902H183.088C183.098 160.902 183.098 160.912 183.109 160.912L183.119 160.922C183.324 161.004 183.487 161.178 183.569 161.424C183.569 161.434 184.194 163.348 184.716 164.935C185.238 163.348 185.862 161.434 185.862 161.424C185.975 161.086 186.261 160.871 186.579 160.871C186.65 160.871 186.732 160.881 186.804 160.912C187.111 161.024 187.305 161.331 187.305 161.659C187.305 161.741 187.295 161.843 187.265 161.925V161.946H187.234Z" fill="#2D74FF"/>
<path d="M196.477 161.946L194.645 167.545H194.634C194.553 167.821 194.327 168.016 194.092 168.067H194.082C194.071 168.067 194.061 168.077 194.051 168.077H194.041C194.031 168.077 194.031 168.087 194.02 168.087H194.01H193.99H193.979H193.959H193.949H193.918H193.908H193.897H193.877H193.867C193.856 168.087 193.856 168.077 193.846 168.077H193.816C193.805 168.077 193.795 168.067 193.785 168.067H193.775C193.539 168.006 193.324 167.811 193.222 167.545L192.075 164.013L190.919 167.545C190.837 167.821 190.612 168.016 190.376 168.067H190.366C190.356 168.067 190.345 168.077 190.335 168.077H190.325C190.315 168.077 190.315 168.087 190.304 168.087H190.294H190.274H190.264H190.233H190.223H190.202H190.192H190.171H190.161H190.13C190.12 168.087 190.12 168.077 190.11 168.077H190.1C190.09 168.077 190.079 168.067 190.069 168.067H190.059C189.813 168.006 189.608 167.811 189.506 167.545L187.674 161.946V161.925C187.643 161.843 187.633 161.741 187.633 161.659C187.633 161.331 187.827 161.014 188.134 160.912C188.206 160.881 188.288 160.871 188.36 160.871C188.667 160.871 188.964 161.086 189.066 161.424C189.076 161.434 189.701 163.348 190.223 164.935C190.745 163.348 191.369 161.434 191.369 161.424C191.451 161.178 191.615 161.004 191.819 160.922L191.83 160.912C191.84 160.912 191.84 160.902 191.85 160.902H191.86C191.871 160.902 191.871 160.891 191.871 160.891H191.881C191.891 160.881 191.891 160.881 191.901 160.881L191.912 160.871C191.922 160.871 191.932 160.871 191.942 160.861H191.953C191.963 160.861 191.973 160.861 191.983 160.85H191.993H192.024H192.034C192.045 160.85 192.055 160.85 192.065 160.84H192.075H192.086H192.106H192.116C192.127 160.85 192.127 160.85 192.137 160.85H192.147H192.178C192.188 160.861 192.198 160.861 192.219 160.861C192.229 160.871 192.239 160.871 192.249 160.871C192.26 160.871 192.26 160.871 192.26 160.881C192.27 160.881 192.28 160.881 192.29 160.891H192.301L192.311 160.902H192.321C192.331 160.902 192.331 160.912 192.342 160.912L192.352 160.922C192.556 161.004 192.72 161.178 192.802 161.424C192.802 161.434 193.427 163.348 193.949 164.935C194.471 163.348 195.095 161.434 195.095 161.424C195.208 161.086 195.494 160.871 195.812 160.871C195.883 160.871 195.965 160.881 196.037 160.912C196.344 161.024 196.538 161.331 196.538 161.659C196.538 161.741 196.528 161.843 196.497 161.925V161.946H196.477Z" fill="#2D74FF"/>
<path d="M205.721 161.946L203.888 167.545H203.878C203.796 167.821 203.571 168.016 203.336 168.067H203.325C203.315 168.067 203.305 168.077 203.295 168.077H203.284C203.274 168.077 203.274 168.087 203.264 168.087H203.254H203.233H203.223H203.203H203.192H203.172H203.162H203.131H203.11H203.1C203.09 168.087 203.09 168.077 203.08 168.077H203.069C203.059 168.077 203.049 168.067 203.039 168.067H203.028C202.793 168.006 202.578 167.811 202.476 167.545L201.319 164.013L200.162 167.535C200.08 167.811 199.855 168.006 199.62 168.057H199.61C199.599 168.057 199.589 168.067 199.579 168.067H199.569C199.558 168.067 199.558 168.077 199.548 168.077H199.538H199.517H199.507H199.487H199.476H199.446H199.436H199.415H199.405H199.395C199.384 168.077 199.384 168.067 199.374 168.067H199.343C199.333 168.067 199.323 168.057 199.313 168.057H199.302C199.057 167.995 198.852 167.801 198.75 167.535L196.917 161.935V161.925C196.887 161.843 196.876 161.741 196.876 161.659C196.876 161.331 197.071 161.014 197.378 160.912C197.45 160.881 197.532 160.871 197.603 160.871C197.91 160.871 198.207 161.086 198.31 161.424C198.32 161.434 198.944 163.348 199.466 164.935C199.988 163.348 200.613 161.434 200.613 161.424C200.695 161.178 200.858 161.004 201.063 160.922L201.073 160.912C201.084 160.912 201.084 160.902 201.094 160.902H201.104C201.114 160.902 201.114 160.891 201.114 160.891H201.125C201.135 160.881 201.135 160.881 201.145 160.881L201.155 160.871C201.165 160.871 201.176 160.871 201.186 160.861H201.196C201.206 160.861 201.217 160.861 201.227 160.85H201.237H201.268H201.278C201.288 160.85 201.299 160.85 201.309 160.84H201.319H201.329H201.35H201.36C201.37 160.85 201.37 160.85 201.38 160.85H201.391H201.421C201.432 160.861 201.442 160.861 201.462 160.861C201.473 160.871 201.483 160.871 201.493 160.871C201.503 160.871 201.503 160.871 201.503 160.881C201.514 160.881 201.524 160.881 201.534 160.891H201.544L201.554 160.902H201.565C201.575 160.902 201.575 160.912 201.585 160.912L201.595 160.922C201.8 161.004 201.964 161.178 202.046 161.424C202.046 161.434 202.67 163.348 203.192 164.935C203.714 163.348 204.339 161.434 204.339 161.424C204.451 161.086 204.738 160.871 205.055 160.871C205.127 160.871 205.209 160.881 205.28 160.912C205.588 161.024 205.782 161.331 205.782 161.659C205.782 161.741 205.772 161.843 205.741 161.925V161.946H205.721Z" fill="#2D74FF"/>
<line x1="219.354" y1="141.354" x2="170.354" y2="190.354" stroke="black"/>
</svg>
