<svg width="400" height="400" viewBox="0 0 400 400" fill="none" xmlns="http://www.w3.org/2000/svg">
<path d="M336.338 119.868C330.996 116.385 325.229 113.523 319.367 111.155C307.509 106.364 295.269 103.596 285.388 101.821C290.468 88.5883 290.815 76.4757 285.476 66.7456C268.076 35.0343 173.922 20.5292 107.115 65.0858C20.9665 122.543 33.5173 192.616 38.9655 209.413C40.3582 213.706 44.5533 222.213 51.4966 230.885C58.0051 239.015 66.9283 247.289 78.2191 252.373C83.8168 254.893 90.1787 257.369 97.3816 259.681C99.0616 260.22 100.788 260.749 102.559 261.27C103.385 261.512 104.22 261.752 105.066 261.989C110.37 263.481 116.086 264.864 122.212 266.139C142.376 270.294 167.146 273.022 197.369 273C264.241 272.947 300.789 251.791 300.789 251.791H300.463C301.627 251.142 302.668 250.546 303.461 250.151C307.718 248.036 311.9 245.773 316.006 243.36C319.01 241.595 326.412 237.022 334.524 229.746C347.114 218.454 361.425 200.649 363.658 176.733C366.281 148.631 353.508 131.053 336.338 119.868Z" fill="#D2ECFC"/>
<path d="M200 323.2C294.109 323.2 370.4 317.022 370.4 309.401C370.4 301.78 294.109 295.603 200 295.603C105.891 295.603 29.6001 301.78 29.6001 309.401C29.6001 317.022 105.891 323.2 200 323.2Z" fill="#EEEAEA"/>
<path d="M95.6879 97.3169H54.811V295.603H95.6879V97.3169Z" fill="#4282FF"/>
<path d="M106.4 295.2H44V306.4H106.4V295.2Z" fill="#444444"/>
<path d="M68.8 295.2H44V306.4H68.8V295.2Z" fill="#636363"/>
<path d="M68.4368 97.3169H54.811V295.603H68.4368V97.3169Z" fill="#4282FF"/>
<path d="M338.187 97.3169H297.31V295.603H338.187V97.3169Z" fill="#4282FF"/>
<path d="M348.689 295.603H286.806V306.678H348.689V295.603Z" fill="#4282FF"/>
<path d="M321.533 295.603H286.806V306.678H321.533V295.603Z" fill="#4282FF"/>
<path d="M310.936 97.3169H297.31V295.603H310.936V97.3169Z" fill="#4282FF"/>
<path opacity="0.7" d="M68.8 218.73L68.8 294.074C68.8 294.327 68.7877 294.578 68.7636 294.812C68.7395 295.046 68.7043 295.258 68.6598 295.437C68.6154 295.616 68.5627 295.758 68.5046 295.854C68.4466 295.951 68.3844 296 68.3216 296L55.6785 296C55.5518 296 55.4302 295.797 55.3405 295.436C55.2508 295.075 55.2003 294.585 55.2 294.074L55.2001 218.73C55.2001 218.218 55.2505 217.727 55.3402 217.365C55.4299 217.003 55.5516 216.8 55.6785 216.8L68.3253 216.8C68.4516 216.803 68.5725 217.007 68.6615 217.369C68.7505 217.731 68.8003 218.22 68.8 218.73Z" fill="white"/>
<path opacity="0.7" d="M68.8 161.365L68.8 183.436C68.8 183.51 68.7877 183.583 68.7636 183.652C68.7396 183.72 68.7043 183.783 68.6598 183.835C68.6154 183.887 68.5627 183.929 68.5046 183.957C68.4466 183.985 68.3844 184 68.3216 184L55.6785 184C55.5518 184 55.4302 183.94 55.3405 183.835C55.2508 183.729 55.2003 183.585 55.2 183.436L55.2001 161.365C55.2001 161.215 55.2505 161.071 55.3402 160.965C55.4299 160.859 55.5516 160.8 55.6785 160.8L68.3253 160.8C68.4516 160.801 68.5725 160.861 68.6615 160.967C68.7505 161.073 68.8003 161.216 68.8 161.365Z" fill="white"/>
<path opacity="0.7" d="M310.4 161.424L310.4 185.777C310.4 185.859 310.388 185.94 310.366 186.016C310.343 186.091 310.31 186.16 310.268 186.218C310.226 186.276 310.177 186.322 310.122 186.353C310.067 186.384 310.009 186.4 309.95 186.4L298.05 186.4C297.931 186.4 297.817 186.334 297.732 186.218C298.05 185.777 298.05 186.016 297.6 185.777L298.05 184.4L298.05 182.8L298.05 179.6L298.05 173.6L298.05 161.424C298.05 161.258 297.648 161.099 297.732 160.982C297.817 160.866 297.931 160.8 298.05 160.8L309.953 160.8C310.072 160.801 310.186 160.867 310.27 160.984C310.353 161.101 310.4 161.259 310.4 161.424Z" fill="white"/>
<path opacity="0.7" d="M68 98.3408L68 127.261C68 127.358 67.9883 127.454 67.9657 127.544C67.9431 127.634 67.9099 127.715 67.868 127.784C67.8262 127.853 67.7766 127.907 67.7219 127.944C67.6673 127.981 67.6088 128 67.5497 128L55.6503 128C55.531 128 55.4166 127.922 55.3322 127.784C55.2478 127.645 55.2002 127.457 55.2 127.261L55.2 98.3408C55.2 98.1443 55.2474 97.956 55.3319 97.817C55.4164 97.6781 55.5309 97.6001 55.6503 97.6001L67.5532 97.6001C67.6721 97.6012 67.7858 97.6798 67.8696 97.8186C67.9533 97.9575 68.0002 98.1452 68 98.3408Z" fill="white"/>
<path opacity="0.7" d="M310.4 98.3408L310.4 127.261C310.4 127.358 310.388 127.454 310.366 127.544C310.343 127.634 310.31 127.715 310.268 127.784C310.226 127.853 310.177 127.907 310.122 127.944C310.067 127.981 310.009 128 309.95 128L298.05 128C297.931 128 297.817 127.922 297.732 127.784C297.648 127.645 297.6 127.457 297.6 127.261L297.6 98.3408C297.6 98.1443 297.648 97.956 297.732 97.817C297.817 97.6781 297.931 97.6001 298.05 97.6001L309.953 97.6001C310.072 97.6012 310.186 97.6798 310.27 97.8186C310.353 97.9575 310.4 98.1452 310.4 98.3408Z" fill="white"/>
<path d="M349.6 135.538V153.262C349.6 155.99 346.153 158.379 340.977 159.698C338.262 160.396 335.048 160.8 331.623 160.8H48.3773C38.4466 160.8 30.4001 157.426 30.4001 153.262V135.538C30.4001 131.537 37.8262 128.265 47.2247 128.014C47.6013 128.005 47.9895 128 48.3773 128H331.623C341.554 128 349.6 131.374 349.6 135.538Z" fill="#263238"/>
<path d="M349.584 135.576V141.485L337.288 128H338.547C344.644 128 349.584 131.391 349.584 135.576Z" fill="white"/>
<path d="M221.09 159.86C219.423 160.56 217.449 160.967 215.346 160.967H200.797L170.746 128H192.053L221.09 159.86Z" fill="white"/>
<path d="M269.09 159.86C267.423 160.56 265.449 160.967 263.346 160.967H248.797L218.746 128H240.053L269.09 159.86Z" fill="white"/>
<path d="M309.09 159.86C307.423 160.56 305.449 160.967 303.346 160.967H288.797L258.746 128H280.053L309.09 159.86Z" fill="white"/>
<path d="M349.09 159.86C347.423 160.56 345.449 160.967 343.346 160.967H328.797L298.746 128H320.053L349.09 159.86Z" fill="white"/>
<path d="M178.756 160.967H157.456L127.406 128H148.705L178.756 160.967Z" fill="white"/>
<path d="M135.408 160.967H114.116L84.0579 128H105.364L135.408 160.967Z" fill="white"/>
<path d="M92.0675 160.967H70.7678L40.7307 128.014C40.962 128.005 41.2003 128 41.4384 128H62.0236L92.0675 160.967Z" fill="white"/>
<path d="M48.7193 160.967H41.4378C35.3405 160.967 30.4001 157.576 30.4001 153.391V140.864L48.7193 160.967Z" fill="white"/>
<path d="M72.5746 144.485C72.5746 146.741 70.7453 148.571 68.4886 148.571C66.2321 148.571 64.4026 146.742 64.4026 144.485C64.4026 142.229 66.2319 140.396 68.4886 140.396C70.7453 140.396 72.5746 142.229 72.5746 144.485Z" fill="#707070"/>
<path d="M68.4875 148.571L68.9574 144.484L68.4875 140.397V148.571Z" fill="#E5E1DF"/>
<path d="M64.4016 144.484L68.4882 144.954L72.575 144.484H64.4016Z" fill="#E5E1DF"/>
<path d="M68.4886 140.396V148.571C66.2321 148.571 64.4026 146.741 64.4026 144.485C64.4029 142.229 66.2321 140.396 68.4886 140.396Z" fill="#CCCCCC"/>
<path d="M325.035 145.017C325.035 147.274 323.205 149.103 320.949 149.103C318.692 149.103 316.863 147.274 316.863 145.017C316.863 142.761 318.692 140.928 320.949 140.928C323.205 140.928 325.035 142.761 325.035 145.017Z" fill="#707070"/>
<path d="M320.948 149.103L321.418 145.017L320.948 140.93V149.103Z" fill="#E5E1DF"/>
<path d="M316.861 145.017L320.948 144.547L325.035 145.017H316.861Z" fill="#E5E1DF"/>
<path d="M320.949 140.928V149.103C318.692 149.103 316.863 147.274 316.863 145.017C316.863 142.761 318.692 140.928 320.949 140.928Z" fill="#CCCCCC"/>
<path d="M349.6 191.538V209.262C349.6 211.99 346.153 214.379 340.977 215.698C338.262 216.396 335.048 216.8 331.623 216.8H48.3773C38.4466 216.8 30.4001 213.426 30.4001 209.262V191.538C30.4001 187.537 37.8262 184.265 47.2247 184.014C47.6013 184.005 47.9895 184 48.3773 184H331.623C341.554 184 349.6 187.374 349.6 191.538Z" fill="#263238"/>
<path d="M349.584 191.576V197.485L337.288 184H338.547C344.644 184 349.584 187.391 349.584 191.576Z" fill="white"/>
<path d="M221.09 215.86C219.423 216.56 217.449 216.967 215.346 216.967H200.797L170.746 184H192.053L221.09 215.86Z" fill="white"/>
<path d="M269.09 215.86C267.423 216.56 265.449 216.967 263.346 216.967H248.797L218.746 184H240.053L269.09 215.86Z" fill="white"/>
<path d="M309.09 215.86C307.423 216.56 305.449 216.967 303.346 216.967H288.797L258.746 184H280.053L309.09 215.86Z" fill="white"/>
<path d="M349.09 215.86C347.423 216.56 345.449 216.967 343.346 216.967H328.797L298.746 184H320.053L349.09 215.86Z" fill="white"/>
<path d="M178.756 216.967H157.456L127.406 184H148.705L178.756 216.967Z" fill="white"/>
<path d="M135.408 216.967H114.116L84.0579 184H105.364L135.408 216.967Z" fill="white"/>
<path d="M92.0675 216.967H70.7678L40.7307 184.014C40.962 184.005 41.2003 184 41.4384 184H62.0236L92.0675 216.967Z" fill="white"/>
<path d="M48.7193 216.967H41.4378C35.3405 216.967 30.4001 213.576 30.4001 209.391V196.864L48.7193 216.967Z" fill="white"/>
<path d="M72.5746 200.485C72.5746 202.741 70.7453 204.571 68.4886 204.571C66.2321 204.571 64.4026 202.742 64.4026 200.485C64.4026 198.229 66.2319 196.396 68.4886 196.396C70.7453 196.396 72.5746 198.229 72.5746 200.485Z" fill="#707070"/>
<path d="M68.4875 204.571L68.9574 200.484L68.4875 196.397V204.571Z" fill="#E5E1DF"/>
<path d="M64.4016 200.484L68.4882 200.954L72.575 200.484H64.4016Z" fill="#E5E1DF"/>
<path d="M68.4886 196.396V204.571C66.2321 204.571 64.4026 202.741 64.4026 200.485C64.4029 198.229 66.2321 196.396 68.4886 196.396Z" fill="#CCCCCC"/>
<path d="M325.035 201.017C325.035 203.274 323.205 205.103 320.949 205.103C318.692 205.103 316.863 203.274 316.863 201.017C316.863 198.761 318.692 196.928 320.949 196.928C323.205 196.928 325.035 198.761 325.035 201.017Z" fill="#707070"/>
<path d="M320.948 205.103L321.418 201.017L320.948 196.93V205.103Z" fill="#E5E1DF"/>
<path d="M316.861 201.017L320.948 200.547L325.035 201.017H316.861Z" fill="#E5E1DF"/>
<path d="M320.949 196.928V205.103C318.692 205.103 316.863 203.274 316.863 201.017C316.863 198.761 318.692 196.928 320.949 196.928Z" fill="#CCCCCC"/>
<path d="M77.1246 86.6167H71.0181V97.7287H77.1246V86.6167Z" fill="#636363"/>
<path d="M74.0712 86.6167H71.0181V97.7287H74.0712V86.6167Z" fill="#444444"/>
<path d="M83.3428 82.0716C83.3428 87.1907 79.1904 91.3385 74.0713 91.3385V72.8C79.1904 72.8 83.3428 76.9478 83.3428 82.0716Z" fill="#252B43"/>
<path d="M74.0708 88.1701C77.4399 88.1701 80.1711 85.4389 80.1711 82.0698C80.1711 78.7007 77.4399 75.9695 74.0708 75.9695C70.7017 75.9695 67.9705 78.7007 67.9705 82.0698C67.9705 85.4389 70.7017 88.1701 74.0708 88.1701Z" fill="#4282FF"/>
<path d="M74.0716 72.8V91.3385C68.9525 91.3385 64.8 87.1907 64.8 82.0716C64.8 76.9478 68.9525 72.8 74.0716 72.8Z" fill="#171C2D"/>
<path d="M74.0712 75.9714V88.1715C70.7035 88.1715 67.9712 85.4392 67.9712 82.0715C67.9712 78.6992 70.7035 75.9714 74.0712 75.9714Z" fill="#4282FF"/>
<path d="M325.125 86.6167H319.018V97.7287H325.125V86.6167Z" fill="#636363"/>
<path d="M322.071 86.6167H319.018V97.7287H322.071V86.6167Z" fill="#444444"/>
<path d="M331.343 82.0716C331.343 87.1907 327.19 91.3385 322.071 91.3385V72.8C327.19 72.8 331.343 76.9478 331.343 82.0716Z" fill="#252B43"/>
<path d="M322.071 88.1701C325.44 88.1701 328.171 85.4389 328.171 82.0698C328.171 78.7007 325.44 75.9695 322.071 75.9695C318.702 75.9695 315.97 78.7007 315.97 82.0698C315.97 85.4389 318.702 88.1701 322.071 88.1701Z" fill="#4282FF"/>
<path d="M322.072 72.8V91.3385C316.952 91.3385 312.8 87.1907 312.8 82.0716C312.8 76.9478 316.952 72.8 322.072 72.8Z" fill="#171C2D"/>
<path d="M322.071 75.9714V88.1715C318.704 88.1715 315.971 85.4392 315.971 82.0715C315.971 78.6992 318.704 75.9714 322.071 75.9714Z" fill="#4282FF"/>
<path d="M237.93 316.635L296.443 216.823C299.611 211.418 307.443 211.47 310.54 216.917L367.724 317.496C370.821 322.944 366.86 329.7 360.594 329.659L244.898 328.892C238.632 328.85 234.761 322.041 237.93 316.635Z" fill="#333333"/>
<path d="M249.757 318.51L303.423 226.965L355.871 319.214L249.757 318.51Z" fill="white"/>
<path d="M304.48 270.169L310.354 264.372L311.263 265.294C311.944 265.984 313.055 265.991 313.746 265.31L316.397 262.694L316.023 259.804L313.215 262.575C312.932 262.855 312.476 262.852 312.197 262.568L311.486 261.849L310.917 261.272L310.207 260.552C309.928 260.269 309.931 259.813 310.214 259.534L313.022 256.763L310.138 256.35L307.486 258.967C306.796 259.648 306.789 260.759 307.469 261.449L308.379 262.371L302.505 268.167L301.222 266.868L301.98 266.12C302.205 265.899 302.207 265.536 301.985 265.312C301.783 265.106 301.464 265.089 301.239 265.256L292.747 256.651C292.196 256.093 291.296 256.087 290.737 256.638L290.431 256.939C289.873 257.491 289.867 258.391 290.418 258.95L298.909 267.555C298.739 267.778 298.752 268.096 298.955 268.302C299.176 268.527 299.539 268.529 299.763 268.307L300.521 267.559L301.803 268.859L295.929 274.656L295.019 273.734C294.339 273.044 293.227 273.037 292.537 273.718L289.885 276.334L290.259 279.224L293.067 276.453C293.351 276.173 293.807 276.176 294.086 276.46L294.796 277.179L295.365 277.756L296.076 278.476C296.355 278.759 296.352 279.215 296.069 279.495L293.261 282.266L296.145 282.678L298.797 280.061C299.487 279.38 299.494 278.269 298.813 277.579L297.904 276.658L303.778 270.861L315.29 282.527L316.129 282.675L315.981 281.824L304.48 270.169Z" fill="#2D74FF"/>
<path d="M280.22 288.508L283.64 288.53L283.596 295.14C283.592 295.795 283.486 296.413 283.277 296.994C283.069 297.575 282.746 298.083 282.306 298.516C281.867 298.949 281.407 299.252 280.927 299.425C280.259 299.668 279.459 299.786 278.526 299.78C277.986 299.776 277.397 299.734 276.759 299.655C276.121 299.575 275.589 299.422 275.162 299.194C274.735 298.967 274.344 298.645 273.991 298.23C273.638 297.814 273.398 297.387 273.27 296.947C273.062 296.24 272.961 295.614 272.964 295.07L273.008 288.46L276.428 288.483L276.383 295.25C276.379 295.855 276.544 296.328 276.877 296.671C277.21 297.013 277.674 297.186 278.27 297.19C278.86 297.194 279.324 297.03 279.662 296.697C279.999 296.363 280.17 295.889 280.174 295.275L280.22 288.508Z" fill="#2D74FF"/>
<path d="M285.932 288.545L289.133 288.567L293.269 294.732L293.31 288.595L296.541 288.616L296.467 299.709L293.236 299.688L289.122 293.569L289.081 299.661L285.858 299.639L285.932 288.545Z" fill="#2D74FF"/>
<path d="M298.865 288.631L303.957 288.665C304.961 288.672 305.771 288.813 306.388 289.09C307.004 289.366 307.512 289.761 307.912 290.273C308.312 290.785 308.601 291.38 308.778 292.057C308.955 292.734 309.041 293.451 309.037 294.208C309.029 295.393 308.887 296.312 308.613 296.963C308.339 297.615 307.961 298.16 307.479 298.598C306.996 299.036 306.48 299.326 305.929 299.469C305.176 299.666 304.494 299.762 303.884 299.758L298.792 299.725L298.865 288.631ZM302.276 291.166L302.236 297.227L303.076 297.233C303.792 297.238 304.302 297.162 304.606 297.004C304.91 296.847 305.149 296.572 305.323 296.177C305.497 295.782 305.587 295.141 305.593 294.253C305.601 293.077 305.414 292.272 305.034 291.835C304.653 291.399 304.019 291.177 303.131 291.171L302.276 291.166Z" fill="#2D74FF"/>
<path d="M310.866 288.71L320.052 288.771L320.036 291.14L314.285 291.102L314.274 292.865L319.609 292.9L319.594 295.163L314.259 295.127L314.244 297.314L320.162 297.353L320.145 299.866L310.792 299.804L310.866 288.71Z" fill="#2D74FF"/>
<path d="M322.036 299.879L322.11 288.785L327.823 288.823C328.882 288.831 329.691 288.927 330.25 289.112C330.809 289.297 331.258 289.637 331.598 290.131C331.938 290.626 332.105 291.226 332.101 291.932C332.097 292.547 331.962 293.077 331.697 293.522C331.431 293.967 331.068 294.326 330.607 294.601C330.313 294.775 329.911 294.919 329.4 295.032C329.807 295.171 330.104 295.309 330.289 295.446C330.415 295.538 330.596 295.734 330.834 296.033C331.072 296.333 331.23 296.564 331.309 296.726L332.948 299.951L329.075 299.925L327.265 296.523C327.036 296.083 326.831 295.797 326.65 295.664C326.404 295.491 326.125 295.403 325.812 295.401L325.509 295.399L325.479 299.902L322.036 299.879ZM325.523 293.303L326.968 293.312C327.125 293.314 327.428 293.265 327.877 293.167C328.105 293.123 328.291 293.008 328.436 292.823C328.581 292.637 328.654 292.423 328.656 292.181C328.658 291.823 328.546 291.547 328.321 291.354C328.095 291.161 327.67 291.062 327.044 291.058L325.538 291.048L325.523 293.303Z" fill="#2D74FF"/>
<path d="M282.812 306.26L284.347 306.27L286.326 309.978L286.35 306.283L287.9 306.294L287.856 312.972L286.306 312.962L284.338 309.282L284.314 312.948L282.768 312.938L282.812 306.26Z" fill="#2D74FF"/>
<path d="M274.346 310.149L275.783 310.705C275.683 311.212 275.528 311.635 275.317 311.973C275.107 312.312 274.847 312.567 274.537 312.738C274.228 312.909 273.835 312.993 273.358 312.99C272.78 312.986 272.308 312.877 271.943 312.664C271.578 312.45 271.264 312.077 271.001 311.545C270.739 311.012 270.61 310.331 270.616 309.502C270.623 308.397 270.863 307.55 271.335 306.96C271.807 306.37 272.471 306.077 273.328 306.083C273.998 306.087 274.523 306.261 274.905 306.604C275.286 306.946 275.568 307.47 275.749 308.176L274.295 308.572C274.246 308.368 274.194 308.219 274.138 308.125C274.048 307.966 273.936 307.844 273.803 307.758C273.671 307.672 273.522 307.629 273.358 307.628C272.985 307.625 272.698 307.811 272.498 308.186C272.346 308.464 272.268 308.902 272.264 309.5C272.259 310.24 272.345 310.748 272.523 311.024C272.7 311.299 272.951 311.438 273.275 311.44C273.59 311.442 273.828 311.333 273.99 311.112C274.152 310.892 274.271 310.571 274.346 310.149Z" fill="#2D74FF"/>
<path d="M276.38 309.561C276.387 308.471 276.635 307.624 277.123 307.019C277.611 306.415 278.286 306.116 279.15 306.121C280.036 306.127 280.716 306.43 281.191 307.03C281.666 307.63 281.9 308.468 281.893 309.542C281.888 310.323 281.779 310.962 281.567 311.46C281.354 311.958 281.049 312.345 280.652 312.62C280.254 312.895 279.76 313.032 279.17 313.028C278.57 313.024 278.074 312.9 277.683 312.658C277.291 312.415 276.975 312.033 276.734 311.513C276.493 310.992 276.375 310.341 276.38 309.561ZM278.024 309.581C278.02 310.255 278.116 310.74 278.313 311.036C278.511 311.332 278.782 311.481 279.125 311.483C279.479 311.486 279.753 311.343 279.949 311.056C280.144 310.769 280.244 310.251 280.249 309.504C280.253 308.876 280.155 308.416 279.955 308.124C279.755 307.833 279.482 307.686 279.136 307.684C278.805 307.682 278.538 307.827 278.335 308.121C278.132 308.414 278.029 308.901 278.024 309.581Z" fill="#2D74FF"/>
<path d="M288.676 310.768L290.241 310.656C290.272 310.975 290.34 311.218 290.443 311.386C290.61 311.657 290.851 311.794 291.166 311.796C291.4 311.798 291.582 311.73 291.709 311.592C291.837 311.455 291.902 311.295 291.903 311.113C291.904 310.94 291.845 310.784 291.725 310.647C291.605 310.509 291.325 310.378 290.885 310.254C290.166 310.046 289.653 309.772 289.348 309.433C289.041 309.094 288.889 308.663 288.892 308.14C288.895 307.797 288.976 307.474 289.137 307.17C289.297 306.865 289.537 306.627 289.856 306.455C290.176 306.282 290.612 306.198 291.166 306.202C291.846 306.206 292.364 306.368 292.718 306.688C293.073 307.008 293.282 307.514 293.345 308.207L291.795 308.311C291.756 308.01 291.671 307.79 291.54 307.653C291.409 307.515 291.227 307.446 290.995 307.444C290.804 307.443 290.659 307.493 290.562 307.594C290.464 307.695 290.415 307.819 290.414 307.965C290.414 308.071 290.453 308.167 290.532 308.253C290.609 308.342 290.792 308.425 291.082 308.503C291.799 308.702 292.312 308.902 292.622 309.103C292.932 309.304 293.156 309.552 293.296 309.847C293.436 310.143 293.504 310.473 293.502 310.837C293.499 311.266 293.402 311.66 293.211 312.02C293.02 312.38 292.754 312.652 292.414 312.837C292.074 313.021 291.647 313.112 291.131 313.108C290.226 313.103 289.601 312.88 289.256 312.44C288.911 312 288.717 311.443 288.676 310.768Z" fill="#2D74FF"/>
<path d="M293.985 306.334L298.982 306.367L298.971 308.016L297.294 308.005L297.261 313.035L295.617 313.024L295.65 307.994L293.974 307.983L293.985 306.334Z" fill="#2D74FF"/>
<path d="M299.705 313.051L299.749 306.372L302.489 306.391C302.997 306.394 303.385 306.451 303.653 306.562C303.921 306.673 304.136 306.878 304.298 307.175C304.461 307.472 304.541 307.833 304.538 308.258C304.536 308.628 304.471 308.948 304.343 309.216C304.215 309.484 304.041 309.7 303.819 309.866C303.678 309.972 303.485 310.059 303.24 310.126C303.436 310.21 303.577 310.293 303.667 310.375C303.727 310.431 303.813 310.548 303.927 310.728C304.041 310.908 304.117 311.047 304.155 311.145L304.938 313.085L303.08 313.073L302.215 311.026C302.105 310.761 302.007 310.589 301.921 310.509C301.803 310.406 301.669 310.353 301.519 310.352L301.374 310.351L301.356 313.062L299.705 313.051ZM301.382 309.089L302.075 309.094C302.15 309.094 302.296 309.065 302.511 309.006C302.621 308.979 302.71 308.91 302.78 308.798C302.849 308.686 302.885 308.557 302.885 308.412C302.887 308.196 302.833 308.03 302.725 307.914C302.617 307.798 302.413 307.739 302.113 307.737L301.391 307.732L301.382 309.089Z" fill="#2D74FF"/>
<path d="M308.844 306.432L310.484 306.443L310.457 310.422C310.454 310.817 310.403 311.189 310.303 311.539C310.203 311.889 310.047 312.194 309.836 312.455C309.625 312.716 309.404 312.9 309.173 313.004C308.853 313.151 308.469 313.222 308.022 313.22C307.763 313.218 307.48 313.193 307.175 313.145C306.869 313.098 306.614 313.006 306.409 312.869C306.204 312.733 306.017 312.54 305.849 312.29C305.68 312.04 305.565 311.783 305.503 311.518C305.405 311.093 305.356 310.716 305.359 310.388L305.385 306.409L307.026 306.42L306.999 310.494C306.996 310.858 307.075 311.143 307.234 311.349C307.394 311.555 307.616 311.659 307.902 311.661C308.185 311.663 308.407 311.563 308.569 311.362C308.732 311.162 308.814 310.876 308.817 310.506L308.844 306.432Z" fill="#2D74FF"/>
<path d="M315.088 310.419L316.525 310.975C316.425 311.482 316.27 311.905 316.06 312.243C315.849 312.582 315.589 312.837 315.28 313.008C314.97 313.179 314.577 313.263 314.1 313.26C313.522 313.256 313.05 313.147 312.685 312.934C312.32 312.72 312.006 312.347 311.744 311.814C311.481 311.281 311.353 310.601 311.358 309.772C311.365 308.667 311.605 307.82 312.077 307.23C312.549 306.64 313.213 306.347 314.07 306.353C314.74 306.357 315.266 306.531 315.647 306.874C316.028 307.216 316.31 307.741 316.491 308.446L315.037 308.842C314.988 308.638 314.935 308.489 314.881 308.395C314.79 308.236 314.678 308.114 314.545 308.028C314.413 307.942 314.264 307.899 314.1 307.898C313.727 307.895 313.441 308.081 313.24 308.456C313.088 308.734 313.01 309.172 313.006 309.77C313.002 310.51 313.088 311.018 313.265 311.294C313.442 311.569 313.693 311.708 314.017 311.71C314.332 311.712 314.57 311.603 314.733 311.382C314.894 311.162 315.013 310.841 315.088 310.419Z" fill="#2D74FF"/>
<path d="M316.979 306.487L321.976 306.52L321.965 308.169L320.288 308.158L320.255 313.187L318.611 313.177L318.644 308.147L316.968 308.136L316.979 306.487Z" fill="#2D74FF"/>
<path d="M322.786 306.525L324.433 306.536L324.389 313.215L322.741 313.203L322.786 306.525Z" fill="#2D74FF"/>
<path d="M325.385 309.886C325.392 308.796 325.639 307.949 326.127 307.344C326.615 306.74 327.291 306.441 328.155 306.447C329.04 306.453 329.721 306.756 330.196 307.355C330.671 307.955 330.905 308.793 330.898 309.868C330.892 310.648 330.783 311.287 330.571 311.785C330.359 312.284 330.054 312.67 329.656 312.945C329.259 313.221 328.765 313.357 328.175 313.353C327.575 313.349 327.079 313.225 326.687 312.983C326.296 312.74 325.98 312.359 325.739 311.837C325.497 311.318 325.38 310.667 325.385 309.886ZM327.029 309.906C327.024 310.581 327.121 311.066 327.318 311.361C327.516 311.657 327.787 311.806 328.13 311.809C328.484 311.811 328.758 311.669 328.953 311.381C329.149 311.094 329.249 310.577 329.254 309.83C329.258 309.201 329.16 308.741 328.96 308.45C328.76 308.159 328.487 308.012 328.141 308.01C327.809 308.007 327.542 308.153 327.339 308.446C327.137 308.739 327.033 309.226 327.029 309.906Z" fill="#2D74FF"/>
<path d="M331.815 306.585L333.35 306.595L335.328 310.303L335.353 306.608L336.903 306.618L336.858 313.297L335.308 313.287L333.341 309.606L333.316 313.273L331.771 313.263L331.815 306.585Z" fill="#2D74FF"/>
</svg>
