<svg width="294" height="249" viewBox="0 0 294 249" fill="none" xmlns="http://www.w3.org/2000/svg">
<path d="M49.932 158.105C49.932 158.105 49.7189 189.347 75.0811 210.81C100.443 232.274 136.662 234.666 165.949 237.375C195.236 240.084 218.44 224.106 222.818 199.165C227.196 174.224 205.058 166.326 193.989 137.546C182.919 108.766 184.384 99.4287 159.311 81.2748C134.237 63.1208 93.4989 72.8641 71.2137 102.346C48.9285 131.827 49.932 158.105 49.932 158.105Z" fill="#2D74FF"/>
<path opacity="0.7" d="M49.932 158.105C49.932 158.105 49.7189 189.347 75.0811 210.81C100.443 232.274 136.662 234.666 165.949 237.375C195.236 240.084 218.44 224.106 222.818 199.165C227.196 174.224 205.058 166.326 193.989 137.546C182.919 108.766 184.384 99.4287 159.311 81.2748C134.237 63.1208 93.4989 72.8641 71.2137 102.346C48.9285 131.827 49.932 158.105 49.932 158.105Z" fill="white"/>
<path d="M199.273 155.019C197.429 154.079 195.908 152.617 194.901 150.817C193.894 149.018 193.446 146.963 193.615 144.911C193.784 142.859 194.561 140.903 195.849 139.29C197.137 137.677 198.877 136.479 200.849 135.849C202.822 135.219 204.938 135.184 206.931 135.749C208.923 136.314 210.702 137.453 212.043 139.023C213.384 140.593 214.226 142.522 214.463 144.567C214.7 146.613 214.321 148.682 213.375 150.513C212.747 151.73 211.884 152.811 210.836 153.696C209.787 154.581 208.573 155.252 207.264 155.67C205.954 156.088 204.574 156.246 203.203 156.135C201.832 156.023 200.496 155.644 199.273 155.019V155.019Z" fill="#263238"/>
<path d="M209.332 140.172L214.413 147.256C214.617 145.879 214.538 144.476 214.181 143.13L209.332 140.172Z" fill="#2D74FF"/>
<path d="M198.679 136.841L210.753 153.763C211.755 152.936 212.592 151.927 213.218 150.791L203.09 135.402C201.53 135.547 200.022 136.039 198.679 136.841V136.841Z" fill="#2D74FF"/>
<path d="M203.671 156.151L198.426 148.688L201.158 155.758C201.977 155.988 202.82 156.121 203.671 156.151V156.151Z" fill="#2D74FF"/>
<path d="M207.932 155.419L195.94 139.182C195.824 139.324 195.715 139.48 195.606 139.629L204.292 156.165C205.54 156.132 206.773 155.879 207.932 155.419Z" fill="#2D74FF"/>
<path d="M141.954 247.479C138.914 248.856 135.531 249.307 132.234 248.774C128.936 248.241 125.871 246.749 123.427 244.486C120.983 242.223 119.268 239.291 118.501 236.06C117.734 232.829 117.948 229.444 119.117 226.334C120.285 223.224 122.355 220.528 125.066 218.587C127.776 216.646 131.005 215.547 134.343 215.429C137.682 215.31 140.982 216.179 143.824 217.923C146.666 219.668 148.925 222.21 150.313 225.23C151.236 227.236 151.752 229.403 151.831 231.607C151.911 233.812 151.552 236.01 150.776 238.076C150 240.143 148.821 242.037 147.307 243.65C145.793 245.264 143.974 246.565 141.954 247.479V247.479Z" fill="#263238"/>
<path d="M150.162 239.466L138.635 221.485L151.726 233.984C151.76 233.638 151.788 233.305 151.801 232.939L136.293 215.473C134.967 215.364 133.632 215.414 132.318 215.623L135.432 220.542L130.283 216.064L134.38 223.432L126.097 217.909C125.892 218.038 125.687 218.167 125.489 218.303L140.861 235.266L128.665 226.045L133.001 232.83L126.684 228.488L143.224 246.849C145.237 245.731 146.997 244.214 148.394 242.391L145.027 236.806L149.206 241.23C149.562 240.663 149.881 240.073 150.162 239.466V239.466Z" fill="#2D74FF"/>
<path d="M139.912 248.254L126.698 233.109L132.571 242.12L118.093 230.843C117.737 235.137 119.057 239.404 121.78 242.757C124.503 246.111 128.421 248.296 132.721 248.858L127.503 244.251L135.603 249C137.065 248.934 138.513 248.684 139.912 248.254Z" fill="#2D74FF"/>
<path d="M141.223 216.646L148.633 225.196L147.13 221.932L149.527 223.764C147.637 220.536 144.714 218.031 141.223 216.646V216.646Z" fill="#2D74FF"/>
<path d="M123.993 229.872L119.991 224.376C119.169 225.932 118.593 227.605 118.284 229.336L123.993 229.872Z" fill="#2D74FF"/>
<path d="M160.03 221.05C158.801 218.377 153.352 218.004 146.113 219.639C146.573 220.04 147.008 220.469 147.417 220.921C152.826 219.686 156.684 219.795 157.483 221.518C158.89 224.579 150.115 231.567 137.877 237.125C125.639 242.682 114.59 244.717 113.176 241.657C112.452 240.083 114.439 237.464 118.202 234.533C118.116 233.937 118.064 233.336 118.045 232.735C112.794 236.806 110.001 240.768 111.155 243.265C113.101 247.499 125.625 245.98 139.154 239.825C152.682 233.671 161.977 225.284 160.03 221.05Z" fill="#263238"/>
<path d="M64.8042 123.042C74.0182 123.042 81.4876 115.62 81.4876 106.465C81.4876 97.3102 74.0182 89.8887 64.8042 89.8887C55.5902 89.8887 48.1207 97.3102 48.1207 106.465C48.1207 115.62 55.5902 123.042 64.8042 123.042Z" fill="#2D74FF"/>
<path d="M68.7377 94.2039C69.8574 93.1838 71.1498 92.3684 72.5552 91.7952C71.2008 91.0839 69.7525 90.5654 68.2529 90.2549C66.7068 91.2793 65.237 92.4132 63.8549 93.6475C57.8863 99.0351 59.5116 98.4991 50.8387 101.729C50.0385 102.023 49.268 102.391 48.5373 102.828C48.2632 104.014 48.1235 105.227 48.1207 106.445C48.1225 108.536 48.5234 110.608 49.3022 112.551C52.4026 111.615 56.5273 110.095 58.4326 108.202C61.6833 104.986 62.2296 100.134 68.7377 94.2039Z" fill="#263238"/>
<path d="M52.6826 117.844C53.9452 119.176 55.4194 120.292 57.0464 121.149C60.1536 118.991 61.6014 116.698 66.0266 114.703C69.9124 112.945 76.3249 112.559 80.3267 112.511C81.0879 110.59 81.4793 108.544 81.4809 106.479C81.4809 106.194 81.4809 105.916 81.4399 105.631C76.7131 105.996 72.0668 107.055 67.652 108.772C61.3419 111.263 58.2825 115.707 52.6826 117.844Z" fill="#263238"/>
<path d="M69.2773 100.67C72.2274 102.136 76.7893 101.349 80.3062 100.372C79.6313 98.6851 78.6832 97.1196 77.4995 95.7373C72.8011 96.6126 65.1935 98.6414 69.2773 100.67Z" fill="#263238"/>
<path d="M185.305 31.2558C184.971 30.7264 184.862 30.0871 185.001 29.4779C185.141 28.8688 185.518 28.3393 186.049 28.0056L189.921 25.5697C190.186 25.4033 190.481 25.2904 190.789 25.2375C191.097 25.1846 191.413 25.1928 191.718 25.2615C192.024 25.3302 192.312 25.4582 192.567 25.638C192.823 25.8178 193.04 26.0459 193.206 26.3093V26.3093C193.374 26.572 193.487 26.8649 193.54 27.1713C193.594 27.4777 193.586 27.7916 193.516 28.0948C193.447 28.3981 193.318 28.6848 193.137 28.9384C192.956 29.1921 192.727 29.4078 192.462 29.573L188.597 31.9954C188.332 32.162 188.036 32.275 187.727 32.328C187.418 32.3809 187.102 32.3728 186.796 32.3041C186.491 32.2354 186.201 32.1075 185.945 31.9276C185.69 31.7477 185.472 31.5194 185.305 31.2558V31.2558Z" fill="white" stroke="#263238" stroke-width="1.19148" stroke-linecap="round" stroke-linejoin="round"/>
<path d="M183.201 47.88C181.37 45.2838 179.093 43.0283 176.475 41.2168C173.047 39.1832 169.498 37.3569 165.849 35.7479L163.643 23.5343C165.756 21.5196 167.651 19.2909 169.297 16.8847C171.292 13.6888 170.663 11.5446 169.386 9.33258C168.109 7.12057 166.34 8.55227 166.074 9.56329C165.878 10.6278 165.76 11.7049 165.719 12.7863C165.719 12.7863 164.531 4.64392 163.841 2.79153C163.151 0.939132 160.522 2.72367 160.754 3.34114C160.754 3.34114 159.962 1.02734 158.33 1.0002C156.698 0.973059 156.233 3.71433 156.233 3.71433C156.233 3.71433 154.137 2.75082 152.962 3.9586C151.788 5.16639 152.348 8.19265 152.348 8.19265C152.348 8.19265 150.477 8.87118 150.19 11.5107C149.903 14.1502 150.135 18.771 150.873 20.0398C151.252 20.642 151.583 21.2727 151.863 21.9262C150.934 32.9455 150.968 32.2195 150.695 36.6164C150.504 39.7105 152.546 46.903 155.475 49.8953C158.405 52.8876 168.888 58.1734 168.888 58.1734C168.888 58.1734 179.835 55.371 183.201 47.88Z" fill="white"/>
<path d="M168.929 58.1859C168.929 58.1859 179.855 55.37 183.201 47.879C183.201 47.879 182.983 47.5601 182.594 47.0512L179.753 44.6967C175.719 45.0328 171.712 45.6243 167.754 46.4676C161.758 47.8247 157.094 44.9206 155.318 38.3253C153.543 31.7299 151.904 21.9658 151.904 21.9658C150.975 32.9852 151.009 32.2592 150.736 36.6561C150.545 39.7502 152.587 46.9426 155.516 49.9349C158.446 52.9273 168.929 58.1859 168.929 58.1859Z" fill="#2D74FF"/>
<path opacity="0.5" d="M168.929 58.1859C168.929 58.1859 179.855 55.37 183.201 47.879C183.201 47.879 182.983 47.5601 182.594 47.0512L179.753 44.6967C175.719 45.0328 171.712 45.6243 167.754 46.4676C161.758 47.8247 157.094 44.9206 155.318 38.3253C153.543 31.7299 151.904 21.9658 151.904 21.9658C150.975 32.9852 151.009 32.2592 150.736 36.6561C150.545 39.7502 152.587 46.9426 155.516 49.9349C158.446 52.9273 168.929 58.1859 168.929 58.1859Z" fill="white"/>
<path d="M183.201 47.88C181.37 45.2838 179.093 43.0283 176.475 41.2168C173.047 39.1832 169.498 37.3569 165.849 35.7479L163.643 23.5343C165.756 21.5196 167.651 19.2909 169.297 16.8847C171.292 13.6888 170.663 11.5446 169.386 9.33258C168.109 7.12057 166.34 8.55227 166.074 9.56329C165.878 10.6278 165.76 11.7049 165.719 12.7863C165.719 12.7863 164.531 4.64392 163.841 2.79153C163.151 0.939132 160.522 2.72367 160.754 3.34114C160.754 3.34114 159.962 1.02734 158.33 1.0002C156.698 0.973059 156.233 3.71433 156.233 3.71433C156.233 3.71433 154.137 2.75082 152.962 3.9586C151.788 5.16639 152.348 8.19265 152.348 8.19265C152.348 8.19265 150.477 8.87118 150.19 11.5107C149.903 14.1502 150.135 18.771 150.873 20.0398C151.252 20.642 151.583 21.2727 151.863 21.9262C150.934 32.9455 150.968 32.2195 150.695 36.6164C150.504 39.7105 152.546 46.903 155.475 49.8953C158.405 52.8876 168.888 58.1734 168.888 58.1734C168.888 58.1734 179.835 55.371 183.201 47.88Z" stroke="#263238" stroke-width="1.19148" stroke-linecap="round" stroke-linejoin="round"/>
<path d="M164.995 31.005L163.629 23.5411C165.742 21.5264 167.637 19.2978 169.284 16.8915C171.278 13.6956 170.65 11.5514 169.373 9.33942C168.096 7.1274 166.327 8.55911 166.061 9.57012C165.865 10.6346 165.746 11.7118 165.705 12.7932C165.705 12.7932 164.517 4.65076 163.827 2.79836C163.138 0.945968 160.508 2.73051 160.741 3.34798C160.741 3.34798 159.948 1.03418 158.316 1.00704C156.684 0.979895 156.22 3.72117 156.22 3.72117C156.22 3.72117 154.123 2.75765 152.949 3.96544C151.774 5.17323 152.334 8.19949 152.334 8.19949C152.334 8.19949 150.463 8.87802 150.176 11.5175C149.889 14.157 150.121 18.7778 150.859 20.0467C151.238 20.6488 151.569 21.2795 151.849 21.933C151.439 26.8049 151.214 29.3969 151.071 31.1203L164.995 31.005Z" fill="white" stroke="#263238" stroke-width="1.19148" stroke-linecap="round" stroke-linejoin="round"/>
<path d="M154.096 48.0489C154.348 48.4579 154.624 48.8521 154.922 49.2295C157.804 46.8343 164.292 41.0871 167.215 36.1542C166.395 35.8963 165.849 35.7471 165.849 35.7471C165.849 35.7471 159.812 43.6113 154.096 48.0489Z" fill="white" stroke="#263238" stroke-width="1.19148" stroke-linecap="round" stroke-linejoin="round"/>
<path d="M165.719 12.773C165.719 12.773 159.266 12.5355 158.583 17.9435" stroke="#263238" stroke-width="1.19148" stroke-linecap="round" stroke-linejoin="round"/>
<path d="M160.754 3.32812L160.972 10.1474" stroke="#263238" stroke-width="1.19148" stroke-linecap="round" stroke-linejoin="round"/>
<path d="M156.234 3.72852L156.677 9.89638" stroke="#263238" stroke-width="1.19148" stroke-linecap="round" stroke-linejoin="round"/>
<path d="M152.348 8.20605L153.044 12.0533" stroke="#263238" stroke-width="1.19148" stroke-linecap="round" stroke-linejoin="round"/>
<path d="M162.27 9.82812C162.27 9.82812 154.984 11.0427 152.177 13.4108" stroke="#263238" stroke-width="1.19148" stroke-linecap="round" stroke-linejoin="round"/>
<path d="M160.556 52.5963C162.933 50.5607 162.748 46.4895 160.133 43.4429C157.613 40.5116 153.754 39.6499 151.351 41.4073C152.163 44.5286 153.652 48.0298 155.496 49.8958C156.841 51.1131 158.308 52.1908 159.873 53.112C160.118 52.9643 160.347 52.7915 160.556 52.5963V52.5963Z" fill="#2D74FF"/>
<path d="M160.556 52.5963C162.933 50.5607 162.748 46.4895 160.133 43.4429C157.613 40.5116 153.754 39.6499 151.351 41.4073C152.163 44.5286 153.652 48.0298 155.496 49.8958C156.841 51.1131 158.308 52.1908 159.873 53.112C160.118 52.9643 160.347 52.7915 160.556 52.5963V52.5963Z" stroke="#263238" stroke-width="1.19148" stroke-linecap="round" stroke-linejoin="round"/>
<path d="M155.919 60.5275C155.919 60.5275 152.867 60.8464 151.904 61.6674C150.941 62.4885 143.613 68.7174 142.425 72.4086C141.237 76.0998 145.751 87.1464 150.681 91.4075C155.612 95.6687 161.772 100.181 167.003 99.2514C172.234 98.3218 178.244 90.3151 178.865 88.137C179.486 85.9589 159.02 60.9957 159.02 60.9957C159.02 60.9957 157.565 59.5436 155.919 60.5275Z" fill="white"/>
<path d="M155.919 60.5285C155.919 60.5285 155.318 60.5896 154.554 60.732L155.236 61.8788C155.236 61.8788 154.608 68.3113 159.047 75.5987C163.486 82.8861 171.264 87.5137 171.039 90.16C170.814 92.8063 171.722 96.3414 165.043 95.9004C158.364 95.4594 151.276 84.2025 148.831 78.686C147.561 75.8158 146.468 71.4597 145.218 68.0873C144.013 69.3434 143.05 70.8084 142.377 72.4096C141.189 76.1008 145.703 87.1473 150.634 91.4085C155.564 95.6697 161.724 100.182 166.955 99.2524C172.186 98.3228 178.196 90.3161 178.817 88.138C179.439 85.9599 158.972 60.9967 158.972 60.9967C158.972 60.9967 157.565 59.5446 155.919 60.5285Z" fill="#2D74FF"/>
<path opacity="0.5" d="M155.919 60.5285C155.919 60.5285 155.318 60.5896 154.554 60.732L155.236 61.8788C155.236 61.8788 154.608 68.3113 159.047 75.5987C163.486 82.8861 171.264 87.5137 171.039 90.16C170.814 92.8063 171.722 96.3414 165.043 95.9004C158.364 95.4594 151.276 84.2025 148.831 78.686C147.561 75.8158 146.468 71.4597 145.218 68.0873C144.013 69.3434 143.05 70.8084 142.377 72.4096C141.189 76.1008 145.703 87.1473 150.634 91.4085C155.564 95.6697 161.724 100.182 166.955 99.2524C172.186 98.3228 178.196 90.3161 178.817 88.138C179.439 85.9599 158.972 60.9967 158.972 60.9967C158.972 60.9967 157.565 59.5446 155.919 60.5285Z" fill="white"/>
<path d="M155.919 60.5275C155.919 60.5275 152.867 60.8464 151.904 61.6674C150.941 62.4885 143.613 68.7174 142.425 72.4086C141.237 76.0998 145.751 87.1464 150.681 91.4075C155.612 95.6687 161.772 100.181 167.003 99.2514C172.234 98.3218 178.244 90.3151 178.865 88.137C179.486 85.9589 159.02 60.9957 159.02 60.9957C159.02 60.9957 157.565 59.5436 155.919 60.5275Z" stroke="#263238" stroke-width="1.19148" stroke-linecap="round" stroke-linejoin="round"/>
<path d="M181.993 45.7287C181.993 45.7287 178.756 44.643 173.934 46.6786C169.113 48.7142 157.053 55.7506 155.284 61.8777C154.116 65.9014 166.894 84.69 174.877 87.7841C177.021 88.6119 178.974 89.5144 183.365 85.9589C187.756 82.4034 196.962 72.5307 199.373 68.1813C201.783 63.8319 198.007 60.5885 196.743 58.6819C195.48 56.7752 185.38 44.2902 181.993 45.7287Z" fill="white"/>
<path d="M199.4 68.1211L191.075 70.7538C191.075 70.7538 182.416 80.9318 179.309 83.5577C176.202 86.1836 166.422 79.8054 163.09 76.7113L162.106 75.8021C166.088 81.1761 171.039 86.3058 174.877 87.7985C177.021 88.6264 178.974 89.5288 183.365 85.9733C187.756 82.4178 196.962 72.5451 199.373 68.1957C199.386 68.1725 199.395 68.1473 199.4 68.1211Z" fill="#2D74FF"/>
<path d="M195.077 67.2117L199.557 67.7885C201.544 63.6359 197.993 60.5282 196.743 58.669C195.494 56.8098 185.38 44.2909 181.993 45.7294C181.372 45.5562 180.732 45.4627 180.087 45.4512C175.99 48.5181 176.454 52.0397 180.197 58.384C183.939 64.7283 195.077 67.2117 195.077 67.2117Z" fill="#2D74FF"/>
<g opacity="0.5">
<path opacity="0.5" d="M199.4 68.1211L191.075 70.7538C191.075 70.7538 182.416 80.9318 179.309 83.5577C176.202 86.1836 166.422 79.8054 163.09 76.7113L162.106 75.8021C166.088 81.1761 171.039 86.3058 174.877 87.7985C177.021 88.6264 178.974 89.5288 183.365 85.9733C187.756 82.4178 196.962 72.5451 199.373 68.1957C199.386 68.1725 199.395 68.1473 199.4 68.1211Z" fill="white"/>
<path opacity="0.5" d="M195.077 67.2117L199.557 67.7885C201.544 63.6359 197.993 60.5282 196.743 58.669C195.494 56.8098 185.38 44.2909 181.993 45.7294C181.372 45.5562 180.732 45.4627 180.087 45.4512C175.99 48.5181 176.454 52.0397 180.197 58.384C183.939 64.7283 195.077 67.2117 195.077 67.2117Z" fill="white"/>
</g>
<path d="M181.993 45.7287C181.993 45.7287 178.756 44.643 173.934 46.6786C169.113 48.7142 157.053 55.7506 155.284 61.8777C154.116 65.9014 166.894 84.69 174.877 87.7841C177.021 88.6119 178.974 89.5144 183.365 85.9589C187.756 82.4034 196.962 72.5307 199.373 68.1813C201.783 63.8319 198.007 60.5885 196.743 58.6819C195.48 56.7752 185.38 44.2902 181.993 45.7287Z" stroke="#263238" stroke-width="1.19148" stroke-linecap="round" stroke-linejoin="round"/>
<path d="M185.627 64.3343L177.348 53.0499C176.04 51.2663 173.524 50.8743 171.729 52.1745L162.987 58.5057C161.192 59.8058 160.798 62.3058 162.106 64.0894L170.385 75.3738C171.693 77.1575 174.21 77.5494 176.005 76.2492L184.746 69.9181C186.541 68.6179 186.936 66.1179 185.627 64.3343Z" fill="white" stroke="#263238" stroke-width="1.19148" stroke-linecap="round" stroke-linejoin="round"/>
<path d="M290.664 131.292C280.454 104.829 254.914 105.121 232.385 105.399C224.62 105.494 217.285 105.589 210.531 104.72C187.743 101.857 181.228 78.5834 181.166 78.2577C181.112 78.0523 181.017 77.8596 180.887 77.6906C180.758 77.5217 180.596 77.3798 180.411 77.273C180.226 77.1662 180.022 77.0966 179.81 77.0682C179.598 77.0398 179.382 77.0532 179.176 77.1076C178.969 77.1619 178.775 77.2562 178.605 77.385C178.435 77.5138 178.292 77.6746 178.185 77.8583C178.077 78.042 178.007 78.2449 177.979 78.4554C177.95 78.666 177.964 78.8801 178.018 79.0855C178.087 79.3433 185.114 104.761 210.115 107.91C217.101 108.792 224.893 108.69 232.432 108.588C254.968 108.31 278.228 108.018 287.632 132.398C289.729 138.026 290.268 144.109 289.193 150.015C288.118 155.92 285.468 161.43 281.52 165.972C274.527 173.972 264.604 177.215 254.306 174.867C244.588 172.648 234.986 169.595 225.699 166.643C210.327 161.758 194.435 156.703 177.568 155.298C148.646 152.883 128.528 166.881 105.254 183.077C100.57 186.341 95.7278 189.707 90.6538 193.059L87.7651 194.972C73.3626 204.526 58.4752 214.405 41.6278 216.19C28.5296 217.547 15.2129 211.481 8.47263 201.025C6.6002 198.182 5.31587 194.997 4.69448 191.656C4.07308 188.315 4.12704 184.884 4.85321 181.564C5.52527 178.69 6.78429 175.984 8.55224 173.614C10.3202 171.243 12.5594 169.259 15.131 167.783C23.8517 162.62 39.2581 160.903 52.3973 162.355L52.6226 159.132C38.8347 157.673 22.7454 159.546 13.4647 165.035C10.5252 166.748 7.9658 169.035 5.94105 171.758C3.9163 174.481 2.46829 177.584 1.68452 180.879C0.850006 184.628 0.77775 188.506 1.472 192.283C2.16624 196.061 3.61299 199.663 5.72733 202.877C12.4881 213.374 24.719 219.718 37.7011 219.739C39.1268 219.738 40.5515 219.663 41.9693 219.515C59.6088 217.649 75.5274 207.091 89.5611 197.802L92.443 195.888C97.558 192.495 102.413 189.103 107.112 185.866C129.873 170.022 149.527 156.336 177.288 158.657C193.787 160.014 209.5 165.028 224.695 169.86C234.051 172.832 243.721 175.905 253.568 178.151C265.082 180.777 276.159 177.161 283.971 168.231C288.32 163.237 291.237 157.172 292.414 150.673C293.592 144.174 292.987 137.479 290.664 131.292V131.292Z" fill="white" stroke="#263238" stroke-width="1.19148" stroke-linecap="round" stroke-linejoin="round"/>
<path d="M177.219 57.2238C177.219 57.6599 177.089 58.0863 176.845 58.4489C176.601 58.8116 176.255 59.0942 175.849 59.2612C175.444 59.4281 174.997 59.4717 174.567 59.3866C174.136 59.3016 173.741 59.0915 173.43 58.7831C173.12 58.4747 172.909 58.0818 172.823 57.654C172.737 57.2262 172.781 56.7828 172.949 56.3799C173.117 55.9769 173.402 55.6325 173.767 55.3902C174.132 55.1479 174.561 55.0186 175 55.0186C175.588 55.0186 176.153 55.2509 176.569 55.6645C176.985 56.078 177.219 56.6389 177.219 57.2238V57.2238Z" fill="#2D74FF" stroke="#263238" stroke-width="1.19148" stroke-linecap="round" stroke-linejoin="round"/>
<path d="M171.196 62.257C171.197 62.6938 171.068 63.1211 170.825 63.4848C170.581 63.8484 170.235 64.1321 169.829 64.2999C169.423 64.4676 168.976 64.5119 168.545 64.427C168.114 64.3421 167.718 64.132 167.407 63.8232C167.096 63.5143 166.885 63.1208 166.799 62.6924C166.714 62.264 166.759 61.82 166.927 61.4168C167.096 61.0136 167.382 60.6692 167.748 60.4274C168.114 60.1856 168.544 60.0573 168.983 60.0586C169.57 60.0586 170.133 60.2902 170.548 60.7025C170.963 61.1148 171.196 61.674 171.196 62.257V62.257Z" fill="#2D74FF" stroke="#263238" stroke-width="1.19148" stroke-linecap="round" stroke-linejoin="round"/>
<path d="M201.755 62.7951C211.353 60.0245 216.873 50.0477 214.085 40.5114C211.296 30.975 201.255 25.4902 191.657 28.2608C182.059 31.0313 176.539 41.0081 179.328 50.5445C182.116 60.0809 192.157 65.5657 201.755 62.7951Z" fill="white"/>
<path d="M210.456 33.8354C209.828 33.1045 209.143 32.4239 208.408 31.7998C209.472 35.5077 209.307 39.4575 207.937 43.0652C206.568 46.6728 204.066 49.7467 200.802 51.8324C197.538 53.918 193.685 54.9047 189.813 54.6464C185.942 54.3882 182.256 52.8988 179.302 50.3984C180.036 52.9864 181.344 55.378 183.131 57.3969C184.919 59.4157 187.139 61.0105 189.629 62.0637C192.119 63.1168 194.815 63.6016 197.518 63.4822C200.221 63.3628 202.863 62.6423 205.249 61.3738C207.635 60.1053 209.705 58.3211 211.305 56.1527C212.904 53.9842 213.994 51.4868 214.494 48.8443C214.994 46.2018 214.89 43.4815 214.191 40.884C213.493 38.2865 212.216 35.8778 210.456 33.8354Z" fill="#2D74FF"/>
<path opacity="0.5" d="M210.456 33.8354C209.828 33.1045 209.143 32.4239 208.408 31.7998C209.472 35.5077 209.307 39.4575 207.937 43.0652C206.568 46.6728 204.066 49.7467 200.802 51.8324C197.538 53.918 193.685 54.9047 189.813 54.6464C185.942 54.3882 182.256 52.8988 179.302 50.3984C180.036 52.9864 181.344 55.378 183.131 57.3969C184.919 59.4157 187.139 61.0105 189.629 62.0637C192.119 63.1168 194.815 63.6016 197.518 63.4822C200.221 63.3628 202.863 62.6423 205.249 61.3738C207.635 60.1053 209.705 58.3211 211.305 56.1527C212.904 53.9842 213.994 51.4868 214.494 48.8443C214.994 46.2018 214.89 43.4815 214.191 40.884C213.493 38.2865 212.216 35.8778 210.456 33.8354Z" fill="white"/>
<path d="M201.755 62.7951C211.353 60.0245 216.873 50.0477 214.085 40.5114C211.296 30.975 201.255 25.4902 191.657 28.2608C182.059 31.0313 176.539 41.0081 179.328 50.5445C182.116 60.0809 192.157 65.5657 201.755 62.7951Z" stroke="#263238" stroke-width="1.19148" stroke-linecap="round" stroke-linejoin="round"/>
<path d="M212.771 57.95L218.044 53.4717" stroke="#263238" stroke-width="1.19148" stroke-linecap="round" stroke-linejoin="round"/>
<path d="M219.443 54.035C219.724 53.7965 219.898 53.457 219.927 53.0912C219.956 52.7254 219.837 52.3631 219.597 52.0842C219.357 51.8053 219.015 51.6325 218.647 51.6038C218.279 51.5752 217.914 51.6931 217.634 51.9315C217.495 52.0496 217.38 52.1937 217.298 52.3556C217.215 52.5176 217.165 52.6941 217.15 52.8753C217.121 53.2411 217.24 53.6034 217.48 53.8823C217.72 54.1612 218.062 54.334 218.43 54.3627C218.798 54.3913 219.163 54.2734 219.443 54.035V54.035Z" fill="#263238"/>
<path d="M206.311 63.3771C206.108 63.1411 205.954 62.8677 205.858 62.5724C205.761 62.2772 205.724 61.9659 205.749 61.6565C205.774 61.347 205.86 61.0455 206.002 60.7691C206.144 60.4926 206.339 60.2468 206.577 60.0455L210.046 57.0871C210.528 56.6813 211.152 56.4813 211.781 56.5309C212.411 56.5805 212.995 56.8756 213.406 57.3518V57.3518C213.61 57.5874 213.764 57.8605 213.861 58.1555C213.958 58.4505 213.996 58.7616 213.972 59.071C213.948 59.3804 213.862 59.6821 213.721 59.9588C213.579 60.2354 213.384 60.4817 213.147 60.6834L209.671 63.6418C209.19 64.0494 208.566 64.2504 207.936 64.2008C207.306 64.1512 206.721 63.8549 206.311 63.3771Z" fill="white" stroke="#263238" stroke-width="1.19148" stroke-linecap="round" stroke-linejoin="round"/>
<path d="M200.65 66.3428C200.65 66.3428 193.623 64.4565 190.857 69.7016C188.091 74.9466 191.212 88.022 191.212 88.022C191.212 88.022 186.077 96.3136 184.772 97.2161C183.468 98.1185 179.794 97.725 176.174 99.557C172.555 101.389 173.75 103.269 174.713 103.9C175.676 104.531 178.626 102.644 179.493 102.712C180.361 102.78 180.265 104.334 176.85 107.855C173.436 111.377 171.872 111.465 172.849 113.094C173.114 113.56 173.522 113.929 174.013 114.148C174.505 114.366 175.054 114.423 175.58 114.308C175.46 114.712 175.49 115.145 175.666 115.528C175.842 115.91 176.151 116.217 176.536 116.391C177.943 117.07 178.544 116.548 178.544 116.548C178.544 116.548 178.408 118.318 179.712 118.861C180.735 119.16 181.823 119.16 182.846 118.861C182.846 118.861 184.082 120.3 185.332 120.062C186.582 119.825 189.43 116.364 191.683 113.419C193.937 110.475 202.61 100.005 206.024 93.5859C209.439 87.167 207.82 80.6938 207.124 76.738C206.427 72.7821 203.272 67.2114 200.65 66.3428Z" fill="white"/>
<path d="M207.124 76.7589C206.441 72.8031 203.272 67.212 200.65 66.3434L200.486 66.3027C202.888 72.028 203.852 78.2483 203.293 84.4263C202.405 95.6764 192.018 104.552 188.856 107.815C186.322 110.435 183.133 114.105 178.537 116.82C178.52 117.234 178.62 117.644 178.827 118.004C179.033 118.364 179.338 118.659 179.705 118.855C180.728 119.154 181.816 119.154 182.84 118.855C182.84 118.855 184.076 120.294 185.325 120.056C186.575 119.819 189.423 116.358 191.676 113.413C193.93 110.468 202.603 99.9987 206.017 93.5798C209.432 87.1608 207.82 80.7148 207.124 76.7589Z" fill="#2D74FF"/>
<path opacity="0.5" d="M207.124 76.7589C206.441 72.8031 203.272 67.212 200.65 66.3434L200.486 66.3027C202.888 72.028 203.852 78.2483 203.293 84.4263C202.405 95.6764 192.018 104.552 188.856 107.815C186.322 110.435 183.133 114.105 178.537 116.82C178.52 117.234 178.62 117.644 178.827 118.004C179.033 118.364 179.338 118.659 179.705 118.855C180.728 119.154 181.816 119.154 182.84 118.855C182.84 118.855 184.076 120.294 185.325 120.056C186.575 119.819 189.423 116.358 191.676 113.413C193.93 110.468 202.603 99.9987 206.017 93.5798C209.432 87.1608 207.82 80.7148 207.124 76.7589Z" fill="white"/>
<path d="M200.65 66.3428C200.65 66.3428 193.623 64.4565 190.857 69.7016C188.091 74.9466 191.212 88.022 191.212 88.022C191.212 88.022 186.077 96.3136 184.772 97.2161C183.468 98.1185 179.794 97.725 176.174 99.557C172.555 101.389 173.75 103.269 174.713 103.9C175.676 104.531 178.626 102.644 179.493 102.712C180.361 102.78 180.265 104.334 176.85 107.855C173.436 111.377 171.872 111.465 172.849 113.094C173.114 113.56 173.522 113.929 174.013 114.148C174.505 114.366 175.054 114.423 175.58 114.308C175.46 114.712 175.49 115.145 175.666 115.528C175.842 115.91 176.151 116.217 176.536 116.391C177.943 117.07 178.544 116.548 178.544 116.548C178.544 116.548 178.408 118.318 179.712 118.861C180.735 119.16 181.823 119.16 182.846 118.861C182.846 118.861 184.082 120.3 185.332 120.062C186.582 119.825 189.43 116.364 191.683 113.419C193.937 110.475 202.61 100.005 206.024 93.5859C209.439 87.167 207.82 80.6938 207.124 76.738C206.427 72.7821 203.272 67.2114 200.65 66.3428Z" stroke="#263238" stroke-width="1.19148" stroke-linecap="round" stroke-linejoin="round"/>
<path d="M185.325 120.082C186.575 119.845 189.423 116.384 191.676 113.439C192.953 111.777 196.286 107.699 199.557 103.309C197.365 95.845 190.877 93.6126 187.989 92.9951C186.684 94.9357 185.346 96.7949 184.772 97.1952C183.468 98.0977 179.794 97.7041 176.174 99.5362C172.555 101.368 173.75 103.248 174.713 103.879C175.676 104.51 178.626 102.624 179.493 102.691C180.361 102.759 180.265 104.313 176.85 107.835C173.436 111.356 171.872 111.465 172.849 113.093C173.114 113.559 173.522 113.929 174.013 114.147C174.505 114.366 175.054 114.422 175.58 114.308C175.46 114.711 175.49 115.144 175.666 115.527C175.842 115.91 176.151 116.217 176.536 116.391C177.943 117.069 178.544 116.547 178.544 116.547C178.544 116.547 178.408 118.318 179.712 118.861C180.735 119.16 181.823 119.16 182.846 118.861C182.846 118.861 184.076 120.32 185.325 120.082Z" stroke="#263238" stroke-width="1.19148" stroke-linecap="round" stroke-linejoin="round"/>
<path d="M175.58 114.309C178.181 112.967 180.499 111.143 182.409 108.935" stroke="#263238" stroke-width="1.19148" stroke-linecap="round" stroke-linejoin="round"/>
<path d="M178.537 116.548C181.271 115.228 183.706 113.37 185.694 111.086" stroke="#263238" stroke-width="1.19148" stroke-linecap="round" stroke-linejoin="round"/>
<path d="M182.84 118.882C182.84 118.882 186.773 115.958 188.644 113.542" stroke="#263238" stroke-width="1.19148" stroke-linecap="round" stroke-linejoin="round"/>
<path d="M207.438 90.051C207.581 89.5353 207.691 89.0197 207.786 88.5108C202.063 84.7178 194.852 85.9595 191.007 87.0655C191.13 87.6558 191.212 88.0019 191.212 88.0019L190.618 88.9518C199.81 86.7466 204.877 88.3954 207.438 90.051Z" fill="white" stroke="#263238" stroke-width="1.19148" stroke-linecap="round" stroke-linejoin="round"/>
<path d="M203.45 93.5181C203.958 94.1076 204.563 94.6077 205.239 94.9973C205.519 94.5156 205.785 94.0542 206.024 93.6403C207.765 90.232 208.458 86.3905 208.018 82.5938C206.569 82.6569 205.182 83.199 204.078 84.134C202.749 85.2995 201.936 86.9398 201.819 88.6975C201.701 90.4552 202.287 92.188 203.45 93.5181V93.5181Z" fill="#2D74FF" stroke="#263238" stroke-width="1.19148" stroke-linecap="round" stroke-linejoin="round"/>
<path d="M138.744 68.7793C138.744 68.7793 141.585 76.9217 145.239 77.5256C148.892 78.1295 153.973 71.9684 155.004 67.3476C156.035 62.7268 152.409 59.0085 147.164 54.3673C141.92 49.7261 134.401 47.0256 128.043 50.5472C121.685 54.0687 112.288 64.1178 112.288 64.1178C112.288 64.1178 106.408 58.9813 103.288 61.6344C100.167 64.2874 104.237 72.4027 107.112 75.7479C109.987 79.093 115.232 83.9988 120.265 82.8318C125.298 81.6647 129.286 72.2806 132.557 69.5189C135.828 66.7573 138.02 67.9447 138.744 68.7793Z" fill="white"/>
<path d="M146.898 70.7527C141.346 68.1064 142.903 61.4839 137.337 59.7197C131.772 57.9555 132.229 61.7078 127.777 68.7714C123.324 75.8349 115.116 75.3871 109.564 73.6229C107.803 73.057 106.073 72.4025 104.38 71.6619C105.139 73.1367 106.055 74.5266 107.112 75.8077C109.987 79.1529 115.211 84.0112 120.237 82.8441C125.264 81.6771 129.259 72.2929 132.53 69.5313C135.801 66.7697 138.034 67.9571 138.751 68.7917C138.751 68.7917 141.592 76.9341 145.245 77.538C148.899 78.1419 153.98 71.9808 155.011 67.36C155.182 66.6034 155.226 65.8239 155.141 65.053L154.881 64.9987C154.881 64.9987 152.43 73.3922 146.898 70.7527Z" fill="#2D74FF"/>
<path opacity="0.5" d="M146.898 70.7527C141.346 68.1064 142.903 61.4839 137.337 59.7197C131.772 57.9555 132.229 61.7078 127.777 68.7714C123.324 75.8349 115.116 75.3871 109.564 73.6229C107.803 73.057 106.073 72.4025 104.38 71.6619C105.139 73.1367 106.055 74.5266 107.112 75.8077C109.987 79.1529 115.211 84.0112 120.237 82.8441C125.264 81.6771 129.259 72.2929 132.53 69.5313C135.801 66.7697 138.034 67.9571 138.751 68.7917C138.751 68.7917 141.592 76.9341 145.245 77.538C148.899 78.1419 153.98 71.9808 155.011 67.36C155.182 66.6034 155.226 65.8239 155.141 65.053L154.881 64.9987C154.881 64.9987 152.43 73.3922 146.898 70.7527Z" fill="white"/>
<path d="M138.744 68.7793C138.744 68.7793 141.585 76.9217 145.239 77.5256C148.892 78.1295 153.973 71.9684 155.004 67.3476C156.035 62.7268 152.409 59.0085 147.164 54.3673C141.92 49.7261 134.401 47.0256 128.043 50.5472C121.685 54.0687 112.288 64.1178 112.288 64.1178C112.288 64.1178 106.408 58.9813 103.288 61.6344C100.167 64.2874 104.237 72.4027 107.112 75.7479C109.987 79.093 115.232 83.9988 120.265 82.8318C125.298 81.6647 129.286 72.2806 132.557 69.5189C135.828 66.7573 138.02 67.9447 138.744 68.7793Z" stroke="#263238" stroke-width="1.19148" stroke-linecap="round" stroke-linejoin="round"/>
<path d="M120.832 55.9482C116.297 59.8973 112.309 64.1653 112.309 64.1653C112.309 64.1653 106.429 59.0288 103.308 61.6818C100.187 64.3349 104.257 72.4502 107.132 75.7953C110.008 79.1405 115.232 83.9988 120.265 82.8317C124.799 81.78 128.46 74.0108 131.546 70.5163C127.259 66.2223 123.647 61.3112 120.832 55.9482V55.9482Z" stroke="#263238" stroke-width="1.19148" stroke-linecap="round" stroke-linejoin="round"/>
<path d="M135.972 49.0403C135.414 48.9759 134.853 48.942 134.292 48.9385C135.96 55.1301 136.341 61.5946 135.412 67.9374C135.958 67.7923 136.529 67.7691 137.085 67.8695C137.46 63.0587 137.74 55.086 135.972 49.0403Z" stroke="#263238" stroke-width="1.19148" stroke-linecap="round" stroke-linejoin="round"/>
<path d="M139.803 59.6115C138.898 60.375 137.786 60.8549 136.607 60.9906C135.428 61.1262 134.235 60.9116 133.179 60.3738C132.123 59.8361 131.251 58.9992 130.673 57.9691C130.095 56.939 129.838 55.7619 129.933 54.5864C130.029 53.411 130.472 52.2901 131.209 51.3652C131.945 50.4404 132.941 49.7533 134.07 49.3906C135.2 49.028 136.412 49.0061 137.554 49.3277C138.696 49.6494 139.716 50.3001 140.486 51.1977C140.997 51.7945 141.386 52.4856 141.628 53.2316C141.871 53.9776 141.963 54.7638 141.9 55.5453C141.836 56.3268 141.618 57.0881 141.259 57.7859C140.899 58.4836 140.404 59.104 139.803 59.6115V59.6115Z" fill="#2D74FF" stroke="#263238" stroke-width="1.19148" stroke-linecap="round" stroke-linejoin="round"/>
<path d="M120.265 82.8308C121.461 82.4955 122.554 81.8707 123.447 81.0123C120.231 81.5416 114.289 81.3652 108.888 74.9055C103.629 68.6359 103.54 63.7572 104.059 61.1924C103.791 61.315 103.541 61.4724 103.315 61.6606C100.187 64.3136 104.264 72.4289 107.139 75.774C110.014 79.1192 115.232 83.9979 120.265 82.8308Z" stroke="#263238" stroke-width="1.19148" stroke-linecap="round" stroke-linejoin="round"/>
<path d="M155.182 97.6167C155.182 97.6167 163.493 100.046 166.108 97.4539C168.724 94.8619 169.113 86.9841 163.459 83.6457C159.361 81.2437 155.12 80.9316 148.271 82.4515C141.421 83.9714 134.845 88.5108 134.046 95.6761C133.247 102.841 136.026 116.317 136.026 116.317C136.026 116.317 128.412 118.088 128.767 122.159C129.122 126.23 138.143 127.649 142.548 127.262C146.953 126.875 153.98 125.477 155.94 120.734C157.9 115.991 152.525 107.313 152.156 103.092C151.788 98.872 154.082 97.7117 155.182 97.6167Z" fill="white"/>
<path d="M155.182 97.6168C155.182 97.6168 163.493 100.046 166.108 97.4539C167.816 95.7644 168.56 91.8492 167.324 88.3955C167.324 88.3955 168.007 91.9307 163.104 92.8128C158.2 93.6948 150.224 91.9307 146.673 96.3411C143.122 100.752 148.223 109.803 148.667 115.761C149.111 121.718 147.765 123.679 141.769 124.358C135.774 125.036 130.413 120.762 129.177 123.354C131.014 126.495 138.621 127.594 142.562 127.248C146.973 126.862 153.994 125.464 155.953 120.721C157.913 115.978 152.539 107.299 152.17 103.079C151.801 98.8585 154.082 97.7118 155.182 97.6168Z" fill="#2D74FF"/>
<path opacity="0.5" d="M155.182 97.6168C155.182 97.6168 163.493 100.046 166.108 97.4539C167.816 95.7644 168.56 91.8492 167.324 88.3955C167.324 88.3955 168.007 91.9307 163.104 92.8128C158.2 93.6948 150.224 91.9307 146.673 96.3411C143.122 100.752 148.223 109.803 148.667 115.761C149.111 121.718 147.765 123.679 141.769 124.358C135.774 125.036 130.413 120.762 129.177 123.354C131.014 126.495 138.621 127.594 142.562 127.248C146.973 126.862 153.994 125.464 155.953 120.721C157.913 115.978 152.539 107.299 152.17 103.079C151.801 98.8585 154.082 97.7118 155.182 97.6168Z" fill="white"/>
<path d="M155.182 97.6167C155.182 97.6167 163.493 100.046 166.108 97.4539C168.724 94.8619 169.113 86.9841 163.459 83.6457C159.361 81.2437 155.12 80.9316 148.271 82.4515C141.421 83.9714 134.845 88.5108 134.046 95.6761C133.247 102.841 136.026 116.317 136.026 116.317C136.026 116.317 128.412 118.088 128.767 122.159C129.122 126.23 138.143 127.649 142.548 127.262C146.953 126.875 153.98 125.477 155.94 120.734C157.9 115.991 152.525 107.313 152.156 103.092C151.788 98.872 154.082 97.7117 155.182 97.6167Z" stroke="#263238" stroke-width="1.19148" stroke-linecap="round" stroke-linejoin="round"/>
<path d="M134.264 104.68C134.865 110.644 136.04 116.344 136.04 116.344C136.04 116.344 128.425 118.115 128.781 122.186C129.136 126.257 138.157 127.676 142.562 127.289C146.966 126.902 153.994 125.504 155.954 120.761C157.722 116.48 153.536 109.009 152.416 104.477C146.41 105.452 140.291 105.52 134.264 104.68V104.68Z" stroke="#263238" stroke-width="1.19148" stroke-linecap="round" stroke-linejoin="round"/>
<path d="M137.392 88.4355C137.017 88.8476 136.666 89.2803 136.34 89.7315C142.369 91.9836 147.877 95.425 152.532 99.8485C152.734 99.3352 153.046 98.8721 153.447 98.4914C149.753 95.3362 143.381 90.4779 137.392 88.4355Z" stroke="#263238" stroke-width="1.19148" stroke-linecap="round" stroke-linejoin="round"/>
<path d="M144.104 97.6678C147.27 96.6783 149.03 93.326 148.034 90.1802C147.038 87.0344 143.664 85.2864 140.498 86.2758C137.332 87.2653 135.572 90.6176 136.568 93.7634C137.564 96.9092 140.938 98.6572 144.104 97.6678Z" fill="#2D74FF" stroke="#263238" stroke-width="1.19148" stroke-linecap="round" stroke-linejoin="round"/>
<path d="M155.954 120.734C156.375 119.572 156.497 118.324 156.309 117.104C154.875 120.014 151.282 124.717 142.869 125.341C134.674 125.952 130.625 123.19 128.835 121.27C128.776 121.557 128.757 121.852 128.781 122.145C129.143 126.216 138.157 127.634 142.562 127.248C146.967 126.861 153.994 125.477 155.954 120.734Z" stroke="#263238" stroke-width="1.19148" stroke-linecap="round" stroke-linejoin="round"/>
<path d="M202.808 37.9538C201.004 35.6 199.368 33.1241 197.911 30.5442C194.854 30.1369 191.745 30.6494 188.984 32.0155C186.223 33.3816 183.938 35.5386 182.423 38.208C180.908 40.8775 180.233 43.9368 180.486 46.991C180.738 50.0452 181.906 52.9541 183.839 55.3422C185.772 57.7303 188.381 59.4879 191.329 60.3881C194.278 61.2883 197.43 61.2898 200.379 60.3923C203.328 59.4949 205.938 57.7398 207.874 55.3535C209.809 52.9672 210.98 50.0594 211.235 47.0054C208.13 44.2742 205.307 41.2419 202.808 37.9538V37.9538Z" fill="#263238" stroke="#263238" stroke-width="1.19148" stroke-linecap="round" stroke-linejoin="round"/>
<path d="M204.303 51.8704C203.592 52.5607 202.687 53.0223 201.708 53.1952C200.729 53.3682 199.72 53.2445 198.812 52.8402C197.905 52.4359 197.14 51.7697 196.619 50.9283C196.097 50.0868 195.843 49.1089 195.888 48.1216C195.933 47.1344 196.276 46.1835 196.872 45.3924C197.468 44.6014 198.29 44.0068 199.231 43.6859C200.171 43.365 201.187 43.3326 202.147 43.5931C203.106 43.8535 203.965 44.3946 204.611 45.1461C205.036 45.6071 205.366 46.147 205.581 46.7348C205.796 47.3227 205.891 47.9469 205.863 48.5717C205.834 49.1965 205.682 49.8095 205.414 50.3756C205.147 50.9417 204.769 51.4496 204.303 51.8704V51.8704Z" fill="white"/>
<path d="M199.229 40.5033C199.009 40.6965 198.736 40.82 198.445 40.8582C198.154 40.8963 197.858 40.8472 197.595 40.7172C197.332 40.5872 197.115 40.3823 196.97 40.1286C196.825 39.8749 196.759 39.5839 196.782 39.293C196.804 39.0022 196.913 38.7246 197.096 38.4958C197.278 38.267 197.524 38.0974 197.804 38.0087C198.084 37.9201 198.384 37.9164 198.666 37.9982C198.948 38.0799 199.199 38.2434 199.386 38.4677C199.633 38.76 199.755 39.1368 199.726 39.5173C199.697 39.8979 199.518 40.2518 199.229 40.5033V40.5033Z" fill="white"/>
<path d="M53.3802 157.522L48.9966 157.094L48.3733 163.387L52.7569 163.816L53.3802 157.522Z" fill="#263238"/>
</svg>
